<?xml version="1.0" encoding="UTF-8" standalone="no"?>
<!DOCTYPE svg PUBLIC "-//W3C//DTD SVG 1.1//EN" "http://www.w3.org/Graphics/SVG/1.1/DTD/svg11.dtd">
<svg width="100%" height="100%" viewBox="0 0 800 800" version="1.1" xmlns="http://www.w3.org/2000/svg" xmlns:xlink="http://www.w3.org/1999/xlink" xml:space="preserve" xmlns:serif="http://www.serif.com/" style="fill-rule:evenodd;clip-rule:evenodd;stroke-linejoin:round;stroke-miterlimit:2;">
    <g id="Cache">
        <g id="BG">
            <circle cx="400" cy="400" r="398" style="fill:white;"/>
            <path d="M400,2C619.662,2 798,180.338 798,400C798,619.662 619.662,798 400,798C180.338,798 2,619.662 2,400C2,180.338 180.338,2 400,2ZM400,37C600.345,37 763,199.655 763,400C763,600.345 600.345,763 400,763C199.655,763 37,600.345 37,400C37,199.655 199.655,37 400,37Z"/>
        </g>
        <g>
            <g transform="matrix(4.68561,0,0,3.71504,-844.166,-495.412)">
                <path d="M322.414,269.637C322.414,278.296 320.184,286.076 315.725,292.977C311.265,299.878 304.738,305.281 296.145,309.188C287.551,313.094 277.362,315.047 265.578,315.047C251.451,315.047 239.797,312.378 230.617,307.039C224.107,303.198 218.817,298.071 214.748,291.658C210.679,285.245 208.645,279.012 208.645,272.957C208.645,269.441 209.865,266.43 212.307,263.924C214.748,261.417 217.857,260.164 221.633,260.164C224.693,260.164 227.281,261.141 229.396,263.094C231.512,265.047 233.319,267.944 234.816,271.785C236.639,276.342 238.609,280.151 240.725,283.211C242.84,286.271 245.819,288.794 249.66,290.779C253.501,292.765 258.547,293.758 264.797,293.758C273.391,293.758 280.373,291.756 285.744,287.752C291.115,283.748 293.801,278.751 293.801,272.762C293.801,268.009 292.352,264.152 289.455,261.189C286.558,258.227 282.814,255.965 278.225,254.402C273.635,252.84 267.499,251.18 259.816,249.422C249.53,247.013 240.92,244.197 233.986,240.975C227.053,237.752 221.551,233.357 217.482,227.791C213.413,222.225 211.379,215.307 211.379,207.039C211.379,199.161 213.527,192.163 217.824,186.043C222.121,179.923 228.339,175.219 236.477,171.932C244.615,168.644 254.185,167 265.188,167C273.977,167 281.577,168.09 287.99,170.271C294.403,172.452 299.725,175.35 303.957,178.963C308.189,182.576 311.281,186.368 313.234,190.34C315.188,194.311 316.164,198.185 316.164,201.961C316.164,205.411 314.943,208.52 312.502,211.287C310.061,214.054 307.017,215.438 303.371,215.438C300.051,215.438 297.528,214.607 295.803,212.947C294.077,211.287 292.206,208.569 290.188,204.793C287.583,199.389 284.458,195.174 280.813,192.146C277.167,189.119 271.307,187.605 263.234,187.605C255.747,187.605 249.709,189.249 245.119,192.537C240.529,195.825 238.234,199.78 238.234,204.402C238.234,207.267 239.016,209.741 240.578,211.824C242.141,213.908 244.289,215.698 247.023,217.195C249.758,218.693 252.525,219.865 255.324,220.711C258.124,221.557 262.746,222.794 269.191,224.422C277.264,226.31 284.572,228.393 291.115,230.672C297.658,232.951 303.225,235.717 307.814,238.973C312.404,242.228 315.985,246.346 318.557,251.326C321.128,256.307 322.414,262.41 322.414,269.637Z" style="fill:rgb(2,129,0);fill-rule:nonzero;stroke:black;stroke-width:4.73px;"/>
            </g>
            <g transform="matrix(1,0,0,1,143.5,1)">
                <path d="M337.5,461C324.409,451.434 303.158,443.853 272.5,438.559L272.5,695C272.5,712.937 287.063,727.5 305,727.5C322.937,727.5 337.5,712.937 337.5,695L337.5,461Z" style="fill:rgb(65,184,64);stroke:black;stroke-width:20px;"/>
            </g>
            <g transform="matrix(1,0,0,1,47,1)">
                <path d="M337.5,432L272.5,420L272.5,695C272.5,712.937 287.063,727.5 305,727.5C322.937,727.5 337.5,712.937 337.5,695L337.5,432Z" style="fill:rgb(65,184,64);stroke:black;stroke-width:20px;"/>
            </g>
            <g transform="matrix(1,0,0,1,47,1)">
                <path d="M272.5,103L272.5,313C293.968,324.037 315.652,327.218 337.5,328L337.5,103C337.5,85.063 322.937,70.5 305,70.5C287.063,70.5 272.5,85.063 272.5,103Z" style="fill:rgb(65,184,64);stroke:black;stroke-width:20px;"/>
            </g>
            <g transform="matrix(1,0,0,1,143.5,1)">
                <path d="M272.5,103L272.5,335.204C281.93,340.053 325.249,349.562 337.5,350L337.5,103C337.5,85.063 322.937,70.5 305,70.5C287.063,70.5 272.5,85.063 272.5,103Z" style="fill:rgb(65,184,64);stroke:black;stroke-width:20px;"/>
            </g>
        </g>
    </g>
    <g id="Badge" transform="matrix(0.941581,0,0,0.941581,2,44.7354)">
        <circle cx="145.5" cy="654.5" r="145.5"/>
        <path d="M145.5,509C225.804,509 291,574.196 291,654.5C291,734.804 225.804,800 145.5,800C65.196,800 0,734.804 0,654.5C0,574.196 65.196,509 145.5,509ZM145.5,519.089C220.235,519.089 280.911,579.765 280.911,654.5C280.911,729.235 220.235,789.911 145.5,789.911C70.765,789.911 10.089,729.235 10.089,654.5C10.089,579.765 70.765,519.089 145.5,519.089Z" style="fill:white;"/>
        <g transform="matrix(0.956835,0,0,0.956835,1.76984,19.0057)">
            <path d="M153.1,689.8L177.08,726.98C184.56,738.64 188.74,746.12 192.92,754.04L251.22,754.04C241.98,742.82 235.82,734.9 228.78,725L180.16,656.8L221.52,598.72C229.22,587.72 234.5,580.9 242.42,571L185.88,571C182.36,579.36 178.62,585.96 169.82,599.82L153.32,625.56L136.6,600.04C128.68,587.94 123.84,579.14 120.32,571L63.34,571C71.48,580.68 78.08,589.26 84.9,599.16L126.04,657.02L77.64,725C71.26,733.8 66.86,739.52 54.98,754.04L113.28,754.04C118.78,743.92 123.4,736.22 129.34,726.98L153.1,689.8Z" style="fill:white;fill-rule:nonzero;"/>
        </g>
    </g>
</svg>
