<?xml version="1.0" encoding="UTF-8" standalone="no"?>
<!DOCTYPE svg PUBLIC "-//W3C//DTD SVG 1.1//EN" "http://www.w3.org/Graphics/SVG/1.1/DTD/svg11.dtd">
<svg width="100%" height="100%" viewBox="0 0 800 800" version="1.1" xmlns="http://www.w3.org/2000/svg" xmlns:xlink="http://www.w3.org/1999/xlink" xml:space="preserve" xmlns:serif="http://www.serif.com/" style="fill-rule:evenodd;clip-rule:evenodd;stroke-linejoin:round;stroke-miterlimit:2;">
    <g id="FFMPEG">
        <circle cx="400" cy="400" r="398" style="fill:rgb(1,158,7);"/>
        <path d="M400,2C619.662,2 798,180.338 798,400C798,619.662 619.662,798 400,798C180.338,798 2,619.662 2,400C2,180.338 180.338,2 400,2ZM400,37C600.345,37 763,199.655 763,400C763,600.345 600.345,763 400,763C199.655,763 37,600.345 37,400C37,199.655 199.655,37 400,37Z"/>
        <g id="ffmpeg" transform="matrix(0.291018,0,0,-0.291018,72.6048,727.395)">
            <path d="M319,1931C295,1906 290,1894 290,1853C291,1767 330,1740 454,1740L543,1740L417,1611L290,1482L290,872L316,841C345,806 397,792 438,809C453,815 673,1028 925,1280L1385,1740L1477,1740C1528,1740 1570,1739 1570,1737C1570,1736 1282,1447 930,1095L290,455L290,401C290,356 294,344 319,319L348,290L964,290L1345,670C1554,879 1729,1050 1733,1050C1737,1050 1740,1009 1740,958L1740,866L1530,655C1331,455 1320,442 1320,406C1320,363 1334,332 1364,308C1383,292 1414,290 1643,290L1902,290L1931,319C1955,344 1960,356 1960,397C1959,483 1920,510 1796,510L1707,510L1833,639L1960,768L1960,1378L1934,1409C1905,1444 1853,1458 1812,1441C1797,1435 1577,1222 1325,970L865,510L773,510C722,510 680,511 680,513C680,514 968,803 1320,1155L1960,1795L1960,1849C1960,1894 1956,1906 1931,1931L1902,1960L1286,1960L905,1580C696,1371 521,1200 517,1200C513,1200 510,1241 510,1292L510,1384L720,1595C919,1795 930,1808 930,1844C930,1887 916,1918 886,1942C867,1958 836,1960 607,1960L348,1960L319,1931Z" style="fill:white;fill-rule:nonzero;"/>
            <path d="M421.423,1689.29L380.198,1647.09C380.198,1647.09 253.27,1518.16 253.27,1518.16C243.777,1508.52 238.457,1495.53 238.457,1482L238.457,872C238.457,859.886 242.723,848.159 250.508,838.878L276.438,807.961C319.54,756.085 396.899,736.16 457.742,761.387C461.443,762.864 479.104,774.463 504.931,797.997C577.267,863.908 759.087,1041.19 961.447,1243.55C961.447,1243.55 1406.35,1688.46 1406.35,1688.46L1449.51,1688.46C1339.14,1577.49 1130.9,1368.8 893.553,1131.45C893.553,1131.45 253.553,491.447 253.553,491.447C243.887,481.78 238.457,468.67 238.457,455L238.457,401C238.457,335.609 246.225,318.882 282.553,282.553C282.553,282.553 311.553,253.553 311.553,253.553C321.22,243.887 334.33,238.457 348,238.457L964,238.457C977.647,238.457 990.736,243.869 1000.4,253.506L1381.4,633.506C1381.41,633.522 1381.43,633.537 1381.45,633.553C1505.48,757.582 1617.45,868.173 1688.46,937.178L1688.46,887.278L1493.46,691.355C1370.66,567.935 1317.79,513.45 1294.88,481.854C1270.3,447.957 1268.46,429.834 1268.46,406C1268.46,345.363 1289.17,302.06 1331.31,268.144C1344.08,257.475 1359.46,248.051 1398.57,243.547C1434.45,239.415 1502.2,238.457 1643,238.457L1902,238.457C1915.67,238.457 1928.78,243.887 1938.45,253.553L1967.45,282.553C1967.69,282.801 1967.94,283.052 1968.18,283.305C2003.28,319.861 2011.54,337.048 2011.54,397C2011.54,397.2 2011.54,397.4 2011.54,397.599C2010.96,447.415 1998.67,482.672 1976.13,508.113C1949.68,537.957 1904.35,556.669 1828.58,560.706L1869.8,602.912C1869.8,602.912 1996.73,731.839 1996.73,731.839C2006.22,741.481 2011.54,754.469 2011.54,768L2011.54,1378C2011.54,1390.11 2007.28,1401.84 1999.49,1411.12L1973.56,1442.04C1930.46,1493.91 1853.1,1513.84 1792.26,1488.61C1788.56,1487.14 1770.9,1475.54 1745.07,1452C1672.73,1386.09 1490.91,1208.81 1288.55,1006.45C1288.55,1006.45 843.65,561.543 843.65,561.543L800.493,561.543C910.856,672.509 1119.1,881.201 1356.45,1118.55C1356.45,1118.55 1996.45,1758.55 1996.45,1758.55C2006.11,1768.22 2011.54,1781.33 2011.54,1795L2011.54,1849C2011.54,1914.39 2003.78,1931.12 1967.45,1967.45C1967.45,1967.45 1938.45,1996.45 1938.45,1996.45C1928.78,2006.11 1915.67,2011.54 1902,2011.54L1286,2011.54C1272.35,2011.54 1259.26,2006.13 1249.6,1996.49L868.601,1616.49C868.585,1616.48 868.569,1616.46 868.553,1616.45C744.525,1492.42 632.553,1381.83 561.543,1312.82L561.543,1362.72L756.538,1558.64C879.341,1682.07 932.215,1736.55 955.122,1768.15C979.697,1802.04 981.543,1820.17 981.543,1844C981.543,1904.64 960.827,1947.94 918.688,1981.86C905.919,1992.53 890.543,2001.95 851.432,2006.45C815.55,2010.59 747.799,2011.54 607,2011.54L348,2011.54C334.33,2011.54 321.22,2006.11 311.553,1996.45L282.553,1967.45C282.306,1967.2 282.06,1966.95 281.817,1966.69C246.723,1930.14 238.457,1912.95 238.457,1853C238.457,1852.8 238.458,1852.6 238.46,1852.4C239.04,1802.59 251.327,1767.33 273.872,1741.89C300.318,1712.04 345.652,1693.33 421.423,1689.29ZM319,1931C295,1906 290,1894 290,1853C291,1767 330,1740 454,1740L543,1740L417,1611L290,1482L290,872L316,841C345,806 397,792 438,809C453,815 673,1028 925,1280L1385,1740L1477,1740C1528,1740 1570,1739 1570,1737C1570,1736 1282,1447 930,1095L290,455L290,401C290,356 294,344 319,319L348,290L964,290L1345,670C1554,879 1729,1050 1733,1050C1737,1050 1740,1009 1740,958L1740,866L1530,655C1331,455 1320,442 1320,406C1320,363 1334,332 1364,308C1383,292 1414,290 1643,290L1902,290L1931,319C1955,344 1960,356 1960,397C1959,483 1920,510 1796,510L1707,510L1833,639L1960,768L1960,1378L1934,1409C1905,1444 1853,1458 1812,1441C1797,1435 1577,1222 1325,970L865,510L773,510C722,510 680,511 680,513C680,514 968,803 1320,1155L1960,1795L1960,1849C1960,1894 1956,1906 1931,1931L1902,1960L1286,1960L905,1580C696,1371 521,1200 517,1200C513,1200 510,1241 510,1292L510,1384L720,1595C919,1795 930,1808 930,1844C930,1887 916,1918 886,1942C867,1958 836,1960 607,1960L348,1960L319,1931Z"/>
        </g>
    </g>
    <g id="Badge" transform="matrix(0.941581,0,0,0.941581,2,44.7354)">
        <circle cx="145.5" cy="654.5" r="145.5"/>
        <path d="M145.5,509C225.804,509 291,574.196 291,654.5C291,734.804 225.804,800 145.5,800C65.196,800 0,734.804 0,654.5C0,574.196 65.196,509 145.5,509ZM145.5,519.089C220.235,519.089 280.911,579.765 280.911,654.5C280.911,729.235 220.235,789.911 145.5,789.911C70.765,789.911 10.089,729.235 10.089,654.5C10.089,579.765 70.765,519.089 145.5,519.089Z" style="fill:white;"/>
        <g transform="matrix(0.956835,0,0,0.956835,1.76984,19.0057)">
            <path d="M153.1,689.8L177.08,726.98C184.56,738.64 188.74,746.12 192.92,754.04L251.22,754.04C241.98,742.82 235.82,734.9 228.78,725L180.16,656.8L221.52,598.72C229.22,587.72 234.5,580.9 242.42,571L185.88,571C182.36,579.36 178.62,585.96 169.82,599.82L153.32,625.56L136.6,600.04C128.68,587.94 123.84,579.14 120.32,571L63.34,571C71.48,580.68 78.08,589.26 84.9,599.16L126.04,657.02L77.64,725C71.26,733.8 66.86,739.52 54.98,754.04L113.28,754.04C118.78,743.92 123.4,736.22 129.34,726.98L153.1,689.8Z" style="fill:white;fill-rule:nonzero;"/>
        </g>
    </g>
</svg>
