<?xml version="1.0" encoding="UTF-8" standalone="no"?>
<!DOCTYPE svg PUBLIC "-//W3C//DTD SVG 1.1//EN" "http://www.w3.org/Graphics/SVG/1.1/DTD/svg11.dtd">
<svg width="100%" height="100%" viewBox="0 0 800 800" version="1.1" xmlns="http://www.w3.org/2000/svg" xmlns:xlink="http://www.w3.org/1999/xlink" xml:space="preserve" xmlns:serif="http://www.serif.com/" style="fill-rule:evenodd;clip-rule:evenodd;stroke-linejoin:round;stroke-miterlimit:2;">
    <g id="BG">
        <circle cx="400" cy="400" r="398" style="fill:white;"/>
        <path d="M400,2C619.662,2 798,180.338 798,400C798,619.662 619.662,798 400,798C180.338,798 2,619.662 2,400C2,180.338 180.338,2 400,2ZM400,37C600.345,37 763,199.655 763,400C763,600.345 600.345,763 400,763C199.655,763 37,600.345 37,400C37,199.655 199.655,37 400,37Z"/>
    </g>
    <g>
        <circle cx="400" cy="400" r="370" style="fill:rgb(0,121,193);"/>
        <path d="M150.695,399.494C148.694,389.264 145,346.211 145,338C145,286.707 155.579,242.093 176.737,204.158C197.896,166.222 228.885,137.423 269.706,117.761C301.55,102.587 344.401,95 398.259,95C450.193,95 489.036,99.702 514.79,109.106C540.543,118.509 561.915,133.096 578.906,152.865C595.896,172.634 608.666,197.693 617.215,228.041L477.121,253.046C471.351,235.307 461.573,221.736 447.788,212.332C434.003,202.929 416.425,198.227 395.053,198.227C363.208,198.227 337.829,209.287 318.915,231.407C300.001,253.527 290.544,288.524 290.544,336.397C290.544,387.263 300.108,423.595 319.235,445.394C338.363,467.194 365.025,478.094 399.22,478.094C415.463,478.094 430.958,475.743 445.704,471.041C460.451,466.339 477.335,458.325 496.356,446.997L496.356,402.757L399.22,402.757L399.22,304.98L623.627,304.98L623.627,505.343L623.548,505.508C621.941,508.889 596.4,563.743 610,606C624.038,649.618 611.066,696.726 580,695C562,694 553.792,660.256 563,630C570,607 561.014,578.762 522,577.066C499,576.066 471.187,609.181 489,671C506.813,732.819 474.08,753.511 461,741C447.92,728.489 421.856,703.564 412,622C402.144,540.436 335.629,571.731 333.741,576.984C329.908,587.651 324.993,613.377 327,645C331.169,710.69 320.958,754.919 299,726C277.042,697.081 323.669,594.358 231,549C138.331,503.642 193.895,569.113 174,597C154.105,624.887 128.781,561.373 145,451C148.369,428.076 150.065,411.496 150.695,399.494Z" style="fill:white;fill-rule:nonzero;"/>
    </g>
    <g id="Badge" transform="matrix(0.941581,0,0,0.941581,2,44.7354)">
        <circle cx="145.5" cy="654.5" r="145.5"/>
        <path d="M145.5,509C225.804,509 291,574.196 291,654.5C291,734.804 225.804,800 145.5,800C65.196,800 0,734.804 0,654.5C0,574.196 65.196,509 145.5,509ZM145.5,519.089C220.235,519.089 280.911,579.765 280.911,654.5C280.911,729.235 220.235,789.911 145.5,789.911C70.765,789.911 10.089,729.235 10.089,654.5C10.089,579.765 70.765,519.089 145.5,519.089Z" style="fill:white;"/>
        <g transform="matrix(0.956835,0,0,0.956835,1.76984,19.0057)">
            <path d="M153.1,689.8L177.08,726.98C184.56,738.64 188.74,746.12 192.92,754.04L251.22,754.04C241.98,742.82 235.82,734.9 228.78,725L180.16,656.8L221.52,598.72C229.22,587.72 234.5,580.9 242.42,571L185.88,571C182.36,579.36 178.62,585.96 169.82,599.82L153.32,625.56L136.6,600.04C128.68,587.94 123.84,579.14 120.32,571L63.34,571C71.48,580.68 78.08,589.26 84.9,599.16L126.04,657.02L77.64,725C71.26,733.8 66.86,739.52 54.98,754.04L113.28,754.04C118.78,743.92 123.4,736.22 129.34,726.98L153.1,689.8Z" style="fill:white;fill-rule:nonzero;"/>
        </g>
    </g>
</svg>
