<?xml version="1.0" encoding="UTF-8" standalone="no"?>
<!DOCTYPE svg PUBLIC "-//W3C//DTD SVG 1.1//EN" "http://www.w3.org/Graphics/SVG/1.1/DTD/svg11.dtd">
<svg width="100%" height="100%" viewBox="0 0 800 800" version="1.1" xmlns="http://www.w3.org/2000/svg" xmlns:xlink="http://www.w3.org/1999/xlink" xml:space="preserve" xmlns:serif="http://www.serif.com/" style="fill-rule:evenodd;clip-rule:evenodd;stroke-linejoin:round;stroke-miterlimit:2;">
    <g id="Houdini">
        <g id="BG">
            <circle cx="400" cy="400" r="398" style="fill:white;"/>
            <path d="M400,2C619.662,2 798,180.338 798,400C798,619.662 619.662,798 400,798C180.338,798 2,619.662 2,400C2,180.338 180.338,2 400,2ZM400,37C600.345,37 763,199.655 763,400C763,600.345 600.345,763 400,763C199.655,763 37,600.345 37,400C37,199.655 199.655,37 400,37Z"/>
        </g>
        <g transform="matrix(1.62795,0,0,1.62795,-264.179,-221.179)">
            <path d="M232.918,215.719L183.777,309.065L194.487,302.194C283.805,245.208 397.979,253.494 477.8,322.806C500.433,342.61 520.64,370.901 530.542,397.575C547.719,443.043 544.283,488.914 520.236,534.786C504.878,564.087 482.044,589.549 454.763,607.736L442.032,616.223L569.539,554.796C609.033,509.843 632.205,456.495 644.48,397.543C642.451,326.859 621.673,266.47 579.981,217.562C463.153,127.586 347.414,122.934 232.918,215.719ZM292.899,310.075C256.323,315.734 219.343,333.516 193.274,357.968L183.777,366.859L183.979,397.171C183.979,426.068 184.181,427.078 187.414,422.229C210.451,388.482 252.483,357.564 286.836,349.278C303.205,345.439 333.314,346.247 352.512,351.299C389.694,360.999 414.55,379.59 427.887,407.679C434.151,420.814 435.364,425.462 435.97,441.022C437.991,482.448 415.156,525.692 383.025,541.454C345.035,560.248 294.718,548.325 278.551,517.003C270.872,501.645 275.52,476.385 288.655,462.644C300.376,450.317 309.065,452.944 312.096,469.717C315.329,487.702 327.454,497.401 341.195,493.158C364.232,486.287 379.994,463.654 376.559,442.638C374.74,431.322 365.445,417.581 355.341,410.71C347.258,405.456 345.439,405.052 326.444,405.254C309.065,405.456 303.609,406.264 289.463,411.721C251.069,426.068 230.659,450.519 228.638,484.873C227.83,497.401 228.638,502.655 232.68,514.376C249.654,562.875 291.888,590.155 350.491,590.357C407.477,590.761 448.903,563.077 465.473,513.77C473.556,489.723 475.981,466.484 472.95,442.436C468.1,403.637 455.167,375.953 429.503,350.289C405.658,326.444 384.238,315.329 351.501,309.873C330.889,306.438 315.734,306.438 292.899,310.075Z" style="fill:rgb(255,102,1);fill-rule:nonzero;"/>
        </g>
        <path id="BG1" serif:id="BG" d="M400,2C619.662,2 798,180.338 798,400C798,619.662 619.662,798 400,798C180.338,798 2,619.662 2,400C2,180.338 180.338,2 400,2ZM400,37C600.345,37 763,199.655 763,400C763,600.345 600.345,763 400,763C199.655,763 37,600.345 37,400C37,199.655 199.655,37 400,37Z"/>
    </g>
    <g id="Badge" transform="matrix(0.941581,0,0,0.941581,2,44.7354)">
        <circle cx="145.5" cy="654.5" r="145.5"/>
        <path d="M145.5,509C225.804,509 291,574.196 291,654.5C291,734.804 225.804,800 145.5,800C65.196,800 0,734.804 0,654.5C0,574.196 65.196,509 145.5,509ZM145.5,519.089C220.235,519.089 280.911,579.765 280.911,654.5C280.911,729.235 220.235,789.911 145.5,789.911C70.765,789.911 10.089,729.235 10.089,654.5C10.089,579.765 70.765,519.089 145.5,519.089Z" style="fill:white;"/>
        <g transform="matrix(0.956835,0,0,0.956835,1.76984,19.0057)">
            <path d="M153.1,689.8L177.08,726.98C184.56,738.64 188.74,746.12 192.92,754.04L251.22,754.04C241.98,742.82 235.82,734.9 228.78,725L180.16,656.8L221.52,598.72C229.22,587.72 234.5,580.9 242.42,571L185.88,571C182.36,579.36 178.62,585.96 169.82,599.82L153.32,625.56L136.6,600.04C128.68,587.94 123.84,579.14 120.32,571L63.34,571C71.48,580.68 78.08,589.26 84.9,599.16L126.04,657.02L77.64,725C71.26,733.8 66.86,739.52 54.98,754.04L113.28,754.04C118.78,743.92 123.4,736.22 129.34,726.98L153.1,689.8Z" style="fill:white;fill-rule:nonzero;"/>
        </g>
    </g>
</svg>
