<?xml version="1.0" encoding="UTF-8" standalone="no"?>
<!DOCTYPE svg PUBLIC "-//W3C//DTD SVG 1.1//EN" "http://www.w3.org/Graphics/SVG/1.1/DTD/svg11.dtd">
<svg width="100%" height="100%" viewBox="0 0 800 800" version="1.1" xmlns="http://www.w3.org/2000/svg" xmlns:xlink="http://www.w3.org/1999/xlink" xml:space="preserve" xmlns:serif="http://www.serif.com/" style="fill-rule:evenodd;clip-rule:evenodd;stroke-linecap:square;stroke-miterlimit:1.5;">
    <g id="HUD" transform="matrix(0.759312,0,0,0.73639,96.2751,105.444)">
        <g id="BG" transform="matrix(1.31698,0,0,1.35798,-126.792,-143.191)">
            <circle cx="400" cy="400" r="398" style="fill:white;"/>
            <path d="M400,2C619.662,2 798,180.338 798,400C798,619.662 619.662,798 400,798C180.338,798 2,619.662 2,400C2,180.338 180.338,2 400,2ZM400,37C600.345,37 763,199.655 763,400C763,600.345 600.345,763 400,763C199.655,763 37,600.345 37,400C37,199.655 199.655,37 400,37Z"/>
        </g>
        <g transform="matrix(1.75597,2.22045e-16,2.18989e-17,1.17067,-258.052,-14.2765)">
            <rect x="176" y="623" width="129" height="58"/>
        </g>
        <g transform="matrix(0.8725,0,0,0.8725,51,51)">
            <path d="M200,0C89.617,0 0,89.617 0,200" style="fill:none;stroke:black;stroke-width:76.62px;"/>
            <path d="M0,600L0,600C0,710.383 89.617,800 200,800L200,800" style="fill:none;stroke:black;stroke-width:76.62px;"/>
            <path d="M600,800C710.383,800 800,710.383 800,600L800,600" style="fill:none;stroke:black;stroke-width:76.62px;stroke-linecap:butt;"/>
            <path d="M800,200C800,89.617 710.383,0 600,0" style="fill:none;stroke:black;stroke-width:76.62px;stroke-linejoin:round;"/>
        </g>
        <g transform="matrix(2.95662,0,0,1.27639,-838.446,136.504)">
            <path d="M314.641,312.057L335.832,312.057L335.832,247.341L361.221,247.341L361.221,312.057L382.412,312.057L382.412,144.998L361.221,144.998L361.221,208.441L335.832,208.441L335.832,144.998L314.641,144.998L314.641,312.057Z" style="fill-rule:nonzero;"/>
            <path d="M417.948,316.688C424.378,316.688 429.976,314.102 434.741,308.931C439.505,303.76 443.204,296.505 445.836,287.166C448.468,277.827 449.785,266.867 449.785,254.287L449.785,144.998L428.593,144.998L428.593,249.424C428.593,258.146 427.694,264.861 425.894,269.569C424.095,274.277 421.463,276.631 417.998,276.631C414.566,276.631 411.942,274.277 410.126,269.569C408.31,264.861 407.402,258.146 407.402,249.424L407.402,144.998L386.211,144.998L386.211,254.287C386.211,266.945 387.535,277.943 390.184,287.282C392.833,296.621 396.54,303.856 401.305,308.989C406.069,314.122 411.617,316.688 417.948,316.688Z" style="fill-rule:nonzero;"/>
            <path d="M457.481,312.057L489.468,312.057C496.732,312.057 502.862,308.777 507.86,302.216C512.858,295.656 516.648,286.008 519.231,273.273C521.813,260.539 523.104,244.948 523.104,226.502L523.104,226.27C523.104,208.904 521.796,194.163 519.181,182.045C516.565,169.928 512.758,160.724 507.76,154.434C502.763,148.143 496.665,144.998 489.468,144.998L457.481,144.998L457.481,312.057ZM478.673,273.158L478.673,183.898L485.32,183.898C488.718,183.898 491.625,185.557 494.041,188.876C496.457,192.195 498.306,197.076 499.589,203.521C500.872,209.966 501.513,217.857 501.513,227.196L501.513,227.428C501.513,237.616 500.897,246.106 499.664,252.898C498.431,259.69 496.615,264.764 494.216,268.122C491.817,271.479 488.852,273.158 485.32,273.158L478.673,273.158Z" style="fill-rule:nonzero;"/>
        </g>
    </g>
    <g id="Badge" transform="matrix(0.941581,0,0,0.941581,2,44.7354)">
        <circle cx="145.5" cy="654.5" r="145.5"/>
        <path d="M145.5,509C225.804,509 291,574.196 291,654.5C291,734.804 225.804,800 145.5,800C65.196,800 0,734.804 0,654.5C0,574.196 65.196,509 145.5,509ZM145.5,519.089C220.235,519.089 280.911,579.765 280.911,654.5C280.911,729.235 220.235,789.911 145.5,789.911C70.765,789.911 10.089,729.235 10.089,654.5C10.089,579.765 70.765,519.089 145.5,519.089Z" style="fill:white;"/>
        <g transform="matrix(0.956835,0,0,0.956835,1.76984,19.0057)">
            <path d="M153.1,689.8L177.08,726.98C184.56,738.64 188.74,746.12 192.92,754.04L251.22,754.04C241.98,742.82 235.82,734.9 228.78,725L180.16,656.8L221.52,598.72C229.22,587.72 234.5,580.9 242.42,571L185.88,571C182.36,579.36 178.62,585.96 169.82,599.82L153.32,625.56L136.6,600.04C128.68,587.94 123.84,579.14 120.32,571L63.34,571C71.48,580.68 78.08,589.26 84.9,599.16L126.04,657.02L77.64,725C71.26,733.8 66.86,739.52 54.98,754.04L113.28,754.04C118.78,743.92 123.4,736.22 129.34,726.98L153.1,689.8Z" style="fill:white;fill-rule:nonzero;"/>
        </g>
    </g>
</svg>
