<?xml version="1.0" encoding="UTF-8" standalone="no"?>
<!DOCTYPE svg PUBLIC "-//W3C//DTD SVG 1.1//EN" "http://www.w3.org/Graphics/SVG/1.1/DTD/svg11.dtd">
<svg width="100%" height="100%" viewBox="0 0 800 800" version="1.1" xmlns="http://www.w3.org/2000/svg" xmlns:xlink="http://www.w3.org/1999/xlink" xml:space="preserve" xmlns:serif="http://www.serif.com/" style="fill-rule:evenodd;clip-rule:evenodd;">
    <g>
        <g id="BG">
            <circle cx="400" cy="400" r="398" style="fill:rgb(137,46,46);"/>
            <path d="M400,2C619.662,2 798,180.338 798,400C798,619.662 619.662,798 400,798C180.338,798 2,619.662 2,400C2,180.338 180.338,2 400,2ZM400,37C600.345,37 763,199.655 763,400C763,600.345 600.345,763 400,763C199.655,763 37,600.345 37,400C37,199.655 199.655,37 400,37Z"/>
        </g>
        <g id="Layer-1" serif:id="Layer 1" transform="matrix(14.6926,0,0,14.6926,15.7627,74.2207)">
            <g id="g30147" transform="matrix(1,0,0,1,-0.162326,-166.619)">
                <path id="path30149" d="M35.797,202.836C38.082,204.434 41.099,202.401 41.207,200.778C46.035,200.668 46.036,197.046 46.036,195.949C46.036,193.535 44.938,192.549 43.403,191.56L43.439,191.559L43.413,191.567C44.442,191.261 45.434,190.553 45.257,188.944C47.915,187.881 47.029,184.868 45.257,184.69C47.029,184.513 46.497,181.323 44.725,181.677C45.033,180.143 42.283,177.944 40.273,178.878L40.352,178.844L40.352,178.845C40.234,178.491 39.466,177.486 38.404,177.722C38.758,177.013 38.64,176.306 37.578,175.479C38.759,175.714 39.586,174.18 38.287,173.473C39.586,171.467 37.578,169.812 36.397,170.402C35.571,168.395 31.439,167.923 30.141,169.34C29.197,168.16 27.189,167.451 25.891,168.041C24.275,168.776 23.884,170.167 23.766,171.819C23.057,171.7 20.333,172.67 20.097,175.505L20.12,175.522C18.898,174.571 17.209,173.879 15.658,173.879C13.177,173.879 10.695,176.005 10.873,178.31C8.214,178.31 7.328,183.449 10.695,184.513C9.987,184.513 8.569,185.399 8.746,186.463C6.619,186.109 4.492,188.058 4.492,190.539C3.429,190.185 -0.47,193.552 3.251,195.856C2.01,196.742 2.543,199.223 6.619,199.933C5.178,202.777 8.027,203.283 8.027,203.283C10.329,211.348 17.825,213.619 21.681,213.619C26.004,213.619 33.422,211.378 35.445,202.977L35.797,202.836Z" style="fill:none;fill-rule:nonzero;stroke:rgb(35,36,38);stroke-width:2px;"/>
            </g>
            <path id="path30156" d="M29.443,30.6C28.68,30.49 26.828,31.797 28.681,33.324C28.958,33.6 29.989,33.432 29.989,33.432L30.381,33.529L30.406,33.522C29.396,33.79 28.499,34.385 27.944,34.97C25.685,33.58 23.613,34.82 22.578,36.42L22.252,35.939C21.38,32.125 25.087,32.236 25.957,32.888C25.304,30.817 27.482,30.164 27.482,30.164L27.659,29.972C25.621,29.555 24.826,28.039 25.534,26.799C24.374,26.531 22.798,24.183 23.067,22.61L23.025,22.582L23.072,22.582C23.155,22.142 23.385,21.763 23.811,21.513L24.012,21.842C24.012,24.254 26.235,26.697 28.429,26.368C27.66,27.794 28.538,29.222 30.514,29.222L29.443,30.6Z" style="fill:url(#_Radial1);fill-rule:nonzero;"/>
            <path id="path30158" d="M32.498,29.647L32.547,29.653C32.952,29.41 33.501,28.863 33.501,28.247L33.482,28.25C32.046,28.497 30.129,28.607 29.417,27.465C29.417,27.465 29.417,28.007 30.161,28.855L30.159,28.852C31.155,28.555 32.592,28.883 32.547,29.654L32.498,29.647Z" style="fill:rgb(35,36,38);fill-rule:nonzero;"/>
            <path id="path30169" d="M35.121,27.904C35.121,27.904 37.621,27.104 38.318,24.771C39.015,26.653 41.196,25.162 41.196,25.162C41.196,25.162 45.449,25.516 45.095,22.325C45.003,23.577 44.585,23.733 44.585,23.733C43.679,24.144 43.761,21.346 43.761,19.948C42.363,20.441 40.799,18.631 40.716,17.972C40.716,20.441 38.988,20.688 38.165,20.688C37.343,20.688 35.532,20.112 36.025,18.301C36.518,16.49 34.215,17.149 34.956,18.383C35.696,19.618 36.108,20.605 35.696,21.84C35.233,23.23 32.322,23.979 30.594,21.511C30.293,22.459 30.512,22.746 30.512,22.746C30.772,23.526 31.569,24.226 32.36,24.556C31.113,24.801 30.732,25.818 30.732,25.818C30.403,26.477 28.866,26.258 28.866,26.258L28.428,26.366C27.659,27.792 28.537,29.22 30.513,29.22C29.416,28.164 29.416,27.463 29.416,27.463C30.513,29.221 34.463,28.015 35.121,27.904Z" style="fill:url(#_Radial2);fill-rule:nonzero;"/>
            <path id="path30178" d="M35.634,36.218C37.326,36.256 40.612,33.472 40.413,31.493C40.193,29.299 38.657,29.517 38.657,29.517C41.18,27.871 42.745,25.632 41.195,25.162C41.195,25.162 42.258,25.251 43.277,24.94L43.241,24.941C44.776,25.929 45.874,26.916 45.874,29.33C45.874,30.427 45.873,34.049 41.045,34.159C40.936,35.805 37.836,37.871 35.54,36.148L35.634,36.218Z" style="fill:url(#_Radial3);fill-rule:nonzero;"/>
            <path id="path30189" d="M35.121,27.904C34.305,28.883 33.428,30.047 33.846,31.435L33.694,31.471C33.694,30.572 33.204,29.671 32.499,29.646L32.548,29.652C32.625,28.312 28.236,28.312 29.444,30.599C29.009,31.035 28.465,32.34 29.99,33.431L30.382,33.528C32.049,33.077 34.028,33.511 35.283,36.359L35.148,36.101C36.574,36.87 40.634,33.686 40.415,31.493C40.195,29.299 38.659,29.517 38.659,29.517C41.182,27.871 42.747,25.632 41.197,25.162C41.197,25.162 39.016,26.653 38.319,24.771C37.621,27.105 35.121,27.904 35.121,27.904Z" style="fill:url(#_Radial4);fill-rule:nonzero;"/>
            <path id="path30191" d="M33.693,31.472C33.693,30.573 33.203,29.672 32.498,29.647L32.547,29.653C32.952,29.41 33.501,28.863 33.501,28.247C34.267,28.115 34.893,27.944 35.121,27.905C34.299,28.892 33.415,30.065 33.856,31.469L33.693,31.472Z" style="fill-rule:nonzero;"/>
            <path id="path30198" d="M24.011,21.841C24.011,24.253 26.234,26.696 28.428,26.367L28.866,26.259C28.866,26.259 30.403,26.478 30.732,25.819C30.732,25.819 31.113,24.802 32.36,24.557C31.569,24.228 30.772,23.528 30.512,22.747L30.594,21.512C29.689,23.734 28.536,23.734 26.809,23.569C25.081,23.404 24.258,22.581 24.011,21.841" style="fill:url(#_Radial5);fill-rule:nonzero;"/>
            <path id="path30211" d="M30.668,11.125C31.619,10.116 33.067,9.464 34.283,9.565C36.41,9.741 38.537,11.161 39.246,12.932C39.53,12.598 39.85,12.367 40.19,12.225L40.19,12.226C40.072,11.872 39.304,10.867 38.242,11.103C38.596,10.394 38.478,9.687 37.416,8.86C38.597,9.095 39.424,7.561 38.125,6.854C39.424,4.848 37.416,3.193 36.235,3.783C35.409,1.776 31.277,1.304 29.979,2.721C29.035,1.541 27.027,0.832 25.729,1.422C24.113,2.157 23.722,3.548 23.604,5.2C22.895,5.081 20.171,6.051 19.935,8.886C20.68,9.459 21.254,10.131 21.523,10.803C23.074,10.582 24.417,11.746 25.076,13.039L25.082,13.116C27.386,11.8 26.975,9.495 27.386,8.262C27.715,9.166 29.279,9.002 29.608,8.591C29.361,9.908 29.351,10.96 30.668,11.125Z" style="fill:url(#_Radial6);fill-rule:nonzero;"/>
            <path id="path30218" d="M23.024,22.581C19.979,23.651 18.662,23.568 17.346,22.581C17.017,26.037 12.656,29.247 8.787,29.247C11.832,27.354 13.232,30.398 13.232,30.398C14.219,27.271 20.967,26.86 22.366,32.373C23.189,30.727 25.987,30.316 25.987,30.316C22.695,28.258 24.671,27.189 24.671,27.189C21.132,26.284 22.366,23.568 22.366,23.568L23.067,22.609C22.798,24.182 24.374,26.531 25.534,26.798C24.826,28.038 25.621,29.554 27.659,29.971L27.482,30.163C27.482,30.163 25.303,30.815 25.957,32.887C25.087,32.235 21.38,32.123 22.252,35.938L22.578,36.419C22.233,36.953 22.003,37.527 21.919,38.059C19.911,36.668 15.895,36.127 15.276,41.457C15.166,38.802 13.352,36.82 11.423,36.222L11.414,36.219C12.805,36.219 13.81,33.965 12.033,33.115C11.569,31.338 9.407,30.719 8.479,32.264L8.129,32.702C5.331,32.043 3.439,30.397 4.014,29.246C3.109,29.246 2.989,27.718 3.438,27.106C4.342,25.872 5.001,26.776 5.001,26.776C6.153,28.257 8.704,27.764 8.21,26.283C10.926,27.27 12.325,23.567 12.325,23.567C12.666,23.227 12.818,22.909 12.818,22.909C14.464,22.168 14.629,20.687 14.629,18.877C14.629,17.87 13.559,16.984 13.559,16.984C14.711,18.547 17.016,18.547 17.921,16.654C18.497,18.63 19.237,19.041 20.39,19.124C19.732,20.936 21.625,22.581 23.024,22.581L23.071,22.581" style="fill:url(#_Radial7);fill-rule:nonzero;"/>
            <path id="path30231" d="M28.867,14.27C28.042,15.213 27.888,17.427 28.966,19.312C28.788,18.072 25.953,17.364 24.889,18.958C24.889,18.958 24.712,17.186 23.471,17.54C23.471,17.54 24.889,16.83 25.421,15.237C25.556,14.831 25.531,14.323 25.378,13.797L25.411,13.776C26.398,14.023 27.715,12.047 27.715,12.047C27.88,13.199 28.867,14.27 28.867,14.27Z" style="fill:url(#_Radial8);fill-rule:nonzero;"/>
            <path id="path30242" d="M23.071,22.581C23.154,22.141 23.384,21.762 23.81,21.512C23.925,20.707 22.891,18.293 21.511,18.177C22.086,18.177 22.487,16.247 21.682,15.328C20.877,14.408 19.3,14.459 18.408,15.535C18.408,15.535 18.866,11.859 15.649,11.971C13.396,12.048 13.643,14.599 13.643,14.599C11.668,13.694 9.117,15.504 11.997,18.22C9.858,18.384 8.624,20.195 8.624,21.182C11.257,20.936 12.328,22.416 12.328,23.569C12.669,23.229 12.821,22.911 12.821,22.911C14.467,22.17 14.632,20.689 14.632,18.879C14.632,17.872 13.562,16.986 13.562,16.986C14.714,18.549 17.019,18.549 17.924,16.656C18.5,18.632 19.24,19.043 20.393,19.126C19.734,20.937 21.626,22.582 23.026,22.582L23.071,22.582L23.071,22.581Z" style="fill:url(#_Radial9);fill-rule:nonzero;"/>
            <path id="path30249" d="M35.282,36.36C33.391,44.214 25.599,46.072 21.518,46.072C17.877,46.072 10.019,44.216 7.864,36.666C7.864,36.666 8.765,36.302 9.175,36.206C11.646,35.356 15.122,37.751 15.277,41.459C15.895,36.129 19.911,36.67 21.92,38.061C22.253,35.94 24.933,33.118 27.945,34.971C29.411,33.424 33.273,31.803 35.282,36.36Z" style="fill:url(#_Radial10);fill-rule:nonzero;"/>
            <path id="path30251" d="M22.366,23.569C22.366,23.569 21.132,26.285 24.671,27.19C24.671,27.19 22.695,28.259 25.987,30.317C25.987,30.317 23.189,30.728 22.366,32.374C20.968,26.861 14.22,27.272 13.232,30.399C13.232,30.399 11.833,27.355 8.787,29.248C12.655,29.248 17.017,26.038 17.346,22.582C18.662,23.569 19.979,23.652 23.024,22.582L22.366,23.569Z" style="fill-rule:nonzero;"/>
            <path id="path30253" d="M28.838,14.24C29.07,13.971 29.355,13.818 29.675,13.818C29.523,12.833 29.955,11.88 30.665,11.127L30.664,11.129C29.438,10.927 29.366,9.876 29.606,8.592C29.277,9.003 27.713,9.167 27.384,8.263C26.973,9.496 27.384,11.801 25.08,13.117L25.103,13.098C25.215,13.325 25.307,13.558 25.374,13.786L25.41,13.775C26.397,14.022 27.714,12.046 27.714,12.046C27.879,13.197 28.866,14.268 28.866,14.268L28.838,14.24Z" style="fill:rgb(122,127,135);fill-rule:nonzero;"/>
            <path id="path30260" d="M8.13,32.703C5.332,32.044 3.44,30.398 4.015,29.247C3.11,29.247 2.99,27.719 3.439,27.107C4.343,25.873 5.002,26.777 5.002,26.777C6.154,28.258 8.705,27.765 8.211,26.284C10.927,27.271 12.326,24.721 12.326,23.568C12.326,22.415 11.256,20.935 8.622,21.181C8.622,20.194 9.856,18.383 11.995,18.219C9.116,15.503 11.667,13.693 13.641,14.598C13.641,14.598 13.394,12.047 15.647,11.97C18.864,11.859 18.406,15.534 18.406,15.534C19.299,14.458 20.875,14.407 21.68,15.327C22.485,16.246 22.084,18.176 21.509,18.176C22.888,18.292 23.923,20.706 23.808,21.511C24.006,21.488 24.009,21.84 24.009,21.84C24.256,22.58 25.079,23.403 26.808,23.568C28.535,23.733 29.688,23.733 30.593,21.511C32.321,23.979 35.232,23.23 35.695,21.84C36.107,20.605 35.695,19.618 34.955,18.383C34.215,17.149 36.518,16.49 36.024,18.301C35.53,20.112 37.341,20.688 38.164,20.688C38.987,20.688 40.715,20.441 40.715,17.972C40.798,18.63 42.361,20.441 43.76,19.948C43.76,21.346 43.678,24.144 44.584,23.733C44.765,23.669 44.881,23.741 44.881,23.741C45.069,23.37 45.158,22.906 45.094,22.325C47.752,21.262 46.866,18.249 45.094,18.071C46.866,17.894 46.334,14.704 44.562,15.058C44.916,13.287 41.195,10.627 39.245,12.932C38.536,11.161 36.409,9.741 34.282,9.565C32.156,9.387 29.32,11.513 29.675,13.818C28.257,13.818 27.548,16.83 28.966,19.311C28.788,18.071 25.953,17.363 24.889,18.957C24.889,18.957 24.712,17.185 23.471,17.539C23.471,17.539 24.889,16.829 25.421,15.236C25.953,13.641 24.004,10.45 21.522,10.802C20.813,9.03 17.977,7.259 15.496,7.259C13.015,7.259 10.533,9.385 10.711,11.69C8.052,11.69 7.166,16.829 10.533,17.893C9.825,17.893 8.407,18.779 8.584,19.843C6.457,19.489 4.33,21.438 4.33,23.919C3.267,23.565 -0.632,26.932 3.089,29.236C1.848,30.122 2.381,32.603 6.457,33.313C6.624,32.083 8.13,32.703 8.13,32.703Z" style="fill:url(#_Linear11);fill-rule:nonzero;"/>
            <path id="path30267" d="M8.623,21.182C8.623,20.195 9.857,18.384 11.996,18.22C9.117,15.504 11.668,13.694 13.642,14.599C13.642,14.599 13.395,12.048 15.648,11.971C18.865,11.86 18.407,15.535 18.407,15.535C19.3,14.459 20.876,14.408 21.681,15.328C22.486,16.247 22.085,18.177 21.51,18.177L23.47,17.54C23.47,17.54 24.888,16.83 25.42,15.237C25.952,13.642 24.003,10.451 21.521,10.803C20.812,9.031 17.976,7.26 15.495,7.26C13.014,7.26 10.532,9.386 10.71,11.691C8.051,11.691 7.165,16.83 10.532,17.894C9.824,17.894 8.406,18.78 8.583,19.844L8.623,21.182Z" style="fill:url(#_Linear12);fill-rule:nonzero;"/>
            <path id="path30276" d="M31.612,12.043C31.358,12.314 30.962,12.834 30.962,13.423C30.962,13.487 30.967,13.553 30.977,13.617L31.153,14.762C31.153,14.762 30.116,15.025 29.847,15.091C29.69,15.228 29.511,15.743 29.511,16.444C29.511,17.082 29.66,17.872 30.11,18.66L27.663,19.5L27.715,19.645C27.641,19.553 27.239,19.333 26.722,19.355C26.48,19.366 26.157,19.432 25.985,19.689C25.985,19.689 25.522,20.383 25.064,21.07C25.074,21.169 25.134,21.28 25.134,21.374C25.223,21.582 25.349,21.878 25.349,21.878L25.261,21.426C25.367,21.747 25.869,22.158 26.934,22.261C28.439,22.404 28.795,22.438 29.375,21.017L30.287,18.779L31.673,20.759C32.417,21.822 33.312,21.842 33.661,21.802C34.137,21.744 34.413,21.512 34.448,21.425C34.666,20.77 34.52,20.219 33.827,19.066C33.302,18.19 33.396,17.182 34.068,16.499C34.71,15.844 35.722,15.683 36.475,16.114C37.108,16.477 37.655,17.334 37.295,18.651C37.219,18.93 37.278,19.01 37.298,19.036C37.442,19.224 37.889,19.375 38.164,19.375C38.946,19.375 39.398,19.146 39.398,17.976L42.021,17.813L41.994,17.69C42.15,18.078 42.993,18.826 43.321,18.709C43.321,18.709 44.763,18.201 44.965,18.129C44.967,17.448 44.969,16.765 44.969,16.765C44.93,16.774 44.865,16.821 44.849,16.856C44.909,16.736 44.844,16.407 44.745,16.323L43.009,16.593L43.27,14.818C43.27,14.576 42.731,13.828 41.833,13.492C40.821,13.114 40.392,13.622 40.25,13.789L38.838,15.454L38.025,13.421C37.508,12.132 35.817,11.013 34.175,10.878C33.38,10.811 32.302,11.301 31.612,12.043ZM45.078,20.795C45.303,20.607 45.457,20.395 45.457,20.137C45.457,20.094 45.454,20.052 45.447,20.008C45.41,19.746 45.254,19.548 45.08,19.458C45.079,19.648 45.078,20.727 45.078,20.795Z" style="fill:url(#_Radial13);fill-rule:nonzero;"/>
            <path id="path30278" d="M13.561,16.985C14.713,18.548 17.018,18.548 17.923,16.655C18.499,18.631 19.239,19.042 20.392,19.125C19.733,20.936 21.625,22.581 23.025,22.581C19.98,23.651 18.663,23.568 17.347,22.581C17.018,26.037 12.657,29.247 8.788,29.247C11.833,27.354 13.233,30.398 13.233,30.398C14.22,27.271 20.968,26.86 22.367,32.373C23.19,30.727 25.988,30.316 25.988,30.316C22.696,28.258 24.672,27.189 24.672,27.189C21.133,26.284 22.367,23.568 22.367,23.568" style="fill:none;fill-rule:nonzero;stroke:black;stroke-width:0.25px;"/>
            <path id="path30280" d="M20.144,19.289C18.828,20.03 17.182,19.454 16.688,18.549C16.358,20.442 17.675,21.182 18.745,21.182C20.673,21.182 20.144,19.289 20.144,19.289Z" style="fill-rule:nonzero;"/>
            <path id="path30282" d="M14.63,18.878C14.63,20.689 14.465,22.169 12.819,22.91" style="fill:none;fill-rule:nonzero;stroke:rgb(34,38,38);stroke-width:0.5px;"/>
            <path id="path30293" d="M15.707,31.361C16.164,28.734 19.592,29.763 19.935,31.019C21.192,30.676 23.134,32.847 20.163,33.647C19.478,34.675 17.763,35.019 17.078,34.447C17.169,35.18 16.27,35.49 15.624,35.298C15.173,35.162 15.021,34.333 15.021,34.333C13.308,33.648 13.651,30.904 15.707,31.361Z" style="fill:url(#_Radial14);fill-rule:nonzero;"/>
            <g id="circle30295" transform="matrix(1,0,0,1,-0.162326,-166.619)">
                <circle cx="22.677" cy="193.697" r="0.855" style="fill:rgb(58,59,64);"/>
            </g>
            <path id="path30297" d="M36.437,22.309C38.083,23.625 40.388,22.747 40.716,22.417C39.07,24.941 36.987,26.147 35.231,23.405C36.218,23.514 36.437,22.309 36.437,22.309Z" style="fill:rgb(69,72,76);fill-rule:nonzero;"/>
            <path id="path30299" d="M27.99,24.173C27.88,24.942 28.757,25.489 29.525,25.051C30.294,24.613 30.074,23.954 29.745,23.954C29.416,23.954 27.99,24.173 27.99,24.173Z" style="fill:rgb(69,72,76);fill-rule:nonzero;"/>
            <path id="path30301" d="M24.011,21.841C24.011,24.253 26.234,26.696 28.428,26.367C27.659,27.793 28.537,29.221 30.513,29.221" style="fill:none;fill-rule:nonzero;stroke:black;stroke-width:0.25px;"/>
            <path id="path30303" d="M29.417,27.464C30.514,29.221 34.463,28.015 35.121,27.904C34.024,29.22 32.817,30.866 34.793,32.951" style="fill:none;fill-rule:nonzero;stroke:black;stroke-width:0.25px;"/>
            <path id="path30318" d="M40.608,27.246C42.363,26.477 43.898,27.575 44.008,28.672C44.118,29.769 43.241,30.865 42.472,31.085C43.021,31.635 43.392,31.921 42.802,32.512C42.472,32.842 41.198,33.033 40.279,32.951C37.506,32.536 40.717,31.414 40.717,31.414C38.962,31.743 36.877,31.414 36.877,29.88C36.877,28.344 37.426,28.013 38.853,27.685C37.855,25.87 40.818,25.48 40.608,27.246Z" style="fill:url(#_Radial15);fill-rule:nonzero;"/>
            <path id="path30329" d="M28.094,36.415C30.118,35.522 31.89,36.797 32.017,38.069C32.144,39.34 31.132,40.611 30.246,40.866C30.879,41.503 31.307,41.836 30.625,42.52C30.246,42.903 28.777,43.125 27.716,43.031C24.518,42.548 28.221,41.248 28.221,41.248C26.197,41.63 23.792,41.248 23.792,39.468C23.792,37.689 24.424,37.305 26.07,36.923C24.921,34.819 28.338,34.366 28.094,36.415Z" style="fill:url(#_Radial16);fill-rule:nonzero;"/>
            <path id="path30336" d="M17.186,41.041C16.377,39.367 18.103,38.306 19.625,38.462C21.147,38.618 22.531,39.617 22.724,40.322C23.556,39.979 24.002,39.727 24.731,40.366C25.135,40.722 25.217,41.854 24.975,42.622C24.012,44.894 22.926,41.896 22.926,41.896C23.129,43.469 22.384,45.175 20.274,44.825C18.165,44.476 17.787,43.932 17.539,42.64C14.905,43.078 14.787,40.46 17.186,41.041Z" style="fill:url(#_Radial17);fill-rule:nonzero;"/>
            <path id="path30347" d="M21.285,40.2C20.476,38.525 22.203,37.465 23.724,37.621C25.246,37.777 26.63,38.776 26.824,39.481C27.655,39.138 28.101,38.886 28.832,39.525C29.235,39.881 29.317,41.013 29.076,41.781C28.114,44.053 27.028,41.055 27.028,41.055C27.231,42.628 26.485,44.334 24.376,43.984C22.266,43.635 21.889,43.091 21.641,41.799C19.005,42.237 18.887,39.619 21.285,40.2Z" style="fill:url(#_Radial18);fill-rule:nonzero;"/>
            <path id="path30349" d="M35.282,36.36C33.273,31.803 29.411,33.424 27.944,34.97C24.932,33.116 22.252,35.939 21.919,38.06C19.911,36.669 15.895,36.128 15.276,41.458C15.121,37.75 11.646,35.355 9.174,36.205" style="fill:none;fill-rule:nonzero;stroke:black;stroke-width:0.25px;"/>
            <path id="path30360" d="M7.864,36.665C7.864,36.665 5.015,36.159 6.456,33.315C6.623,32.083 8.129,32.703 8.129,32.703L8.479,32.265C9.407,30.72 11.569,31.338 12.033,33.116C13.81,33.966 12.805,36.22 11.414,36.22C10.652,35.985 9.872,35.966 9.174,36.205C8.765,36.301 7.864,36.665 7.864,36.665Z" style="fill:url(#_Radial19);fill-rule:nonzero;"/>
            <path id="path30369" d="M12.752,9.823C12.237,10.379 11.979,11.006 12.023,11.59L12.132,13.009L10.711,13.009C10.179,13.009 9.796,13.689 9.692,14.36C9.681,14.433 9.663,14.579 9.663,14.761C9.663,14.763 9.664,14.766 9.664,14.768C9.731,14.63 9.8,14.47 9.853,14.392C10.428,13.538 11.434,13.076 12.508,13.058C12.894,11.766 13.886,10.713 15.604,10.656C17.192,10.6 18.135,11.257 18.647,11.817C19.114,12.328 19.384,12.93 19.542,13.507C19.747,13.467 19.936,13.367 20.147,13.363C21.13,13.35 22.05,13.75 22.671,14.461C23.058,14.902 23.24,15.455 23.343,16.021C23.637,15.764 23.987,15.374 24.171,14.821C24.186,14.775 24.194,14.714 24.194,14.641C24.194,14.268 23.975,13.59 23.466,12.98C23.214,12.68 22.539,11.989 21.706,12.109L20.682,12.255L20.298,11.294C19.809,10.071 17.496,8.578 15.494,8.578C14.514,8.577 13.463,9.055 12.752,9.823Z" style="fill:url(#_Radial20);fill-rule:nonzero;"/>
            <path id="path30378" d="M6.672,21.679C6.029,22.224 5.646,23.063 5.646,23.921L5.646,25.4C5.646,25.4 5.402,25.368 5.28,25.351C5.381,25.4 5.774,25.632 6.051,26.017C6.051,26.014 6.042,25.969 6.042,25.969C6.273,26.267 6.622,26.357 6.865,26.357C6.72,25.844 6.264,24.228 6.264,24.228L8.66,25.046C9.265,25.266 9.761,25.232 10.177,24.94C10.761,24.532 11.009,23.793 11.009,23.568C11.009,23.485 10.985,23.192 10.686,22.919C10.295,22.565 9.605,22.412 8.745,22.493L7.306,22.627L7.306,21.428C7.093,21.522 6.865,21.517 6.672,21.679Z" style="fill:url(#_Radial21);fill-rule:nonzero;"/>
            <path id="path30385" d="M28.784,3.984C30.669,2.866 33.555,3.734 31.909,5.38C30.263,7.026 31.251,8.508 33.39,8.344C35.53,8.179 37.669,9.66 37.833,11.141C35.364,9.33 32.712,9.469 30.664,11.128C28.946,11.306 29.605,8.593 29.605,8.593C27.793,9.66 27.139,8.513 26.972,7.441C26.805,6.369 26.976,5.055 28.784,3.984Z" style="fill:url(#_Radial22);fill-rule:nonzero;"/>
            <path id="path30396" d="M24.423,5.135C24.752,3.901 26.81,2.173 28.784,3.984C27.879,4.478 28.208,5.547 28.702,5.712C27.385,5.548 26.973,7.111 26.973,7.441C26.81,5.958 24.423,5.135 24.423,5.135Z" style="fill:url(#_Radial23);fill-rule:nonzero;"/>
            <g id="g30398" transform="matrix(1,0,0,1,-0.162326,-166.619)">
                <path id="path30400" d="M21.68,212.69C18.039,212.69 10.181,210.834 8.026,203.284C10.328,211.349 17.824,213.62 21.68,213.62C26.003,213.62 33.421,211.379 35.444,202.978C33.553,210.833 25.761,212.69 21.68,212.69Z" style="fill:rgb(66,75,79);fill-rule:nonzero;"/>
            </g>
            <path id="path30402" d="M22.252,35.939C21.38,32.125 25.087,32.236 25.957,32.888C25.304,30.817 27.482,30.164 27.482,30.164" style="fill:none;fill-rule:nonzero;stroke:black;stroke-width:0.25px;"/>
            <path id="path30404" d="M29.989,33.432C28.464,32.341 29.008,31.036 29.443,30.6C28.68,30.49 26.828,31.797 28.681,33.324C28.959,33.6 29.989,33.432 29.989,33.432Z" style="fill-rule:nonzero;"/>
            <path id="path30406" d="M33.475,28.529C33.352,29.021 32.952,29.409 32.546,29.652L32.497,29.646C33.202,29.671 33.692,30.572 33.692,31.471" style="fill:none;fill-rule:nonzero;stroke:black;stroke-width:0.25px;"/>
        </g>
        <path id="BG1" serif:id="BG" d="M400,2C619.662,2 798,180.338 798,400C798,619.662 619.662,798 400,798C180.338,798 2,619.662 2,400C2,180.338 180.338,2 400,2ZM400,37C600.345,37 763,199.655 763,400C763,600.345 600.345,763 400,763C199.655,763 37,600.345 37,400C37,199.655 199.655,37 400,37Z"/>
    </g>
    <g id="Badge" transform="matrix(0.941581,0,0,0.941581,2,44.7354)">
        <circle cx="145.5" cy="654.5" r="145.5"/>
        <path d="M145.5,509C225.804,509 291,574.196 291,654.5C291,734.804 225.804,800 145.5,800C65.196,800 0,734.804 0,654.5C0,574.196 65.196,509 145.5,509ZM145.5,519.089C220.235,519.089 280.911,579.765 280.911,654.5C280.911,729.235 220.235,789.911 145.5,789.911C70.765,789.911 10.089,729.235 10.089,654.5C10.089,579.765 70.765,519.089 145.5,519.089Z" style="fill:white;"/>
        <g transform="matrix(0.956835,0,0,0.956835,1.76984,19.0057)">
            <path d="M153.1,689.8L177.08,726.98C184.56,738.64 188.74,746.12 192.92,754.04L251.22,754.04C241.98,742.82 235.82,734.9 228.78,725L180.16,656.8L221.52,598.72C229.22,587.72 234.5,580.9 242.42,571L185.88,571C182.36,579.36 178.62,585.96 169.82,599.82L153.32,625.56L136.6,600.04C128.68,587.94 123.84,579.14 120.32,571L63.34,571C71.48,580.68 78.08,589.26 84.9,599.16L126.04,657.02L77.64,725C71.26,733.8 66.86,739.52 54.98,754.04L113.28,754.04C118.78,743.92 123.4,736.22 129.34,726.98L153.1,689.8Z" style="fill:white;fill-rule:nonzero;"/>
        </g>
    </g>
    <defs>
        <radialGradient id="_Radial1" cx="0" cy="0" r="1" gradientUnits="userSpaceOnUse" gradientTransform="matrix(13.8519,0,0,13.8519,29.0018,34.3454)"><stop offset="0" style="stop-color:rgb(69,72,76);stop-opacity:1"/><stop offset="1" style="stop-color:rgb(35,36,38);stop-opacity:1"/></radialGradient>
        <radialGradient id="_Radial2" cx="0" cy="0" r="1" gradientUnits="userSpaceOnUse" gradientTransform="matrix(10.1417,0,0,10.1417,40.7972,19.5333)"><stop offset="0" style="stop-color:rgb(122,127,135);stop-opacity:1"/><stop offset="0.01" style="stop-color:rgb(122,127,135);stop-opacity:1"/><stop offset="0.26" style="stop-color:rgb(114,118,126);stop-opacity:1"/><stop offset="0.67" style="stop-color:rgb(91,95,100);stop-opacity:1"/><stop offset="1" style="stop-color:rgb(69,72,76);stop-opacity:1"/></radialGradient>
        <radialGradient id="_Radial3" cx="0" cy="0" r="1" gradientUnits="userSpaceOnUse" gradientTransform="matrix(7.9375,0,0,7.9375,44.034,28.0919)"><stop offset="0" style="stop-color:rgb(220,224,230);stop-opacity:1"/><stop offset="0.36" style="stop-color:rgb(185,193,204);stop-opacity:1"/><stop offset="1" style="stop-color:rgb(122,127,135);stop-opacity:1"/></radialGradient>
        <radialGradient id="_Radial4" cx="0" cy="0" r="1" gradientUnits="userSpaceOnUse" gradientTransform="matrix(5.8445,0,0,5.8445,40.138,29.2438)"><stop offset="0" style="stop-color:rgb(122,127,135);stop-opacity:1"/><stop offset="0.01" style="stop-color:rgb(122,127,135);stop-opacity:1"/><stop offset="0.26" style="stop-color:rgb(114,118,126);stop-opacity:1"/><stop offset="0.67" style="stop-color:rgb(91,95,100);stop-opacity:1"/><stop offset="1" style="stop-color:rgb(69,72,76);stop-opacity:1"/></radialGradient>
        <radialGradient id="_Radial5" cx="0" cy="0" r="1" gradientUnits="userSpaceOnUse" gradientTransform="matrix(5.3901,0,0,5.3901,26.9715,24.6681)"><stop offset="0" style="stop-color:rgb(122,127,135);stop-opacity:1"/><stop offset="0.01" style="stop-color:rgb(122,127,135);stop-opacity:1"/><stop offset="1" style="stop-color:rgb(69,72,76);stop-opacity:1"/></radialGradient>
        <radialGradient id="_Radial6" cx="0" cy="0" r="1" gradientUnits="userSpaceOnUse" gradientTransform="matrix(12.2702,0,0,12.2702,25.6385,11.3507)"><stop offset="0" style="stop-color:rgb(149,156,166);stop-opacity:1"/><stop offset="0.43" style="stop-color:rgb(161,168,179);stop-opacity:1"/><stop offset="0.59" style="stop-color:rgb(170,177,188);stop-opacity:1"/><stop offset="0.86" style="stop-color:rgb(193,201,214);stop-opacity:1"/><stop offset="1" style="stop-color:rgb(208,217,230);stop-opacity:1"/></radialGradient>
        <radialGradient id="_Radial7" cx="0" cy="0" r="1" gradientUnits="userSpaceOnUse" gradientTransform="matrix(12.4928,0,0,12.4928,14.7938,22.1657)"><stop offset="0" style="stop-color:rgb(69,72,76);stop-opacity:1"/><stop offset="1" style="stop-color:rgb(35,36,38);stop-opacity:1"/></radialGradient>
        <radialGradient id="_Radial8" cx="0" cy="0" r="1" gradientUnits="userSpaceOnUse" gradientTransform="matrix(6.3913,0,0,6.3913,25.6004,19.2047)"><stop offset="0" style="stop-color:rgb(35,36,38);stop-opacity:1"/><stop offset="0.01" style="stop-color:rgb(35,36,38);stop-opacity:1"/><stop offset="0.4" style="stop-color:rgb(37,39,41);stop-opacity:1"/><stop offset="0.66" style="stop-color:rgb(45,47,50);stop-opacity:1"/><stop offset="0.88" style="stop-color:rgb(59,61,65);stop-opacity:1"/><stop offset="1" style="stop-color:rgb(69,72,76);stop-opacity:1"/></radialGradient>
        <radialGradient id="_Radial9" cx="0" cy="0" r="1" gradientUnits="userSpaceOnUse" gradientTransform="matrix(8.4102,0,0,8.4102,16.0472,13.9171)"><stop offset="0" style="stop-color:rgb(122,127,135);stop-opacity:1"/><stop offset="0.01" style="stop-color:rgb(122,127,135);stop-opacity:1"/><stop offset="0.26" style="stop-color:rgb(114,118,126);stop-opacity:1"/><stop offset="0.67" style="stop-color:rgb(91,95,100);stop-opacity:1"/><stop offset="1" style="stop-color:rgb(69,72,76);stop-opacity:1"/></radialGradient>
        <radialGradient id="_Radial10" cx="0" cy="0" r="1" gradientUnits="userSpaceOnUse" gradientTransform="matrix(14.3308,0,0,14.3308,25.5677,34.5778)"><stop offset="0" style="stop-color:rgb(69,72,76);stop-opacity:1"/><stop offset="1" style="stop-color:rgb(35,36,38);stop-opacity:1"/></radialGradient>
        <linearGradient id="_Linear11" x1="0" y1="0" x2="1" y2="0" gradientUnits="userSpaceOnUse" gradientTransform="matrix(4.6083,29.8427,-29.8427,4.6083,20.2273,-1.826)"><stop offset="0" style="stop-color:rgb(185,193,204);stop-opacity:1"/><stop offset="1" style="stop-color:rgb(122,127,135);stop-opacity:1"/></linearGradient>
        <linearGradient id="_Linear12" x1="0" y1="0" x2="1" y2="0" gradientUnits="userSpaceOnUse" gradientTransform="matrix(-7.6826,8.5749,-8.5749,-7.6826,21.6766,8.8908)"><stop offset="0" style="stop-color:rgb(185,193,204);stop-opacity:1"/><stop offset="1" style="stop-color:rgb(122,127,135);stop-opacity:1"/></linearGradient>
        <radialGradient id="_Radial13" cx="0" cy="0" r="1" gradientUnits="userSpaceOnUse" gradientTransform="matrix(20.8572,0,0,20.8572,30.0525,9.8454)"><stop offset="0" style="stop-color:rgb(197,205,217);stop-opacity:1"/><stop offset="0.39" style="stop-color:rgb(185,193,204);stop-opacity:1"/><stop offset="1" style="stop-color:rgb(122,127,135);stop-opacity:1"/></radialGradient>
        <radialGradient id="_Radial14" cx="0" cy="0" r="1" gradientUnits="userSpaceOnUse" gradientTransform="matrix(11.5714,0,0,11.5714,25.6429,24.0983)"><stop offset="0" style="stop-color:rgb(122,127,135);stop-opacity:1"/><stop offset="0.01" style="stop-color:rgb(122,127,135);stop-opacity:1"/><stop offset="0.26" style="stop-color:rgb(114,118,126);stop-opacity:1"/><stop offset="0.67" style="stop-color:rgb(91,95,100);stop-opacity:1"/><stop offset="1" style="stop-color:rgb(69,72,76);stop-opacity:1"/></radialGradient>
        <radialGradient id="_Radial15" cx="0" cy="0" r="1" gradientUnits="userSpaceOnUse" gradientTransform="matrix(5.5526,0,0,5.5526,37.8353,30.88)"><stop offset="0" style="stop-color:rgb(122,127,135);stop-opacity:1"/><stop offset="0.01" style="stop-color:rgb(122,127,135);stop-opacity:1"/><stop offset="0.3" style="stop-color:rgb(125,130,138);stop-opacity:1"/><stop offset="0.52" style="stop-color:rgb(133,139,147);stop-opacity:1"/><stop offset="0.71" style="stop-color:rgb(148,154,164);stop-opacity:1"/><stop offset="0.89" style="stop-color:rgb(169,176,186);stop-opacity:1"/><stop offset="1" style="stop-color:rgb(185,193,204);stop-opacity:1"/></radialGradient>
        <radialGradient id="_Radial16" cx="0" cy="0" r="1" gradientUnits="userSpaceOnUse" gradientTransform="matrix(6.40414,0,0,6.43856,24.8971,40.6288)"><stop offset="0" style="stop-color:rgb(122,127,135);stop-opacity:1"/><stop offset="0.01" style="stop-color:rgb(122,127,135);stop-opacity:1"/><stop offset="0.26" style="stop-color:rgb(114,118,126);stop-opacity:1"/><stop offset="0.67" style="stop-color:rgb(91,95,100);stop-opacity:1"/><stop offset="1" style="stop-color:rgb(69,72,76);stop-opacity:1"/></radialGradient>
        <radialGradient id="_Radial17" cx="0" cy="0" r="1" gradientUnits="userSpaceOnUse" gradientTransform="matrix(3.80352,-22.9528,36.9277,6.12058,19.721,41.5126)"><stop offset="0" style="stop-color:rgb(69,72,76);stop-opacity:1"/><stop offset="1" style="stop-color:rgb(35,36,38);stop-opacity:1"/></radialGradient>
        <radialGradient id="_Radial18" cx="0" cy="0" r="1" gradientUnits="userSpaceOnUse" gradientTransform="matrix(1.75962,-10.6187,17.0839,2.83156,19.7918,46.6338)"><stop offset="0" style="stop-color:rgb(122,127,135);stop-opacity:1"/><stop offset="0.01" style="stop-color:rgb(122,127,135);stop-opacity:1"/><stop offset="0.26" style="stop-color:rgb(114,118,126);stop-opacity:1"/><stop offset="0.67" style="stop-color:rgb(91,95,100);stop-opacity:1"/><stop offset="1" style="stop-color:rgb(69,72,76);stop-opacity:1"/></radialGradient>
        <radialGradient id="_Radial19" cx="0" cy="0" r="1" gradientUnits="userSpaceOnUse" gradientTransform="matrix(11.141,0,0,11.141,13.3104,31.4323)"><stop offset="0" style="stop-color:rgb(122,127,135);stop-opacity:1"/><stop offset="0.01" style="stop-color:rgb(122,127,135);stop-opacity:1"/><stop offset="0.26" style="stop-color:rgb(114,118,126);stop-opacity:1"/><stop offset="0.67" style="stop-color:rgb(91,95,100);stop-opacity:1"/><stop offset="1" style="stop-color:rgb(69,72,76);stop-opacity:1"/></radialGradient>
        <radialGradient id="_Radial20" cx="0" cy="0" r="1" gradientUnits="userSpaceOnUse" gradientTransform="matrix(16.3535,0,0,16.3535,16.8226,10.3175)"><stop offset="0" style="stop-color:rgb(197,205,217);stop-opacity:1"/><stop offset="0.39" style="stop-color:rgb(185,193,204);stop-opacity:1"/><stop offset="1" style="stop-color:rgb(122,127,135);stop-opacity:1"/></radialGradient>
        <radialGradient id="_Radial21" cx="0" cy="0" r="1" gradientUnits="userSpaceOnUse" gradientTransform="matrix(2.4207,0,0,2.4207,9.83177,22.61)"><stop offset="0" style="stop-color:rgb(197,205,217);stop-opacity:1"/><stop offset="0.39" style="stop-color:rgb(185,193,204);stop-opacity:1"/><stop offset="1" style="stop-color:rgb(122,127,135);stop-opacity:1"/></radialGradient>
        <radialGradient id="_Radial22" cx="0" cy="0" r="1" gradientUnits="userSpaceOnUse" gradientTransform="matrix(4.7129,0,0,4.7129,32.3792,7.3102)"><stop offset="0" style="stop-color:rgb(185,193,204);stop-opacity:1"/><stop offset="1" style="stop-color:rgb(122,127,135);stop-opacity:1"/></radialGradient>
        <radialGradient id="_Radial23" cx="0" cy="0" r="1" gradientUnits="userSpaceOnUse" gradientTransform="matrix(2.1501,0,0,2.1501,26.6038,5.32)"><stop offset="0" style="stop-color:rgb(104,108,115);stop-opacity:1"/><stop offset="0.48" style="stop-color:rgb(107,111,118);stop-opacity:1"/><stop offset="0.83" style="stop-color:rgb(115,120,127);stop-opacity:1"/><stop offset="1" style="stop-color:rgb(122,127,135);stop-opacity:1"/></radialGradient>
    </defs>
</svg>
