<?xml version="1.0" encoding="UTF-8" standalone="no"?>
<!DOCTYPE svg PUBLIC "-//W3C//DTD SVG 1.1//EN" "http://www.w3.org/Graphics/SVG/1.1/DTD/svg11.dtd">
<svg width="100%" height="100%" viewBox="0 0 800 800" version="1.1" xmlns="http://www.w3.org/2000/svg" xmlns:xlink="http://www.w3.org/1999/xlink" xml:space="preserve" xmlns:serif="http://www.serif.com/" style="fill-rule:evenodd;clip-rule:evenodd;stroke-linejoin:round;">
    <g id="LavaEmitter">
        <g id="BG">
            <circle cx="400" cy="400" r="398" style="fill:rgb(137,46,46);"/>
            <path d="M400,2C619.662,2 798,180.338 798,400C798,619.662 619.662,798 400,798C180.338,798 2,619.662 2,400C2,180.338 180.338,2 400,2ZM400,37C600.345,37 763,199.655 763,400C763,600.345 600.345,763 400,763C199.655,763 37,600.345 37,400C37,199.655 199.655,37 400,37Z"/>
        </g>
        <g id="Layer-1" serif:id="Layer 1" transform="matrix(19.7273,0,0,19.7273,-71.0453,-66.349)">
            <path id="path13516" d="M6.286,17.286C15.984,8.352 27,20.52 42,17.714L36.503,23.909L8.968,23.939L6.286,17.286Z" style="fill:url(#_Radial1);fill-rule:nonzero;stroke:rgb(164,0,0);stroke-width:0.5px;"/>
            <path id="circle13001" d="M41.849,17.595C42.495,18.756 42.786,22.155 42.786,24.071C42.786,34.486 34.343,42.929 23.929,42.929C13.514,42.929 5.071,34.486 5.071,24.071C5.071,21.744 5.493,19.515 6.264,17.456C19.384,24.373 31.229,24.232 41.849,17.595Z" style="fill:url(#_Radial2);fill-rule:nonzero;stroke:rgb(164,0,0);stroke-width:0.5px;stroke-linejoin:miter;"/>
            <g id="g9817" transform="matrix(1,0,0,1,53.4286,8.14286)">
                <path id="path4183" d="M-37.128,17.715C-38.976,17.986 -38.792,14.648 -36.904,15.706C-35.006,15.883 -33.572,14.205 -32.568,12.813C-31.651,11.504 -30.78,9.308 -28.802,9.709C-27.781,9.731 -27.761,11.401 -28.878,10.717C-30.452,11.13 -31.62,12.608 -32.468,13.927C-32.433,14.613 -34.061,15.864 -33.358,14.604C-32.477,13.295 -34.503,15.378 -34.865,15.643C-35.604,16.35 -36.314,17.092 -37.128,17.715L-37.128,17.715Z" style="fill:rgb(252,251,147);fill-rule:nonzero;"/>
                <path id="path4169" d="M-30.475,11.444C-30.483,11.445 -30.483,11.445 -30.475,11.444Z" style="fill:rgb(252,251,147);fill-rule:nonzero;"/>
                <path id="path4107" d="M-30.826,12.258C-30.473,11.853 -30.281,12.034 -30.826,12.258Z" style="fill:rgb(252,251,147);fill-rule:nonzero;"/>
                <path id="path4559" d="M-35.625,20.197C-36.562,19.533 -39.564,19.807 -38.762,18.135C-37.783,17.459 -41.192,16.438 -39.206,15.647C-38.507,13.488 -35.566,16.6 -34.879,14.644C-34.727,13.309 -32.571,12.867 -31.862,11.591C-30.662,10.338 -32.442,12.574 -32.822,13.059C-33.704,14.137 -34.741,15.137 -36.027,15.715C-37.611,13.897 -39.77,18.231 -37.046,17.454C-35.388,16.629 -34.404,14.975 -32.985,13.848C-33.042,13.802 -33.386,15.46 -32.787,14.199C-31.579,12.421 -29.838,10.692 -27.648,10.307C-26.085,9.993 -26.278,12.747 -24.61,11.492C-22.96,12.23 -25.178,13.495 -25.614,14.157C-26.688,13.691 -29.482,12.779 -30.638,14.574C-31.759,15.548 -31.591,17.771 -30.033,18.199C-32.24,18.773 -30.884,15.519 -32.202,14.926C-33.202,14.806 -34.605,17.041 -34.382,17.011C-33.853,16.756 -32.165,14.926 -33.224,16.345C-33.923,17.662 -33.939,19.682 -35.625,20.197Z" style="fill:rgb(251,239,87);fill-rule:nonzero;"/>
                <path id="path4443" d="M-30.684,12.173C-30.33,12.122 -30.31,11.597 -30.684,12.173Z" style="fill:rgb(251,239,87);fill-rule:nonzero;"/>
                <path id="path4401" d="M-30.053,18.762C-30.041,18.763 -30.041,18.763 -30.053,18.762Z" style="fill:rgb(251,239,87);fill-rule:nonzero;"/>
                <path id="path4399" d="M-29.838,18.706C-29.816,18.704 -29.816,18.704 -29.838,18.706Z" style="fill:rgb(251,239,87);fill-rule:nonzero;"/>
                <path id="path4397" d="M-29.635,18.639C-29.771,18.456 -29.451,18.673 -29.635,18.639Z" style="fill:rgb(251,239,87);fill-rule:nonzero;"/>
                <path id="path4389" d="M-28.936,17.799C-28.924,17.8 -28.924,17.8 -28.936,17.799Z" style="fill:rgb(251,239,87);fill-rule:nonzero;"/>
                <path id="path4357" d="M-17.682,16.209C-18.21,16.091 -17.595,15.789 -17.682,16.209Z" style="fill:rgb(251,239,87);fill-rule:nonzero;"/>
                <path id="path4349" d="M-30.196,15.94C-30.474,15.692 -29.885,15.883 -30.196,15.94Z" style="fill:rgb(251,239,87);fill-rule:nonzero;"/>
                <path id="path4343" d="M-30.212,15.599C-30.425,14.72 -28.138,14.353 -29.655,15.084C-29.861,15.232 -30.053,15.401 -30.212,15.599Z" style="fill:rgb(251,239,87);fill-rule:nonzero;"/>
                <path id="path4325" d="M-29.037,14.777C-28.882,14.377 -28.904,15.19 -29.037,14.777Z" style="fill:rgb(251,239,87);fill-rule:nonzero;"/>
                <path id="path4317" d="M-28.337,14.654C-28.996,14.28 -27.94,14.547 -28.337,14.654Z" style="fill:rgb(251,239,87);fill-rule:nonzero;"/>
                <path id="path4309" d="M-27.477,14.354C-27.397,13.946 -27.295,14.676 -27.477,14.354Z" style="fill:rgb(251,239,87);fill-rule:nonzero;"/>
                <path id="path4307" d="M-27.184,14.311C-27.158,14.311 -27.158,14.311 -27.184,14.311Z" style="fill:rgb(251,239,87);fill-rule:nonzero;"/>
                <path id="path4305" d="M-26.601,14.286C-26.499,14.04 -26.499,14.531 -26.601,14.286Z" style="fill:rgb(251,239,87);fill-rule:nonzero;"/>
                <path id="path4303" d="M-27.386,13.849C-27.367,13.849 -27.367,13.849 -27.386,13.849Z" style="fill:rgb(251,239,87);fill-rule:nonzero;"/>
                <path id="path4301" d="M-24.973,13.767C-24.855,13.457 -24.816,14.137 -24.973,13.767Z" style="fill:rgb(251,239,87);fill-rule:nonzero;"/>
                <path id="path4295" d="M-25.174,13.747C-24.95,13.582 -25.22,14.069 -25.174,13.747Z" style="fill:rgb(251,239,87);fill-rule:nonzero;"/>
                <path id="path4251" d="M-30.501,11.455C-30.494,11.447 -30.494,11.447 -30.501,11.455Z" style="fill:rgb(251,239,87);fill-rule:nonzero;"/>
                <path id="path5435" d="M-28.498,27.725C-28.794,27.677 -28.303,27.59 -28.498,27.725Z" style="fill:rgb(251,213,54);fill-rule:nonzero;"/>
                <path id="path5433" d="M-31.176,27.025C-31.22,26.49 -30.78,27.17 -31.176,27.025Z" style="fill:rgb(251,213,54);fill-rule:nonzero;"/>
                <path id="path5429" d="M-31.831,26.806C-31.726,26.269 -31.193,26.926 -31.831,26.806Z" style="fill:rgb(251,213,54);fill-rule:nonzero;"/>
                <path id="path5421" d="M-34.834,25.011C-34.449,24.837 -34.843,25.474 -34.834,25.011Z" style="fill:rgb(251,213,54);fill-rule:nonzero;"/>
                <path id="path5419" d="M-35.996,24.802C-36.361,24.945 -36.326,24.259 -35.996,24.802Z" style="fill:rgb(251,213,54);fill-rule:nonzero;"/>
                <path id="path5415" d="M-33.843,24.62C-34.218,24.313 -33.257,24.824 -33.574,24.73L-33.843,24.62Z" style="fill:rgb(251,213,54);fill-rule:nonzero;"/>
                <path id="path5411" d="M-36.116,24.398C-37.906,23.557 -40.042,23.406 -41.897,24.127C-41.662,22.174 -38.13,24.167 -38.276,23.03C-39.222,22.931 -39.766,21.779 -38.389,22.249C-36.538,22.419 -36.765,19.692 -38.614,20.105C-39.783,20.258 -41.819,20.017 -40.861,18.375C-40.369,17.702 -39.841,16.739 -41.148,16.986C-41.876,16.099 -39.542,15.079 -40.702,13.97C-39.907,12.745 -37.993,15.897 -36.74,14.405C-36.3,13.26 -39.393,13.928 -38.692,13.232C-36.683,13.981 -35.368,11.132 -36.33,10.168C-35.207,10.273 -34.057,13.066 -33.13,11.162C-33.141,9.74 -30.704,9.517 -31.434,11.143C-32.48,12.263 -33.721,13.225 -34.884,14.212C-35.476,14.488 -36.154,15.011 -35.05,14.616C-35.936,16.272 -38.184,14.875 -39.553,15.668C-40.46,16.564 -37.7,17.705 -39.198,18.249C-38.714,19.015 -39.931,18.773 -38.957,19.13C-37.493,20.157 -34.707,20.836 -34.021,18.566C-33.566,17.454 -33.471,16.109 -32.511,15.273C-32.855,15.923 -34.558,17.11 -33.498,15.691C-33.036,14.458 -30.63,14.681 -31.857,16.175C-32.24,17.342 -30.337,18.651 -30.019,18.083C-31.832,17.647 -31.432,15.163 -30.37,14.145C-29.136,12.414 -26.389,14.125 -25.556,14.142C-25.217,13.189 -22.766,12.46 -24.814,11.484C-25.726,11.624 -27.44,11.484 -26.317,10.199C-24.812,8.936 -22.584,9.988 -21.064,10.728C-19.232,12.008 -23.056,9.606 -22.667,10.324C-21.225,10.627 -21.841,12.376 -22.72,12.822C-23.316,14.36 -24.867,16.302 -26.686,15.484C-27.976,15.168 -30.462,15.938 -30.211,17.424C-28.669,17.646 -26.703,17.694 -26.169,19.542C-26.021,19.953 -25.265,21.486 -25.735,20.129C-26.482,18.301 -28.772,17.947 -30.408,18.717C-31.343,18.761 -32.536,20.156 -30.877,20.137C-29.763,19.834 -29.576,20.686 -30.611,21.021C-31.919,22.326 -32.828,24.511 -35.118,23.889C-35.497,23.922 -35.895,24.068 -36.116,24.398L-36.116,24.398Z" style="fill:rgb(251,213,54);fill-rule:nonzero;"/>
                <path id="path5315" d="M-30.016,18.761C-30.028,18.762 -30.028,18.762 -30.016,18.761Z" style="fill:rgb(251,213,54);fill-rule:nonzero;"/>
                <path id="path5313" d="M-29.801,18.715C-30.16,18.611 -29.866,19.327 -29.801,18.715Z" style="fill:rgb(251,213,54);fill-rule:nonzero;"/>
                <path id="path5311" d="M-29.577,18.639C-29.759,18.604 -29.441,18.823 -29.577,18.639Z" style="fill:rgb(251,213,54);fill-rule:nonzero;"/>
                <path id="path5305" d="M-28.899,17.798C-28.911,17.799 -28.911,17.799 -28.899,17.798Z" style="fill:rgb(251,213,54);fill-rule:nonzero;"/>
                <path id="path5303" d="M-28.803,17.701C-28.814,17.703 -28.814,17.703 -28.803,17.701Z" style="fill:rgb(251,213,54);fill-rule:nonzero;"/>
                <path id="path5281" d="M-30.491,16.752C-30.13,16.597 -30.74,16.365 -30.491,16.752Z" style="fill:rgb(251,213,54);fill-rule:nonzero;"/>
                <path id="path5277" d="M-30.29,16.627C-30.383,16.499 -30.288,16.793 -30.29,16.627Z" style="fill:rgb(251,213,54);fill-rule:nonzero;"/>
                <path id="path5275" d="M-31.199,16.253C-30.535,15.866 -28.862,14.375 -29.861,14.029C-30.42,14.696 -30.791,15.491 -31.199,16.253Z" style="fill:rgb(251,213,54);fill-rule:nonzero;"/>
                <path id="path5273" d="M-30.145,14.632C-30.131,14.632 -30.131,14.632 -30.145,14.632Z" style="fill:rgb(251,213,54);fill-rule:nonzero;"/>
                <path id="path5271" d="M-30.588,16.543C-30.598,16.549 -30.598,16.549 -30.588,16.543Z" style="fill:rgb(251,213,54);fill-rule:nonzero;"/>
                <path id="path5267" d="M-29.832,16.182C-29.848,16.203 -29.848,16.203 -29.832,16.182Z" style="fill:rgb(251,213,54);fill-rule:nonzero;"/>
                <path id="path5263" d="M-29.588,16.048C-29.149,16.275 -29.569,15.555 -29.588,16.048Z" style="fill:rgb(251,213,54);fill-rule:nonzero;"/>
                <path id="path5261" d="M-29.735,15.883C-28.509,16.277 -29.521,14.61 -29.735,15.883Z" style="fill:rgb(251,213,54);fill-rule:nonzero;"/>
                <path id="path5259" d="M-30.143,15.94C-30.485,15.977 -29.721,16.434 -30.143,15.94Z" style="fill:rgb(251,213,54);fill-rule:nonzero;"/>
                <path id="path5255" d="M-29.115,15.653C-29.161,15.51 -29.161,15.796 -29.115,15.653Z" style="fill:rgb(251,213,54);fill-rule:nonzero;"/>
                <path id="path5253" d="M-30.092,15.567C-29.887,14.968 -28.704,14.295 -29.769,15.113L-29.94,15.333L-30.092,15.567Z" style="fill:rgb(251,213,54);fill-rule:nonzero;"/>
                <path id="path5249" d="M-30.143,15.453C-30.139,15.136 -30.581,16.277 -30.143,15.453Z" style="fill:rgb(251,213,54);fill-rule:nonzero;"/>
                <path id="path5247" d="M-29.018,15.519C-29.032,15.519 -29.032,15.519 -29.018,15.519Z" style="fill:rgb(251,213,54);fill-rule:nonzero;"/>
                <path id="path5219" d="M-28.853,14.707C-29.176,14.471 -28.767,15.086 -28.853,14.707Z" style="fill:rgb(251,213,54);fill-rule:nonzero;"/>
                <path id="path5211" d="M-28.271,14.655C-27.63,14.521 -28.489,14.493 -28.271,14.655Z" style="fill:rgb(251,213,54);fill-rule:nonzero;"/>
                <path id="path5205" d="M-27.928,14.553C-28.084,14.609 -28.006,14.582 -27.928,14.553Z" style="fill:rgb(251,213,54);fill-rule:nonzero;"/>
                <path id="path5197" d="M-27.373,14.361C-26.812,14.795 -27.252,14.08 -27.373,14.361Z" style="fill:rgb(251,213,54);fill-rule:nonzero;"/>
                <path id="path5195" d="M-27.107,14.311C-27.132,14.311 -27.132,14.311 -27.107,14.311Z" style="fill:rgb(251,213,54);fill-rule:nonzero;"/>
                <path id="path5193" d="M-26.447,14.286C-26.548,14.04 -26.548,14.531 -26.447,14.286Z" style="fill:rgb(251,213,54);fill-rule:nonzero;"/>
                <path id="path5191" d="M-25.898,14.252C-26.518,13.819 -26.941,14.42 -25.898,14.252Z" style="fill:rgb(251,213,54);fill-rule:nonzero;"/>
                <path id="path5189" d="M-26.88,14.082C-26.893,14.086 -26.893,14.086 -26.88,14.082Z" style="fill:rgb(251,213,54);fill-rule:nonzero;"/>
                <path id="path5187" d="M-29.25,13.921C-29.451,13.877 -29.122,14.169 -29.25,13.921Z" style="fill:rgb(251,213,54);fill-rule:nonzero;"/>
                <path id="path5175" d="M-27.328,13.849C-27.347,13.849 -27.347,13.849 -27.328,13.849Z" style="fill:rgb(251,213,54);fill-rule:nonzero;"/>
                <path id="path5173" d="M-24.848,13.781C-25.178,13.602 -25.064,14.476 -24.848,13.781Z" style="fill:rgb(251,213,54);fill-rule:nonzero;"/>
                <path id="path5161" d="M-29.124,13.612C-29.6,13.641 -28.955,14.25 -29.124,13.612Z" style="fill:rgb(251,213,54);fill-rule:nonzero;"/>
                <path id="path5005" d="M-42.029,22.512C-41.985,22.177 -41.809,22.785 -42.029,22.512Z" style="fill:rgb(251,213,54);fill-rule:nonzero;"/>
                <path id="path4981" d="M-30.508,20.901C-30.499,20.894 -30.499,20.894 -30.508,20.901Z" style="fill:rgb(251,213,54);fill-rule:nonzero;"/>
                <path id="path4977" d="M-22.373,20.682C-23.938,19.965 -23.826,16.782 -21.774,17.077C-20.734,16.629 -18.296,14.547 -17.732,16.682C-18.363,18.251 -20.18,18.602 -21.541,18.698C-22.055,19.235 -22.154,20.003 -22.373,20.682Z" style="fill:rgb(251,213,54);fill-rule:nonzero;"/>
                <path id="path4929" d="M-17.616,16.121C-17.93,16.429 -16.925,16.181 -17.616,16.121Z" style="fill:rgb(251,213,54);fill-rule:nonzero;"/>
                <path id="path4907" d="M-28.49,19.849C-28.541,19.319 -27.867,19.739 -28.49,19.849Z" style="fill:rgb(251,213,54);fill-rule:nonzero;"/>
                <path id="path4885" d="M-28.005,19.101C-28.513,18.995 -27.712,18.723 -28.005,19.101Z" style="fill:rgb(251,213,54);fill-rule:nonzero;"/>
                <path id="path4877" d="M-27.901,18.924C-28.121,18.809 -27.7,18.865 -27.901,18.924Z" style="fill:rgb(251,213,54);fill-rule:nonzero;"/>
                <path id="path4855" d="M-29.519,17.523C-29.506,17.519 -29.506,17.519 -29.519,17.523Z" style="fill:rgb(251,213,54);fill-rule:nonzero;"/>
                <path id="path4823" d="M-18.044,16.585C-18.164,16.457 -17.892,16.62 -18.044,16.585Z" style="fill:rgb(251,213,54);fill-rule:nonzero;"/>
                <path id="path4807" d="M-18.839,15.28C-19.394,15.094 -18.691,14.905 -18.839,15.28Z" style="fill:rgb(251,213,54);fill-rule:nonzero;"/>
                <path id="path4733" d="M-25.939,13.14C-26.453,13.377 -26.69,12.74 -25.939,13.14Z" style="fill:rgb(251,213,54);fill-rule:nonzero;"/>
                <path id="path4715" d="M-21.763,12.441C-22.498,12.329 -21.359,11.823 -21.763,12.441Z" style="fill:rgb(251,213,54);fill-rule:nonzero;"/>
                <path id="path4693" d="M-18.414,12.022C-18.084,11.979 -17.962,11.964 -18.414,12.022Z" style="fill:rgb(251,213,54);fill-rule:nonzero;"/>
                <path id="path4691" d="M-18.838,11.999C-18.325,11.895 -18.844,12.552 -18.838,11.999Z" style="fill:rgb(251,213,54);fill-rule:nonzero;"/>
                <path id="path4681" d="M-27.309,11.283C-27.866,10.4 -26.239,11.104 -27.309,11.283Z" style="fill:rgb(251,213,54);fill-rule:nonzero;"/>
                <path id="path6813" d="M-37.38,31.999C-38.331,30.957 -33.79,30.89 -35.837,31.855C-36.342,31.991 -36.873,31.883 -37.38,31.999Z" style="fill:rgb(232,96,33);fill-rule:nonzero;"/>
                <path id="path6809" d="M-37.193,30.978C-39.674,31.495 -38.428,27.17 -36.494,28.737C-34.444,28.561 -33.087,26.739 -31.166,26.205C-30.263,26.56 -28.639,27.973 -28.704,28.414C-30.08,28.939 -33.635,27.303 -33.03,29.968C-33.362,30.12 -34.26,27.821 -34.704,29.197C-34.7,29.773 -36.611,30.472 -37.193,30.978Z" style="fill:rgb(232,96,33);fill-rule:nonzero;"/>
                <path id="path6787" d="M-28.669,27.858C-27.924,27.482 -28.648,28.027 -28.669,27.858Z" style="fill:rgb(232,96,33);fill-rule:nonzero;"/>
                <path id="path6779" d="M-30.684,27.095C-30.698,27.096 -30.698,27.096 -30.684,27.095Z" style="fill:rgb(232,96,33);fill-rule:nonzero;"/>
                <path id="path6775" d="M-31.026,27.005C-31.491,26.975 -30.818,27.744 -31.026,27.005Z" style="fill:rgb(232,96,33);fill-rule:nonzero;"/>
                <path id="path6769" d="M-31.696,26.758C-31.283,26.755 -31.817,26.269 -31.696,26.758Z" style="fill:rgb(232,96,33);fill-rule:nonzero;"/>
                <path id="path6765" d="M-30.987,26.623C-30.993,26.633 -30.993,26.633 -30.987,26.623Z" style="fill:rgb(232,96,33);fill-rule:nonzero;"/>
                <path id="path6763" d="M-30.925,26.413C-30.786,26.249 -31.056,26.433 -30.925,26.413Z" style="fill:rgb(232,96,33);fill-rule:nonzero;"/>
                <path id="path6757" d="M-43.858,24.118C-43.854,22.277 -41.329,22.611 -40.633,21.287C-40.609,19.414 -43.267,21.756 -43.399,21.655C-41.924,20.831 -40.816,18.734 -42.024,17.246C-42.396,15.656 -44.294,14.071 -45.871,15.253C-46.063,14.057 -43.771,12.161 -46.14,11.913C-45.125,11.249 -43.914,12.03 -42.798,12.284C-41.775,12.459 -41.429,11.924 -40.598,12.634C-38.398,13.327 -38.022,9.518 -40.329,9.995C-40.93,10.479 -43.42,9.787 -41.836,9.579C-40.274,9.8 -38.716,10.071 -37.156,10.317C-35.001,10.476 -35.585,13.65 -37.612,13.349C-38.342,13.373 -39.607,13.489 -38.123,13.592C-37.1,13.355 -35.918,14.744 -37.529,14.784C-38.561,14.632 -40.681,12.693 -40.449,14.825C-40.879,15.585 -42.434,17.144 -40.685,17.041C-40.767,18.262 -41.647,20.606 -39.397,19.919C-38.279,19.631 -35.933,21.41 -37.709,21.991C-38.472,21.901 -40.424,22.223 -38.666,22.682C-37.483,23.22 -38.168,23.719 -39.078,23.235C-39.732,23.006 -41.78,23.351 -41.397,23.844C-39.529,23.301 -37.626,24.154 -35.739,23.906C-33.738,24.618 -32.114,22.872 -31.028,21.513C-30.262,21.21 -29.159,19.57 -30.806,20.252C-32.513,20.143 -31.476,18.649 -30.316,18.616C-28.685,18.019 -26.437,18.44 -25.702,20.179C-26.051,18.528 -27.771,17.506 -29.389,17.663C-31.545,17.105 -28.715,15.105 -27.529,15.544C-25.888,15.97 -24.446,14.982 -23.198,14.451C-24.196,12.899 -19.842,11.648 -22.211,10.672C-23.804,10.154 -21.909,9.766 -21.411,10.625C-20.793,11.143 -20.041,11.391 -21.035,10.564C-21.541,9.998 -19.845,11.664 -19.233,11.449C-17.966,11.83 -16.421,10.771 -15.57,10.671C-16.263,12.064 -18.584,11.194 -19.414,12.592C-20.677,14.304 -17.986,15.653 -16.912,14.112C-16.458,13.854 -15.485,12.578 -16.223,13.688C-15.443,13.62 -16.436,15.284 -16.437,16.022C-16.599,17.39 -17.807,18.135 -18.601,19.015C-18.668,19.777 -17.993,21.176 -19.342,20.403C-21.208,20.607 -19.265,22.907 -21.097,23.129C-22.403,23.752 -23.073,22.54 -22.9,21.51C-23.498,21.104 -24.508,18.783 -24.274,20.436C-24.187,21.998 -25.36,23.729 -24.488,25.155C-23.876,25.569 -22.475,27.405 -23.913,26.212C-25.482,24.778 -26.013,22.446 -25.553,20.413C-26.038,18.461 -28.126,20.052 -28.586,21.143C-29.623,22.409 -30.322,24.592 -32.316,24.437C-32.97,24.114 -35.173,24.687 -33.973,25.112C-35.566,25.933 -36.962,24.5 -38.616,24.656C-40.268,24.132 -41.654,25.898 -43.162,25.431C-43.002,24.664 -44.187,24.839 -43.858,24.118Z" style="fill:rgb(232,96,33);fill-rule:nonzero;"/>
                <path id="path6755" d="M-44.417,26.498C-43.748,24.818 -42.5,23.051 -40.574,22.792C-42.76,22.265 -44.075,24.725 -44.417,26.498Z" style="fill:rgb(232,96,33);fill-rule:nonzero;"/>
                <path id="path6751" d="M-43.099,24.148C-43.04,23.979 -43.04,24.318 -43.099,24.148Z" style="fill:rgb(232,96,33);fill-rule:nonzero;"/>
                <path id="path6739" d="M-35.394,25.111C-35.569,24.963 -35.358,25.364 -35.394,25.111Z" style="fill:rgb(232,96,33);fill-rule:nonzero;"/>
                <path id="path6737" d="M-35.587,25.074C-35.646,25.066 -35.646,25.066 -35.587,25.074Z" style="fill:rgb(232,96,33);fill-rule:nonzero;"/>
                <path id="path6733" d="M-34.61,25.002C-34.762,24.549 -34.841,25.322 -34.61,25.002Z" style="fill:rgb(232,96,33);fill-rule:nonzero;"/>
                <path id="path6731" d="M-35.866,24.823C-36.169,24.421 -36.424,24.96 -35.866,24.823Z" style="fill:rgb(232,96,33);fill-rule:nonzero;"/>
                <path id="path6711" d="M-42.498,24.099C-42.026,24.418 -42.179,23.489 -42.498,24.099Z" style="fill:rgb(232,96,33);fill-rule:nonzero;"/>
                <path id="path6699" d="M-43.195,23.377C-42.826,23.699 -43.013,23.062 -43.195,23.377Z" style="fill:rgb(232,96,33);fill-rule:nonzero;"/>
                <path id="path6669" d="M-41.905,22.482C-42.271,22.342 -42.081,23.159 -41.905,22.482Z" style="fill:rgb(232,96,33);fill-rule:nonzero;"/>
                <path id="path6647" d="M-40.985,21.903C-40.397,21.619 -41.943,22.125 -40.985,21.903Z" style="fill:rgb(232,96,33);fill-rule:nonzero;"/>
                <path id="path6621" d="M-30.463,20.891C-30.508,20.747 -30.503,21.014 -30.463,20.891Z" style="fill:rgb(232,96,33);fill-rule:nonzero;"/>
                <path id="path6611" d="M-22.193,20.714C-22.871,18.928 -20.666,18.38 -19.564,18.432C-18.407,18.043 -16.438,16.101 -18.631,15.703C-20.217,15.411 -20.809,17.36 -22.33,17.131C-24.33,17.978 -23.335,19.672 -22.193,20.714Z" style="fill:rgb(232,96,33);fill-rule:nonzero;"/>
                <path id="path6541" d="M-28.281,19.638C-27.775,19.466 -28.167,19.318 -28.354,19.605L-28.281,19.638Z" style="fill:rgb(232,96,33);fill-rule:nonzero;"/>
                <path id="path6531" d="M-30.496,19.686C-29.49,20.235 -28.806,17.743 -30.067,19.041C-30.269,19.207 -30.441,19.426 -30.496,19.686Z" style="fill:rgb(232,96,33);fill-rule:nonzero;"/>
                <path id="path6529" d="M-28.402,18.399C-28.389,18.396 -28.389,18.396 -28.402,18.399Z" style="fill:rgb(232,96,33);fill-rule:nonzero;"/>
                <path id="path6521" d="M-27.728,19.602C-27.739,19.602 -27.739,19.602 -27.728,19.602Z" style="fill:rgb(232,96,33);fill-rule:nonzero;"/>
                <path id="path6509" d="M-29.018,19.332C-29.389,19.304 -28.783,19.631 -29.018,19.332Z" style="fill:rgb(232,96,33);fill-rule:nonzero;"/>
                <path id="path6507" d="M-27.363,19.209C-27.361,19.264 -27.361,19.264 -27.363,19.209Z" style="fill:rgb(232,96,33);fill-rule:nonzero;"/>
                <path id="path6505" d="M-27.693,19.278C-27.895,19.342 -27.415,19.45 -27.693,19.278Z" style="fill:rgb(232,96,33);fill-rule:nonzero;"/>
                <path id="path6499" d="M-28.22,19.136C-26.984,18.776 -28.991,18.334 -28.22,19.136Z" style="fill:rgb(232,96,33);fill-rule:nonzero;"/>
                <path id="path6497" d="M-27.978,19.124C-27.465,19.019 -28.282,18.764 -27.978,19.124Z" style="fill:rgb(232,96,33);fill-rule:nonzero;"/>
                <path id="path6493" d="M-30.491,19.11C-30.78,19.068 -30.302,19.391 -30.491,19.11Z" style="fill:rgb(232,96,33);fill-rule:nonzero;"/>
                <path id="path6489" d="M-30.317,19.074C-30.58,19.043 -30.139,19.393 -30.317,19.074Z" style="fill:rgb(232,96,33);fill-rule:nonzero;"/>
                <path id="path6485" d="M-30.19,18.992C-30.201,18.993 -30.201,18.993 -30.19,18.992Z" style="fill:rgb(232,96,33);fill-rule:nonzero;"/>
                <path id="path6483" d="M-27.848,18.878C-27.864,18.9 -27.864,18.9 -27.848,18.878Z" style="fill:rgb(232,96,33);fill-rule:nonzero;"/>
                <path id="path6481" d="M-27.374,18.799C-26.795,17.797 -28.518,18.812 -27.374,18.799Z" style="fill:rgb(232,96,33);fill-rule:nonzero;"/>
                <path id="path6465" d="M-29.48,17.511C-29.493,17.515 -29.493,17.515 -29.48,17.511Z" style="fill:rgb(232,96,33);fill-rule:nonzero;"/>
                <path id="path6429" d="M-21.388,15.899C-19.108,16.499 -20.796,11.818 -21.711,14.357C-21.815,14.897 -21.508,15.391 -21.388,15.899Z" style="fill:rgb(232,96,33);fill-rule:nonzero;"/>
                <path id="path6425" d="M-20.967,15.114C-20.952,15.116 -20.952,15.116 -20.967,15.114Z" style="fill:rgb(232,96,33);fill-rule:nonzero;"/>
                <path id="path6423" d="M-21.699,14.154C-21.682,14.143 -21.682,14.143 -21.699,14.154Z" style="fill:rgb(232,96,33);fill-rule:nonzero;"/>
                <path id="path6421" d="M-20.513,14.145C-20.713,14.229 -20.474,13.977 -20.513,14.145Z" style="fill:rgb(232,96,33);fill-rule:nonzero;"/>
                <path id="path6419" d="M-21.275,13.652C-21.264,13.645 -21.264,13.645 -21.275,13.652Z" style="fill:rgb(232,96,33);fill-rule:nonzero;"/>
                <path id="path6351" d="M-19.827,14.532C-19.825,14.541 -19.825,14.541 -19.827,14.532Z" style="fill:rgb(232,96,33);fill-rule:nonzero;"/>
                <path id="path6199" d="M-21.727,12.36C-21.308,11.681 -22.504,12.355 -21.727,12.36Z" style="fill:rgb(232,96,33);fill-rule:nonzero;"/>
                <path id="path6163" d="M-18.057,12.001C-18.208,11.853 -18.651,12.499 -18.057,12.001Z" style="fill:rgb(232,96,33);fill-rule:nonzero;"/>
                <path id="path6161" d="M-18.674,11.995C-18.702,11.576 -18.951,12.195 -18.674,11.995Z" style="fill:rgb(232,96,33);fill-rule:nonzero;"/>
                <path id="path6045" d="M-44.078,27.158C-43.84,26.006 -42.828,27.139 -44.078,27.158Z" style="fill:rgb(232,96,33);fill-rule:nonzero;"/>
                <path id="path6027" d="M-31.056,26.002C-31.27,25.601 -30.666,26.124 -31.056,26.002Z" style="fill:rgb(232,96,33);fill-rule:nonzero;"/>
                <path id="path6021" d="M-34.118,25.388C-34.106,25.389 -34.106,25.389 -34.118,25.388Z" style="fill:rgb(232,96,33);fill-rule:nonzero;"/>
                <path id="path6005" d="M-33.396,24.839C-33.385,24.836 -33.385,24.836 -33.396,24.839Z" style="fill:rgb(232,96,33);fill-rule:nonzero;"/>
                <path id="path5895" d="M-27.065,19.361C-27.373,19.33 -26.953,19.21 -27.065,19.361Z" style="fill:rgb(232,96,33);fill-rule:nonzero;"/>
                <path id="path5891" d="M-27.041,19.117C-27.321,18.978 -26.881,19.025 -27.041,19.117Z" style="fill:rgb(232,96,33);fill-rule:nonzero;"/>
                <path id="path5883" d="M-16.486,18.804C-16.814,16.772 -14.966,15.422 -13.896,13.968C-12.071,15.572 -15.429,16.424 -15.715,17.874C-15.851,18.258 -16.081,18.657 -16.486,18.804Z" style="fill:rgb(232,96,33);fill-rule:nonzero;"/>
                <path id="path5845" d="M-28.84,17.703C-28.828,17.703 -28.828,17.703 -28.84,17.703Z" style="fill:rgb(232,96,33);fill-rule:nonzero;"/>
                <path id="path5819" d="M-31.625,16.91C-31.353,15.783 -30.472,16.786 -31.625,16.91Z" style="fill:rgb(232,96,33);fill-rule:nonzero;"/>
                <path id="path5813" d="M-30.559,16.762C-30.687,16.326 -30.184,16.628 -30.559,16.762Z" style="fill:rgb(232,96,33);fill-rule:nonzero;"/>
                <path id="path5801" d="M-31.511,16.588C-30.979,15.771 -29.527,14.057 -29.349,13.949C-29.998,14.881 -30.581,15.901 -31.511,16.588Z" style="fill:rgb(232,96,33);fill-rule:nonzero;"/>
                <path id="path5799" d="M-30.097,14.633C-30.111,14.633 -30.111,14.633 -30.097,14.633Z" style="fill:rgb(232,96,33);fill-rule:nonzero;"/>
                <path id="path5793" d="M-30.622,16.556C-30.611,16.554 -30.611,16.554 -30.622,16.556Z" style="fill:rgb(232,96,33);fill-rule:nonzero;"/>
                <path id="path5773" d="M-29.692,16.098C-29.71,15.563 -29.139,16.218 -29.692,16.098Z" style="fill:rgb(232,96,33);fill-rule:nonzero;"/>
                <path id="path5771" d="M-14.148,16.087C-14.231,15.689 -13.668,16.078 -14.148,16.087Z" style="fill:rgb(232,96,33);fill-rule:nonzero;"/>
                <path id="path5769" d="M-29.962,16.028C-29.829,14.774 -28.75,16.353 -29.962,16.028Z" style="fill:rgb(232,96,33);fill-rule:nonzero;"/>
                <path id="path5753" d="M-29.066,15.519C-29.053,15.518 -29.053,15.518 -29.066,15.519Z" style="fill:rgb(232,96,33);fill-rule:nonzero;"/>
                <path id="path5725" d="M-18.809,14.575C-18.78,14.457 -18.78,14.693 -18.809,14.575Z" style="fill:rgb(232,96,33);fill-rule:nonzero;"/>
                <path id="path5721" d="M-27.989,14.564C-27.969,14.56 -27.969,14.56 -27.989,14.564Z" style="fill:rgb(232,96,33);fill-rule:nonzero;"/>
                <path id="path5719" d="M-35.707,14.537C-35.513,13.04 -34.203,14.662 -35.707,14.537Z" style="fill:rgb(232,96,33);fill-rule:nonzero;"/>
                <path id="path5715" d="M-26.052,14.253C-27.064,14.501 -26.971,13.416 -26.052,14.253Z" style="fill:rgb(232,96,33);fill-rule:nonzero;"/>
                <path id="path5711" d="M-26.919,14.094C-26.906,14.091 -26.906,14.091 -26.919,14.094Z" style="fill:rgb(232,96,33);fill-rule:nonzero;"/>
                <path id="path5707" d="M-29.307,13.919C-29.427,13.721 -29.117,13.986 -29.307,13.919Z" style="fill:rgb(232,96,33);fill-rule:nonzero;"/>
                <path id="path5703" d="M-19.445,13.892C-19.432,13.888 -19.432,13.888 -19.445,13.892Z" style="fill:rgb(232,96,33);fill-rule:nonzero;"/>
                <path id="path5699" d="M-35.356,13.833C-37.792,13.863 -34.38,12.008 -35.356,13.833Z" style="fill:rgb(232,96,33);fill-rule:nonzero;"/>
                <path id="path5659" d="M-18.781,13.141C-18.509,13.128 -18.979,13.452 -18.781,13.141Z" style="fill:rgb(232,96,33);fill-rule:nonzero;"/>
                <path id="path5629" d="M-34.432,12.272C-34.176,11.323 -36.366,9.713 -34.337,9.685C-32.693,9.49 -32.768,12.641 -34.432,12.272Z" style="fill:rgb(232,96,33);fill-rule:nonzero;"/>
                <path id="path5521" d="M-31.745,10.432C-32.671,9.389 -30.518,9.983 -31.745,10.432Z" style="fill:rgb(232,96,33);fill-rule:nonzero;"/>
                <path id="path5499" d="M-25.069,10.28C-26.629,10.018 -24.468,9.456 -25.069,10.28Z" style="fill:rgb(232,96,33);fill-rule:nonzero;"/>
                <path id="path7805" d="M-36.461,32.506C-38.274,32.744 -40.087,30.578 -39.294,28.86C-37.563,28.159 -35.293,28.989 -33.894,27.486C-33.928,26.901 -34.778,27.739 -34.511,26.84C-35.285,25.897 -37.106,26.815 -37.613,25.407C-39.063,24.493 -40.961,26.322 -42.2,25.604C-40.051,24.288 -37.46,24.983 -35.15,25.375C-34.521,25.658 -33.58,25.054 -34.348,24.564C-33.263,22.974 -30.347,25.284 -29.828,22.79C-28.92,21.676 -28.301,19.954 -26.721,19.704C-24.573,20.177 -26.096,23.095 -25.229,24.555C-24.72,26.123 -23.171,26.595 -21.787,26.951C-20.998,27.222 -18.644,28.01 -20.636,27.843C-21.77,28.064 -19.02,28.123 -18.704,28.5C-21.074,27.813 -23.894,28.452 -25.908,26.741C-26.769,25.93 -29.419,26.812 -27.31,27.34C-26.235,28.86 -28.322,28.839 -29.274,29.011C-30.323,29.045 -30.33,30.761 -30.18,30.678C-31.54,30.074 -33.381,30.289 -34.028,31.61C-34.796,31.95 -35.647,32.406 -36.461,32.506Z" style="fill:rgb(210,50,31);fill-rule:nonzero;"/>
                <path id="path7803" d="M-37.108,31.988C-36.222,32.693 -34.682,30.427 -36.391,31.176C-36.802,31.158 -38.473,32.109 -37.108,31.988Z" style="fill:rgb(210,50,31);fill-rule:nonzero;"/>
                <path id="path7791" d="M-37.078,30.936C-35.697,31.13 -34.61,27.916 -33.623,29.257C-33.201,30.752 -33.443,28.186 -32.358,28.473C-31.32,28.225 -28.459,29.272 -28.9,27.485C-29.864,25.828 -32.302,25.972 -33.416,27.384C-34.656,28.385 -36.343,29.198 -37.947,28.621C-40.152,28.578 -38.57,31.571 -37.078,30.936Z" style="fill:rgb(210,50,31);fill-rule:nonzero;"/>
                <path id="path7775" d="M-30.733,27.095C-30.719,27.095 -30.719,27.095 -30.733,27.095Z" style="fill:rgb(210,50,31);fill-rule:nonzero;"/>
                <path id="path7769" d="M-31.011,26.647C-31.003,26.642 -31.003,26.642 -31.011,26.647Z" style="fill:rgb(210,50,31);fill-rule:nonzero;"/>
                <path id="path7767" d="M-30.964,26.401C-30.829,26.356 -31.085,26.565 -30.964,26.401Z" style="fill:rgb(210,50,31);fill-rule:nonzero;"/>
                <path id="path7697" d="M-23.763,27.532C-25.048,25.732 -27.407,24.223 -29.664,25.048C-29.857,27.007 -27.328,26.087 -26.185,26.543C-25.442,26.996 -24.603,27.287 -23.763,27.532Z" style="fill:rgb(210,50,31);fill-rule:nonzero;"/>
                <path id="path7669" d="M-24.527,26.648C-24.525,26.657 -24.525,26.657 -24.527,26.648Z" style="fill:rgb(210,50,31);fill-rule:nonzero;"/>
                <path id="path7647" d="M-30.983,25.987C-30.924,25.947 -30.924,25.947 -30.983,25.987Z" style="fill:rgb(210,50,31);fill-rule:nonzero;"/>
                <path id="path7633" d="M-34.081,25.387C-34.092,25.388 -34.092,25.388 -34.081,25.387Z" style="fill:rgb(210,50,31);fill-rule:nonzero;"/>
                <path id="path7603" d="M-33.361,24.826C-33.372,24.832 -33.372,24.832 -33.361,24.826Z" style="fill:rgb(210,50,31);fill-rule:nonzero;"/>
                <path id="path7595" d="M-33.98,24.773C-34.107,24.852 -33.785,24.832 -33.98,24.773Z" style="fill:rgb(210,50,31);fill-rule:nonzero;"/>
                <path id="path7561" d="M-26.875,31.301C-27.903,29.56 -23.969,28.488 -23.849,30.303C-24.362,31.407 -26.599,29.718 -26.875,31.301Z" style="fill:rgb(210,50,31);fill-rule:nonzero;"/>
                <path id="path7301" d="M-15.971,23.758C-17.622,22.897 -18.462,20.898 -18.425,19.103C-16.886,17.631 -16.14,15.553 -15.683,13.52C-16.801,13.707 -17.91,15.367 -19.039,14.337C-16.919,14.525 -15.527,12.299 -13.73,12.1C-12.884,11.951 -11.127,10.858 -12.752,11.882C-13.922,12.44 -16.029,13.841 -15.373,15.07C-14.563,14.647 -13.012,12.404 -12.836,14.501C-13.026,15.538 -15.353,16.394 -13.936,17.426C-14.86,17.48 -15.206,19.824 -16.153,18.598C-15.447,17.236 -13.706,16.409 -13.641,14.753C-14.251,13.461 -15.589,15.756 -15.865,16.544C-16.882,18.475 -17.876,20.907 -16.823,23.031C-16.671,23.397 -16.336,23.634 -15.971,23.758Z" style="fill:rgb(210,50,31);fill-rule:nonzero;"/>
                <path id="path7245" d="M-18.786,14.552C-18.786,14.565 -18.786,14.565 -18.786,14.552Z" style="fill:rgb(210,50,31);fill-rule:nonzero;"/>
                <path id="path7209" d="M-23.375,23.256C-23.221,22.543 -22.264,21.434 -23.259,20.936C-21.39,20.91 -22.952,22.573 -23.375,23.256Z" style="fill:rgb(210,50,31);fill-rule:nonzero;"/>
                <path id="path7197" d="M-20.646,23.208C-21.668,22.093 -18.231,21.032 -19.548,22.511C-19.851,22.826 -20.224,23.084 -20.646,23.208Z" style="fill:rgb(210,50,31);fill-rule:nonzero;"/>
                <path id="path7133" d="M-41.943,22.142C-42.367,21.874 -41.522,22.18 -41.943,22.142Z" style="fill:rgb(210,50,31);fill-rule:nonzero;"/>
                <path id="path7087" d="M-28.965,20.744C-29.018,19.468 -27.743,20.828 -28.965,20.744Z" style="fill:rgb(210,50,31);fill-rule:nonzero;"/>
                <path id="path7081" d="M-42.468,20.783C-43.656,21.271 -42.553,19.452 -42.468,20.783Z" style="fill:rgb(210,50,31);fill-rule:nonzero;"/>
                <path id="path7019" d="M-30.536,19.694C-30.49,18.653 -28.405,19.037 -30.012,19.481C-30.184,19.559 -30.358,19.631 -30.536,19.694Z" style="fill:rgb(210,50,31);fill-rule:nonzero;"/>
                <path id="path7017" d="M-28.363,18.387C-28.376,18.391 -28.376,18.391 -28.363,18.387Z" style="fill:rgb(210,50,31);fill-rule:nonzero;"/>
                <path id="path7005" d="M-27.766,19.602C-27.755,19.602 -27.755,19.602 -27.766,19.602Z" style="fill:rgb(210,50,31);fill-rule:nonzero;"/>
                <path id="path6995" d="M-27.358,19.407C-27.36,19.353 -27.36,19.353 -27.358,19.407Z" style="fill:rgb(210,50,31);fill-rule:nonzero;"/>
                <path id="path6991" d="M-28.363,19.156C-28.811,17.944 -27.168,18.843 -28.363,19.156Z" style="fill:rgb(210,50,31);fill-rule:nonzero;"/>
                <path id="path6979" d="M-30.227,18.993C-30.215,18.994 -30.215,18.994 -30.227,18.993Z" style="fill:rgb(210,50,31);fill-rule:nonzero;"/>
                <path id="path6971" d="M-27.481,18.836C-28.261,18.604 -26.857,18.349 -27.481,18.836Z" style="fill:rgb(210,50,31);fill-rule:nonzero;"/>
                <path id="path6939" d="M-16.393,16.036C-17.099,15.228 -15.802,15.021 -16.393,16.036Z" style="fill:rgb(210,50,31);fill-rule:nonzero;"/>
                <path id="path6931" d="M-21.467,15.936C-23.157,14.223 -18.985,13.458 -20.949,15.685L-21.187,15.851L-21.467,15.936L-21.467,15.936Z" style="fill:rgb(210,50,31);fill-rule:nonzero;"/>
                <path id="path6927" d="M-20.918,15.114C-20.933,15.114 -20.933,15.114 -20.918,15.114Z" style="fill:rgb(210,50,31);fill-rule:nonzero;"/>
                <path id="path6925" d="M-20.87,14.314C-20.907,14.175 -20.907,14.454 -20.87,14.314Z" style="fill:rgb(210,50,31);fill-rule:nonzero;"/>
                <path id="path6923" d="M-21.649,14.117C-21.664,14.13 -21.664,14.13 -21.649,14.117Z" style="fill:rgb(210,50,31);fill-rule:nonzero;"/>
                <path id="path6921" d="M-21.09,14.016C-20.431,13.562 -21.757,13.612 -21.09,14.016Z" style="fill:rgb(210,50,31);fill-rule:nonzero;"/>
                <path id="path6919" d="M-20.493,14.098C-20.496,14.12 -20.496,14.12 -20.493,14.098Z" style="fill:rgb(210,50,31);fill-rule:nonzero;"/>
                <path id="path6917" d="M-21.236,13.628C-21.247,13.636 -21.247,13.636 -21.236,13.628Z" style="fill:rgb(210,50,31);fill-rule:nonzero;"/>
                <path id="path6915" d="M-20.458,15.812C-21.333,14.822 -19.379,15.167 -20.458,15.812Z" style="fill:rgb(210,50,31);fill-rule:nonzero;"/>
                <path id="path6913" d="M-12.664,15.884C-13.785,15.05 -11.089,12.618 -12.143,14.677C-12.367,15.054 -12.58,15.449 -12.664,15.884Z" style="fill:rgb(210,50,31);fill-rule:nonzero;"/>
                <path id="path6891" d="M-20.764,14.324C-20.69,14.196 -20.738,14.544 -20.764,14.324Z" style="fill:rgb(210,50,31);fill-rule:nonzero;"/>
                <path id="path6885" d="M-19.445,13.922C-19.69,13.674 -19.033,13.948 -19.445,13.922Z" style="fill:rgb(210,50,31);fill-rule:nonzero;"/>
                <path id="path6875" d="M-20.581,13.813C-20.483,13.736 -20.628,13.95 -20.581,13.813Z" style="fill:rgb(210,50,31);fill-rule:nonzero;"/>
                <path id="path6843" d="M-18.952,12.921C-18.924,12.924 -18.924,12.924 -18.952,12.921Z" style="fill:rgb(210,50,31);fill-rule:nonzero;"/>
                <path id="path6839" d="M-18.879,12.749C-19.249,12.85 -18.709,12.468 -18.879,12.749Z" style="fill:rgb(210,50,31);fill-rule:nonzero;"/>
                <path id="path6829" d="M-18.588,12.186C-18.321,11.864 -18.625,12.722 -18.588,12.186Z" style="fill:rgb(210,50,31);fill-rule:nonzero;"/>
                <path id="path9775" d="M-29.71,32.219C-28.704,31.361 -31.549,28.935 -29.117,29.526C-27.626,29.687 -26.35,27.089 -28.432,27.184C-28.83,26.054 -27.771,27.152 -27.177,27.035C-25.541,28.356 -27.205,30.725 -28.959,29.675C-30.579,29.996 -28.748,31.729 -29.71,32.219Z" style="fill:rgb(166,81,23);fill-rule:nonzero;"/>
                <path id="path9773" d="M-29.779,30.389C-29.787,30.389 -29.787,30.389 -29.779,30.389Z" style="fill:rgb(166,81,23);fill-rule:nonzero;"/>
                <path id="path9699" d="M-29.538,31.844C-29.527,31.827 -29.527,31.827 -29.538,31.844Z" style="fill:rgb(166,81,23);fill-rule:nonzero;"/>
                <path id="path9681" d="M-20.197,28.088C-20.942,28.87 -22.162,27.132 -20.705,27.615C-19.68,27.603 -18.65,28.387 -17.789,28.543C-18.616,28.642 -19.447,28.423 -20.197,28.088Z" style="fill:rgb(166,81,23);fill-rule:nonzero;"/>
                <path id="path9667" d="M-29.44,31.518C-29.436,31.514 -29.436,31.514 -29.44,31.518Z" style="fill:rgb(166,81,23);fill-rule:nonzero;"/>
                <path id="path9637" d="M-29.44,31.344C-29.436,31.34 -29.436,31.34 -29.44,31.344Z" style="fill:rgb(166,81,23);fill-rule:nonzero;"/>
                <path id="path9615" d="M-29.599,31.01C-29.593,31.014 -29.593,31.014 -29.599,31.01Z" style="fill:rgb(166,81,23);fill-rule:nonzero;"/>
                <path id="path9607" d="M-29.665,30.924C-29.65,30.935 -29.65,30.935 -29.665,30.924Z" style="fill:rgb(166,81,23);fill-rule:nonzero;"/>
                <path id="path9597" d="M-29.809,30.76C-29.801,30.766 -29.801,30.766 -29.809,30.76Z" style="fill:rgb(166,81,23);fill-rule:nonzero;"/>
                <path id="path9583" d="M-43.413,25.57C-41.936,26.694 -40.232,25.373 -38.663,25.271C-36.999,25.3 -35.717,26.617 -34.263,27.275C-33.112,27.936 -35.873,28.313 -36.42,27.743C-37.444,27.079 -37.26,25.492 -38.938,25.773C-40.204,25.676 -41.52,25.995 -42.746,25.546L-43.08,25.538L-43.413,25.57L-43.413,25.57Z" style="fill:rgb(166,81,23);fill-rule:nonzero;"/>
                <path id="path9519" d="M-44.822,22.439C-44.035,21.479 -42.039,19.209 -44.206,18.657C-43.833,16.523 -46.592,16.188 -47.413,14.633C-48.754,13.045 -45.566,10.839 -44.87,12.845C-45.069,13.523 -46.592,14.987 -45.284,15.109C-43.831,14.197 -42.672,15.971 -42.186,17.136C-40.992,18.638 -42.056,20.083 -43.321,21.079C-43.906,23.196 -41.688,20.398 -40.747,20.684C-40.104,22.605 -43.983,22.173 -44.111,24.148C-44.977,25.842 -44.604,22.726 -44.822,22.439Z" style="fill:rgb(166,81,23);fill-rule:nonzero;"/>
                <path id="path9495" d="M-42.223,21.779C-41.952,21.153 -42.62,22.091 -42.223,21.779Z" style="fill:rgb(166,81,23);fill-rule:nonzero;"/>
                <path id="path9493" d="M-42.514,21.673C-42.522,21.503 -42.586,21.804 -42.514,21.673Z" style="fill:rgb(166,81,23);fill-rule:nonzero;"/>
                <path id="path9361" d="M-29.974,30.616C-29.958,30.627 -29.958,30.627 -29.974,30.616Z" style="fill:rgb(166,81,23);fill-rule:nonzero;"/>
                <path id="path9355" d="M-30.061,30.548C-30.055,30.551 -30.055,30.551 -30.061,30.548Z" style="fill:rgb(166,81,23);fill-rule:nonzero;"/>
                <path id="path9133" d="M-28.014,27.612C-28.869,27.094 -27.465,27.088 -28.014,27.612Z" style="fill:rgb(166,81,23);fill-rule:nonzero;"/>
                <path id="path9119" d="M-23.884,27.559C-25.879,26.596 -28.092,26.054 -30.312,26.095C-29.599,24.213 -26.99,24.548 -25.718,25.64C-24.994,26.154 -24.317,26.772 -23.884,27.559Z" style="fill:rgb(166,81,23);fill-rule:nonzero;"/>
                <path id="path9117" d="M-24.957,26.893C-25.516,25.651 -28.145,24.304 -28.694,25.869C-27.741,26.873 -26.02,26.057 -24.957,26.893Z" style="fill:rgb(166,81,23);fill-rule:nonzero;"/>
                <path id="path9057" d="M-24.536,26.678C-24.696,26.744 -24.505,26.575 -24.536,26.678Z" style="fill:rgb(166,81,23);fill-rule:nonzero;"/>
                <path id="path9055" d="M-41.107,22.616C-41.676,22.827 -42.988,24.306 -42.003,23.06C-41.76,22.826 -41.449,22.642 -41.107,22.616Z" style="fill:rgb(166,81,23);fill-rule:nonzero;"/>
                <path id="path8967" d="M-22.947,24.936C-23.768,24.783 -23.851,22.389 -24.739,23.76C-24.651,22.609 -24.365,20.021 -23.987,19.764C-23.438,20.927 -22.081,22.008 -23.321,23.226C-23.01,23.926 -23.736,24.015 -22.696,24.204C-21.734,24.668 -23.14,24.572 -22.947,24.936Z" style="fill:rgb(166,81,23);fill-rule:nonzero;"/>
                <path id="path8887" d="M-19.974,24.223C-21.942,23.44 -17.853,21.933 -19.926,21.403C-19.314,19.916 -17.221,21.252 -17.087,22.511C-16.504,24.429 -17.706,20.718 -18.736,21.736C-19.489,22.361 -19.008,23.671 -19.974,24.223L-19.974,24.223Z" style="fill:rgb(166,81,23);fill-rule:nonzero;"/>
                <path id="path8813" d="M-16.162,23.546C-16.153,23.553 -16.153,23.553 -16.162,23.546Z" style="fill:rgb(166,81,23);fill-rule:nonzero;"/>
                <path id="path8809" d="M-16.412,23.386C-16.398,23.391 -16.398,23.391 -16.412,23.386Z" style="fill:rgb(166,81,23);fill-rule:nonzero;"/>
                <path id="path8803" d="M-16.714,23.232C-16.724,23.1 -16.422,23.574 -16.714,23.232Z" style="fill:rgb(166,81,23);fill-rule:nonzero;"/>
                <path id="path8725" d="M-16.333,20.759C-15.832,20.238 -17.211,18.609 -15.946,18.871C-16.3,20.511 -14.012,17.693 -15.091,19.482C-15.484,19.928 -15.967,20.288 -16.333,20.759Z" style="fill:rgb(166,81,23);fill-rule:nonzero;"/>
                <path id="path8601" d="M-13.428,18.029C-14.856,17.448 -14.354,15.322 -12.939,15.274C-12.12,14.499 -13.019,12.171 -13.887,13.807C-14.161,14.662 -16.565,15.512 -15.467,13.969C-14.417,13.49 -12.777,12.265 -12.263,13.666C-11.56,12.881 -12.666,14.944 -13.009,15.338C-13.555,16.106 -14.027,17.148 -13.428,18.029Z" style="fill:rgb(166,81,23);fill-rule:nonzero;"/>
                <path id="path8597" d="M-14.406,16.356C-13.773,16.047 -14.358,15.957 -14.406,16.356Z" style="fill:rgb(166,81,23);fill-rule:nonzero;"/>
                <path id="path8529" d="M-41.028,16.394C-42.271,16.281 -41.321,15.028 -41.028,16.394Z" style="fill:rgb(166,81,23);fill-rule:nonzero;"/>
                <path id="path8475" d="M-41.356,15.417C-42.625,15.234 -41.346,14.092 -41.356,15.417Z" style="fill:rgb(166,81,23);fill-rule:nonzero;"/>
                <path id="path8453" d="M-42.674,14.97C-43.863,15.534 -44.96,12.884 -43.144,13.919C-42.761,14.068 -41.981,14.62 -42.674,14.97Z" style="fill:rgb(166,81,23);fill-rule:nonzero;"/>
                <path id="path8445" d="M-43.653,14.751C-43.126,14.829 -43.857,15.378 -43.653,14.751Z" style="fill:rgb(166,81,23);fill-rule:nonzero;"/>
                <path id="path8439" d="M-41.518,14.595C-42.813,14.667 -41.138,13.302 -41.518,14.595Z" style="fill:rgb(166,81,23);fill-rule:nonzero;"/>
                <path id="path8431" d="M-20.712,14.503C-22.043,14.127 -19.462,12.775 -20.543,14.129L-20.636,14.313L-20.712,14.503L-20.712,14.503Z" style="fill:rgb(166,81,23);fill-rule:nonzero;"/>
                <path id="path8429" d="M-20.716,14.329C-20.55,14.189 -20.894,14.338 -20.716,14.329Z" style="fill:rgb(166,81,23);fill-rule:nonzero;"/>
                <path id="path8427" d="M-20.822,14.055C-21.033,14.092 -20.578,14.184 -20.822,14.055Z" style="fill:rgb(166,81,23);fill-rule:nonzero;"/>
                <path id="path8425" d="M-20.543,13.825C-20.495,13.684 -20.64,13.902 -20.543,13.825Z" style="fill:rgb(166,81,23);fill-rule:nonzero;"/>
                <path id="path8423" d="M-18.336,14.4C-20.889,14.444 -18.937,10.474 -17.109,11.704C-16.369,11.672 -15.233,10.15 -16.665,10.978C-17.851,11.581 -19.876,12.086 -20.703,10.706C-20.898,9.032 -18.259,10.928 -17.26,10.227C-15.553,9.738 -12.843,8.917 -11.554,10.492C-11.76,12.209 -14.306,11.793 -15.384,12.852C-16.368,13.368 -17.319,13.949 -18.336,14.4Z" style="fill:rgb(166,81,23);fill-rule:nonzero;"/>
                <path id="path8421" d="M-19.377,13.855C-18.899,13.746 -19.593,13.532 -19.377,13.855Z" style="fill:rgb(166,81,23);fill-rule:nonzero;"/>
                <path id="path8411" d="M-17.797,13.346C-16.607,13.538 -13.911,12.166 -15.23,10.847C-16.364,10.733 -18.68,11.845 -17.797,13.346Z" style="fill:rgb(166,81,23);fill-rule:nonzero;"/>
                <path id="path8405" d="M-18.116,12.266C-18.118,12.067 -17.992,12.429 -18.116,12.266Z" style="fill:rgb(166,81,23);fill-rule:nonzero;"/>
                <path id="path8403" d="M-17.957,12.181C-18.039,11.981 -17.788,12.271 -17.957,12.181Z" style="fill:rgb(166,81,23);fill-rule:nonzero;"/>
                <path id="path8391" d="M-18.713,13.158C-18.588,12.934 -18.933,13.245 -18.713,13.158Z" style="fill:rgb(166,81,23);fill-rule:nonzero;"/>
                <path id="path8383" d="M-18.52,12.562C-18.653,12.508 -18.428,12.738 -18.52,12.562Z" style="fill:rgb(166,81,23);fill-rule:nonzero;"/>
                <path id="path8381" d="M-18.618,12.432C-18.856,12.791 -18.007,12.389 -18.618,12.432Z" style="fill:rgb(166,81,23);fill-rule:nonzero;"/>
                <path id="path8379" d="M-18.772,12.409C-18.267,11.665 -19.591,12.42 -18.772,12.409Z" style="fill:rgb(166,81,23);fill-rule:nonzero;"/>
                <path id="path8373" d="M-18.447,12.189C-18.544,11.847 -18.591,12.538 -18.447,12.189Z" style="fill:rgb(166,81,23);fill-rule:nonzero;"/>
                <path id="path8371" d="M-18.16,12.12C-18.566,11.855 -18.441,12.744 -18.16,12.12Z" style="fill:rgb(166,81,23);fill-rule:nonzero;"/>
                <path id="path8315" d="M-20.909,14.315C-20.872,14.175 -20.872,14.454 -20.909,14.315Z" style="fill:rgb(166,81,23);fill-rule:nonzero;"/>
                <path id="path8313" d="M-19.635,14.29C-18.768,14.115 -18.216,15.071 -19.347,14.335L-19.487,14.291L-19.635,14.29L-19.635,14.29Z" style="fill:rgb(166,81,23);fill-rule:nonzero;"/>
                <path id="path8305" d="M-11.72,14.182C-11.954,13.3 -10.691,13.56 -11.72,14.182Z" style="fill:rgb(166,81,23);fill-rule:nonzero;"/>
                <path id="path8301" d="M-21.248,14.142C-21.787,13.533 -20.425,13.675 -21.248,14.142Z" style="fill:rgb(166,81,23);fill-rule:nonzero;"/>
                <path id="path8221" d="M-43.715,13.099C-43.971,12.033 -42.407,13.665 -43.715,13.099L-43.715,13.099Z" style="fill:rgb(166,81,23);fill-rule:nonzero;"/>
                <path id="path8205" d="M-39.492,12.86C-41.106,11.885 -43.108,12.43 -44.849,11.858C-45.558,11.597 -47.533,12.327 -46.315,11.509C-47.039,10.01 -45.742,9.55 -44.452,9.776C-42.957,9.841 -41.473,10.109 -39.973,10.033C-38.482,10.17 -37.765,12.399 -39.492,12.86Z" style="fill:rgb(166,81,23);fill-rule:nonzero;"/>
                <path id="path8121" d="M-37.021,12.773C-38.839,12.894 -36.323,10.142 -36.794,12.169L-36.917,12.467L-37.021,12.773Z" style="fill:rgb(166,81,23);fill-rule:nonzero;"/>
                <path id="path7969" d="M-37.874,11.069C-39.143,11.163 -37.735,9.099 -37.854,10.726L-37.854,10.898L-37.874,11.069Z" style="fill:rgb(166,81,23);fill-rule:nonzero;"/>
                <path id="path7945" d="M-37.816,10.495C-38.614,10.031 -37.071,9.952 -37.816,10.495Z" style="fill:rgb(166,81,23);fill-rule:nonzero;"/>
                <path id="path7813" d="M-15.953,9.709C-15.941,9.709 -15.941,9.709 -15.953,9.709Z" style="fill:rgb(166,81,23);fill-rule:nonzero;"/>
            </g>
            <path id="path9815" d="M14.906,13.946C11.911,13.923 9.071,14.778 6.344,17.29L6.438,17.478C19.378,24.271 31.057,24.229 41.563,17.821C31.016,19.568 22.44,14.005 14.906,13.946Z" style="fill:url(#_Radial3);fill-rule:nonzero;stroke:rgb(164,0,0);stroke-width:0.5px;"/>
            <path id="path13625" d="M41.969,17.728C41.978,17.747 41.991,17.77 42,17.79L42.063,17.728C42.031,17.733 42,17.722 41.969,17.728Z" style="fill:url(#_Radial4);fill-rule:nonzero;stroke:rgb(164,0,0);stroke-width:0.5px;"/>
        </g>
        <path id="BG1" serif:id="BG" d="M400,2C619.662,2 798,180.338 798,400C798,619.662 619.662,798 400,798C180.338,798 2,619.662 2,400C2,180.338 180.338,2 400,2ZM400,37C600.345,37 763,199.655 763,400C763,600.345 600.345,763 400,763C199.655,763 37,600.345 37,400C37,199.655 199.655,37 400,37Z"/>
    </g>
    <g id="Badge" transform="matrix(0.941581,0,0,0.941581,2,44.7354)">
        <circle cx="145.5" cy="654.5" r="145.5"/>
        <path d="M145.5,509C225.804,509 291,574.196 291,654.5C291,734.804 225.804,800 145.5,800C65.196,800 0,734.804 0,654.5C0,574.196 65.196,509 145.5,509ZM145.5,519.089C220.235,519.089 280.911,579.765 280.911,654.5C280.911,729.235 220.235,789.911 145.5,789.911C70.765,789.911 10.089,729.235 10.089,654.5C10.089,579.765 70.765,519.089 145.5,519.089Z" style="fill:white;"/>
        <g transform="matrix(0.956835,0,0,0.956835,1.76984,19.0057)">
            <path d="M153.1,689.8L177.08,726.98C184.56,738.64 188.74,746.12 192.92,754.04L251.22,754.04C241.98,742.82 235.82,734.9 228.78,725L180.16,656.8L221.52,598.72C229.22,587.72 234.5,580.9 242.42,571L185.88,571C182.36,579.36 178.62,585.96 169.82,599.82L153.32,625.56L136.6,600.04C128.68,587.94 123.84,579.14 120.32,571L63.34,571C71.48,580.68 78.08,589.26 84.9,599.16L126.04,657.02L77.64,725C71.26,733.8 66.86,739.52 54.98,754.04L113.28,754.04C118.78,743.92 123.4,736.22 129.34,726.98L153.1,689.8Z" style="fill:white;fill-rule:nonzero;"/>
        </g>
    </g>
    <defs>
        <radialGradient id="_Radial1" cx="0" cy="0" r="1" gradientUnits="userSpaceOnUse" gradientTransform="matrix(18.1071,0,0,5.77379,24.1429,19.4762)"><stop offset="0" style="stop-color:rgb(235,206,18);stop-opacity:1"/><stop offset="0.65" style="stop-color:rgb(216,32,32);stop-opacity:1"/><stop offset="1" style="stop-color:rgb(125,8,8);stop-opacity:1"/></radialGradient>
        <radialGradient id="_Radial2" cx="0" cy="0" r="1" gradientUnits="userSpaceOnUse" gradientTransform="matrix(19.0943,-0.699588,0.707107,19.2996,23.8275,23.2224)"><stop offset="0" style="stop-color:rgb(239,148,41);stop-opacity:1"/><stop offset="0.86" style="stop-color:rgb(162,23,23);stop-opacity:1"/><stop offset="1" style="stop-color:rgb(85,6,6);stop-opacity:1"/></radialGradient>
        <radialGradient id="_Radial3" cx="0" cy="0" r="1" gradientUnits="userSpaceOnUse" gradientTransform="matrix(23.3929,-0.142857,0.0352591,5.77368,23.5714,18.9048)"><stop offset="0" style="stop-color:rgb(235,206,18);stop-opacity:1"/><stop offset="0.65" style="stop-color:rgb(216,32,32);stop-opacity:1"/><stop offset="1" style="stop-color:rgb(125,8,8);stop-opacity:1"/></radialGradient>
        <radialGradient id="_Radial4" cx="0" cy="0" r="1" gradientUnits="userSpaceOnUse" gradientTransform="matrix(18.1071,0,0,5.77379,24.2143,19.4762)"><stop offset="0" style="stop-color:rgb(235,206,18);stop-opacity:1"/><stop offset="0.65" style="stop-color:rgb(216,32,32);stop-opacity:1"/><stop offset="1" style="stop-color:rgb(125,8,8);stop-opacity:1"/></radialGradient>
    </defs>
</svg>
