<?xml version="1.0" encoding="UTF-8" standalone="no"?>
<!DOCTYPE svg PUBLIC "-//W3C//DTD SVG 1.1//EN" "http://www.w3.org/Graphics/SVG/1.1/DTD/svg11.dtd">
<svg width="100%" height="100%" viewBox="0 0 800 800" version="1.1" xmlns="http://www.w3.org/2000/svg" xmlns:xlink="http://www.w3.org/1999/xlink" xml:space="preserve" xmlns:serif="http://www.serif.com/" style="fill-rule:evenodd;clip-rule:evenodd;">
    <g>
        <g id="BG">
            <circle cx="400" cy="400" r="398" style="fill:rgb(137,46,46);"/>
            <path d="M400,2C619.662,2 798,180.338 798,400C798,619.662 619.662,798 400,798C180.338,798 2,619.662 2,400C2,180.338 180.338,2 400,2ZM400,37C600.345,37 763,199.655 763,400C763,600.345 600.345,763 400,763C199.655,763 37,600.345 37,400C37,199.655 199.655,37 400,37Z"/>
        </g>
        <g id="Layer-1" serif:id="Layer 1" transform="matrix(12.1561,0,0,12.1561,138.473,175.307)">
            <g id="g19189" transform="matrix(1.18593,0,0,1.18593,-380.79,-1968.66)">
                <circle id="circle19206" cx="354.7" cy="1681.66" r="6.565" style="fill:url(#_Radial1);stroke:rgb(103,109,115);stroke-width:0.59px;"/>
            </g>
            <rect id="rect19044" x="3.217" y="6.386" width="22.918" height="41.12" style="fill:url(#_Linear2);stroke:rgb(177,80,17);stroke-width:1px;"/>
            <path id="path18914" d="M5.022,9.379C5.107,9.051 5.437,8.996 6.194,8.996L12.602,8.996C12.87,8.996 13.361,8.905 13.575,9.059C13.935,9.324 13.748,10.4 13.748,10.808C13.748,11.485 13.747,12.163 13.748,12.842C13.75,13.697 13.244,13.58 12.53,13.58L6.936,13.58C6.504,13.58 5.5,13.642 5.308,13.544C4.839,13.3 4.978,12.647 4.978,12.212C4.978,11.293 4.797,10.253 5.022,9.379Z" style="fill:url(#_Linear3);fill-rule:nonzero;"/>
            <path id="path18916" d="M12.876,9.502L12.591,9.516L12.603,9.516L6.195,9.516C5.688,9.516 5.523,9.546 5.472,9.574C5.436,9.779 5.422,10.022 5.422,10.283C5.422,10.61 5.443,10.964 5.463,11.314L5.497,12.21L5.488,12.487C5.484,12.559 5.478,12.655 5.478,12.749C5.478,12.903 5.492,13.049 5.547,13.08C5.552,13.058 6.514,13.069 6.514,13.069L6.937,13.06L12.531,13.06L12.77,13.063C12.77,13.063 13.218,13.042 13.231,13.041C13.222,13.039 13.22,13.021 13.22,12.994C13.22,12.933 13.231,12.84 13.231,12.84L13.231,10.806L13.253,10.418C13.261,10.294 13.279,10.057 13.279,9.841C13.279,9.673 13.265,9.526 13.231,9.454C13.214,9.5 12.876,9.502 12.876,9.502Z" style="fill:rgb(250,175,62);fill-rule:nonzero;"/>
            <path id="path18923" d="M15.51,9.379C15.593,9.051 15.924,8.996 16.681,8.996L23.09,8.996C23.358,8.996 23.849,8.905 24.062,9.059C24.423,9.324 24.237,10.4 24.237,10.808C24.237,11.485 24.236,12.163 24.237,12.842C24.238,13.697 23.73,13.58 23.017,13.58L17.424,13.58C16.991,13.58 15.988,13.642 15.795,13.544C15.328,13.3 15.467,12.647 15.467,12.212C15.467,11.293 15.284,10.253 15.51,9.379Z" style="fill:url(#_Linear4);fill-rule:nonzero;"/>
            <path id="path18925" d="M23.362,9.502L23.078,9.516L23.09,9.516L16.681,9.516C16.175,9.516 16.009,9.546 15.958,9.574C15.922,9.779 15.909,10.021 15.909,10.279C15.909,10.608 15.93,10.964 15.949,11.314L15.984,12.21L15.974,12.488C15.97,12.56 15.966,12.656 15.966,12.751C15.966,12.905 15.98,13.049 16.035,13.08C16.04,13.058 17,13.069 17,13.069L17.424,13.06L23.017,13.06L23.256,13.063C23.256,13.063 23.706,13.041 23.718,13.041C23.711,13.038 23.708,13.02 23.708,12.991C23.708,12.931 23.719,12.842 23.719,12.842L23.719,10.806L23.739,10.419C23.749,10.296 23.766,10.058 23.766,9.844C23.766,9.674 23.752,9.526 23.717,9.454C23.702,9.5 23.362,9.502 23.362,9.502Z" style="fill:rgb(250,175,62);fill-rule:nonzero;"/>
            <path id="path18932" d="M10.096,15.743C10.181,15.414 10.512,15.358 11.268,15.358L17.677,15.358C17.946,15.358 18.436,15.266 18.648,15.422C19.011,15.685 18.824,16.761 18.824,17.17C18.824,17.847 18.823,18.525 18.824,19.203C18.825,20.059 18.318,19.941 17.605,19.941L12.012,19.941C11.577,19.941 10.576,20.003 10.382,19.905C9.915,19.662 10.053,19.007 10.053,18.574C10.053,17.654 9.871,16.614 10.096,15.743Z" style="fill:url(#_Linear5);fill-rule:nonzero;"/>
            <path id="path18934" d="M17.95,15.864L17.677,15.877L11.268,15.877C10.761,15.877 10.595,15.909 10.546,15.937C10.509,16.142 10.495,16.383 10.495,16.643C10.495,16.969 10.517,17.326 10.537,17.677L10.571,18.573L10.561,18.849C10.558,18.922 10.553,19.018 10.553,19.112C10.553,19.266 10.567,19.41 10.62,19.441C10.627,19.42 11.587,19.43 11.587,19.43L12.012,19.421L17.605,19.421L17.844,19.425C17.844,19.425 18.294,19.403 18.305,19.402C18.299,19.399 18.295,19.38 18.295,19.35C18.295,19.29 18.305,19.205 18.305,19.205L18.305,17.168L18.327,16.78C18.336,16.657 18.353,16.419 18.353,16.205C18.353,16.035 18.339,15.888 18.305,15.816C18.29,15.862 17.95,15.864 17.95,15.864Z" style="fill:rgb(250,175,62);fill-rule:nonzero;"/>
            <g id="g5031" transform="matrix(1.09222,0,0,1.09222,-1.22435,-8.53926)">
                <path id="path18941" d="M3.619,22.022L7.224,22.022C7.469,22.022 7.919,21.938 8.114,22.079C8.444,22.321 8.274,23.306 8.274,23.68C8.274,24.3 8.272,24.921 8.274,25.542C8.274,26.325 7.811,26.218 7.157,26.218L3.62,26.218L3.62,22.022L3.619,22.022Z" style="fill:url(#_Linear6);fill-rule:nonzero;"/>
                <path id="path18943" d="M7.045,22.485L6.795,22.497L3.665,22.497L3.665,25.743L6.728,25.743L6.947,25.746C6.947,25.746 7.359,25.726 7.37,25.725C7.363,25.723 7.361,25.705 7.361,25.68C7.361,25.625 7.371,25.543 7.371,25.543L7.371,23.679C7.371,23.678 7.39,23.325 7.39,23.325C7.399,23.21 7.414,22.993 7.414,22.798C7.414,22.642 7.401,22.508 7.369,22.441C7.355,22.483 7.045,22.485 7.045,22.485Z" style="fill:rgb(250,175,62);fill-rule:nonzero;"/>
            </g>
            <g id="g5063" transform="matrix(1.09222,0,0,1.09222,-8.86991,-2.29798)">
                <path id="path18950" d="M32.486,20.506L29.211,20.506C28.815,20.506 27.896,20.563 27.721,20.471C27.291,20.248 27.419,19.65 27.419,19.253C27.419,18.411 27.253,17.459 27.458,16.66C27.535,16.359 27.838,16.308 28.531,16.308L32.486,16.308L32.486,20.506Z" style="fill:url(#_Linear7);fill-rule:nonzero;"/>
                <path id="path18952" d="M28.531,16.784C28.068,16.784 27.916,16.813 27.869,16.838C27.836,17.026 27.824,17.245 27.824,17.483C27.824,17.784 27.844,18.11 27.861,18.431L27.894,19.253L27.884,19.506C27.88,19.572 27.876,19.66 27.876,19.747C27.876,19.887 27.889,20.02 27.939,20.047C27.944,20.029 28.822,20.037 28.822,20.037L29.211,20.03L32.012,20.03C32.012,19.379 32.011,17.435 32.011,16.784L28.531,16.784Z" style="fill:rgb(250,175,62);fill-rule:nonzero;"/>
            </g>
            <path id="path18959" d="M5.022,22.104C5.107,21.775 5.437,21.719 6.194,21.719L12.602,21.719C12.87,21.719 13.361,21.629 13.575,21.784C13.935,22.047 13.748,23.124 13.748,23.531C13.748,24.21 13.747,24.887 13.748,25.565C13.75,26.421 13.244,26.304 12.53,26.304L6.936,26.304C6.504,26.304 5.5,26.367 5.308,26.267C4.839,26.025 4.978,25.371 4.978,24.935C4.978,24.016 4.797,22.976 5.022,22.104Z" style="fill:url(#_Linear8);fill-rule:nonzero;"/>
            <path id="path18961" d="M12.874,22.226L12.591,22.24L12.603,22.239L6.195,22.239C5.689,22.239 5.523,22.271 5.472,22.299C5.436,22.505 5.422,22.747 5.422,23.009C5.422,23.336 5.443,23.69 5.463,24.038L5.497,24.935L5.488,25.211C5.484,25.284 5.478,25.38 5.478,25.474C5.478,25.628 5.492,25.775 5.546,25.805C5.552,25.783 6.514,25.794 6.514,25.794L6.937,25.786L12.531,25.786L12.772,25.788C12.772,25.788 13.218,25.767 13.231,25.766C13.223,25.765 13.22,25.745 13.22,25.718C13.22,25.657 13.231,25.565 13.231,25.565L13.231,23.53L13.253,23.142C13.261,23.019 13.28,22.78 13.28,22.567C13.28,22.399 13.265,22.251 13.231,22.179C13.214,22.224 12.874,22.226 12.874,22.226Z" style="fill:rgb(250,175,62);fill-rule:nonzero;"/>
            <path id="path18968" d="M15.51,22.104C15.593,21.775 15.924,21.719 16.681,21.719L23.09,21.719C23.358,21.719 23.849,21.629 24.062,21.784C24.423,22.047 24.237,23.124 24.237,23.531C24.237,24.21 24.236,24.887 24.237,25.565C24.238,26.421 23.73,26.304 23.017,26.304L17.424,26.304C16.991,26.304 15.988,26.367 15.795,26.267C15.328,26.025 15.467,25.371 15.467,24.935C15.467,24.016 15.284,22.976 15.51,22.104Z" style="fill:url(#_Linear9);fill-rule:nonzero;"/>
            <path id="path18970" d="M23.36,22.226L23.078,22.24L23.09,22.239L16.681,22.239C16.175,22.239 16.009,22.271 15.958,22.299C15.922,22.505 15.909,22.747 15.909,23.007C15.909,23.334 15.93,23.69 15.949,24.039L15.984,24.935L15.974,25.212C15.97,25.284 15.966,25.38 15.966,25.475C15.966,25.629 15.98,25.775 16.033,25.805C16.04,25.783 17,25.794 17,25.794L17.424,25.786L23.017,25.786L23.26,25.788C23.26,25.788 23.706,25.767 23.717,25.766C23.711,25.765 23.706,25.746 23.706,25.719C23.706,25.659 23.719,25.565 23.719,25.565L23.719,23.53L23.739,23.144C23.749,23.02 23.766,22.782 23.766,22.569C23.766,22.399 23.752,22.251 23.717,22.179C23.703,22.224 23.36,22.226 23.36,22.226Z" style="fill:rgb(250,175,62);fill-rule:nonzero;"/>
            <path id="path18977" d="M10.096,28.466C10.181,28.137 10.512,28.082 11.268,28.082L17.677,28.082C17.946,28.082 18.436,27.991 18.648,28.145C19.011,28.409 18.824,29.485 18.824,29.895C18.824,30.571 18.823,31.249 18.824,31.927C18.825,32.782 18.318,32.666 17.605,32.666L12.012,32.666C11.577,32.666 10.576,32.728 10.382,32.63C9.915,32.386 10.053,31.732 10.053,31.298C10.053,30.378 9.871,29.338 10.096,28.466Z" style="fill:url(#_Linear10);fill-rule:nonzero;"/>
            <path id="path18979" d="M17.949,28.588L17.665,28.603L17.677,28.603L11.268,28.603C10.762,28.603 10.596,28.633 10.546,28.66C10.509,28.867 10.495,29.108 10.495,29.368C10.495,29.696 10.517,30.052 10.537,30.402L10.571,31.298L10.561,31.573C10.558,31.645 10.553,31.743 10.553,31.837C10.553,31.991 10.567,32.136 10.621,32.166C10.627,32.146 11.585,32.156 11.585,32.156L12.012,32.147L17.605,32.147L17.847,32.149C17.847,32.149 18.292,32.128 18.304,32.127C18.297,32.126 18.294,32.107 18.294,32.081C18.294,32.02 18.305,31.926 18.305,31.926L18.305,29.894L18.327,29.506C18.336,29.382 18.353,29.143 18.353,28.93C18.353,28.76 18.339,28.612 18.305,28.54C18.29,28.586 17.949,28.588 17.949,28.588Z" style="fill:rgb(250,175,62);fill-rule:nonzero;"/>
            <g id="g5075" transform="matrix(1.09222,0,0,1.09222,-10.1182,-2.38094)">
                <path id="path18986" d="M11.762,27.957L15.367,27.957C15.612,27.957 16.062,27.874 16.257,28.016C16.587,28.258 16.417,29.243 16.417,29.617C16.417,30.237 16.415,30.858 16.417,31.479C16.417,32.262 15.954,32.155 15.3,32.155L11.763,32.155L11.763,27.957L11.762,27.957Z" style="fill:url(#_Linear11);fill-rule:nonzero;"/>
                <path id="path18988" d="M15.615,28.42L15.355,28.434L15.366,28.433L12.236,28.433L12.236,31.68L15.299,31.68L15.521,31.682C15.521,31.682 15.928,31.663 15.94,31.662C15.934,31.66 15.93,31.644 15.93,31.619C15.93,31.564 15.942,31.478 15.942,31.478L15.942,29.616L15.961,29.262C15.97,29.147 15.985,28.93 15.985,28.733C15.985,28.579 15.972,28.444 15.94,28.378C15.926,28.418 15.615,28.42 15.615,28.42Z" style="fill:rgb(250,175,62);fill-rule:nonzero;"/>
            </g>
            <g id="g5069" transform="matrix(1.09222,0,0,1.09222,-8.86991,-2.40836)">
                <path id="path18995" d="M32.486,32.155L29.211,32.155C28.815,32.155 27.896,32.213 27.721,32.121C27.291,31.898 27.419,31.299 27.419,30.902C27.419,30.061 27.253,29.108 27.458,28.31C27.535,28.009 27.838,27.958 28.531,27.958L32.486,27.958L32.486,32.155Z" style="fill:url(#_Linear12);fill-rule:nonzero;"/>
                <path id="path18997" d="M28.531,28.433C28.068,28.433 27.916,28.462 27.869,28.487C27.836,28.675 27.824,28.896 27.824,29.133C27.824,29.434 27.844,29.76 27.861,30.081L27.894,30.902L27.884,31.156C27.88,31.222 27.876,31.31 27.876,31.396C27.876,31.537 27.889,31.67 27.939,31.698C27.945,31.679 28.82,31.687 28.82,31.687L29.211,31.679L32.012,31.679C32.012,31.028 32.011,29.085 32.011,28.433L28.531,28.433Z" style="fill:rgb(250,175,62);fill-rule:nonzero;"/>
            </g>
            <path id="path19004" d="M5.022,34.829C5.107,34.501 5.437,34.445 6.194,34.445L12.602,34.445C12.87,34.445 13.361,34.353 13.575,34.509C13.935,34.771 13.748,35.847 13.748,36.257C13.748,36.935 13.747,37.611 13.748,38.289C13.75,39.147 13.244,39.03 12.53,39.03L6.936,39.03C6.504,39.03 5.5,39.091 5.308,38.992C4.839,38.749 4.978,38.096 4.978,37.66C4.978,36.741 4.797,35.701 5.022,34.829Z" style="fill:url(#_Linear13);fill-rule:nonzero;"/>
            <path id="path19006" d="M12.875,34.951L12.603,34.964L6.195,34.964C5.689,34.964 5.523,34.995 5.472,35.024C5.436,35.229 5.422,35.472 5.422,35.733C5.422,36.059 5.443,36.414 5.463,36.763L5.497,37.659L5.488,37.936C5.484,38.008 5.478,38.105 5.478,38.199C5.478,38.353 5.492,38.498 5.546,38.528C5.552,38.508 6.513,38.518 6.513,38.518L6.937,38.51L12.531,38.51L12.772,38.512C12.772,38.512 13.218,38.49 13.231,38.49C13.223,38.488 13.22,38.469 13.22,38.441C13.22,38.381 13.231,38.289 13.231,38.289L13.231,36.255L13.253,35.867C13.261,35.742 13.279,35.504 13.279,35.29C13.279,35.122 13.265,34.975 13.231,34.904C13.214,34.948 12.875,34.951 12.875,34.951Z" style="fill:rgb(250,175,62);fill-rule:nonzero;"/>
            <path id="path19013" d="M15.51,34.829C15.593,34.501 15.924,34.445 16.681,34.445L23.09,34.445C23.358,34.445 23.849,34.353 24.062,34.509C24.423,34.771 24.237,35.847 24.237,36.257C24.237,36.935 24.236,37.611 24.237,38.289C24.238,39.147 23.73,39.03 23.017,39.03L17.424,39.03C16.991,39.03 15.988,39.091 15.795,38.992C15.328,38.749 15.467,38.096 15.467,37.66C15.467,36.741 15.284,35.701 15.51,34.829Z" style="fill:url(#_Linear14);fill-rule:nonzero;"/>
            <path id="path19015" d="M23.361,34.951L23.09,34.964L16.681,34.964C16.175,34.964 16.009,34.995 15.958,35.024C15.922,35.229 15.909,35.47 15.909,35.73C15.909,36.058 15.93,36.414 15.949,36.763L15.984,37.659L15.974,37.937C15.97,38.009 15.966,38.105 15.966,38.2C15.966,38.353 15.98,38.498 16.033,38.528C16.039,38.508 16.999,38.518 16.999,38.518L17.424,38.51L23.017,38.51L23.26,38.512C23.26,38.512 23.706,38.49 23.717,38.49C23.711,38.488 23.706,38.47 23.706,38.443C23.706,38.382 23.719,38.288 23.719,38.288L23.719,36.255L23.739,35.867C23.749,35.743 23.766,35.506 23.766,35.293C23.766,35.123 23.752,34.976 23.717,34.904C23.703,34.948 23.361,34.951 23.361,34.951Z" style="fill:rgb(250,175,62);fill-rule:nonzero;"/>
            <path id="path19022" d="M10.096,41.19C10.181,40.863 10.512,40.806 11.268,40.806L17.677,40.806C17.946,40.806 18.436,40.715 18.648,40.87C19.011,41.135 18.824,42.211 18.824,42.619C18.824,43.296 18.823,43.974 18.824,44.652C18.825,45.508 18.318,45.391 17.605,45.391L12.012,45.391C11.577,45.391 10.576,45.453 10.382,45.353C9.915,45.109 10.053,44.457 10.053,44.023C10.053,43.104 9.871,42.063 10.096,41.19Z" style="fill:url(#_Linear15);fill-rule:nonzero;"/>
            <path id="path19024" d="M17.949,41.312L17.665,41.327L17.677,41.326L11.268,41.326C10.762,41.326 10.596,41.356 10.546,41.385C10.509,41.59 10.495,41.832 10.495,42.09C10.495,42.419 10.517,42.775 10.537,43.125L10.571,44.021L10.561,44.298C10.558,44.37 10.553,44.466 10.553,44.56C10.553,44.714 10.567,44.86 10.621,44.891C10.627,44.869 11.585,44.88 11.585,44.88L12.012,44.871L17.605,44.871L17.844,44.873C17.844,44.873 18.294,44.852 18.305,44.852C18.299,44.849 18.295,44.829 18.295,44.8C18.295,44.74 18.305,44.653 18.305,44.653L18.305,42.617L18.327,42.229C18.336,42.106 18.353,41.868 18.353,41.653C18.353,41.484 18.339,41.337 18.305,41.265C18.29,41.309 17.949,41.312 17.949,41.312Z" style="fill:rgb(250,175,62);fill-rule:nonzero;"/>
            <g id="g5081" transform="matrix(1.09222,0,0,1.09222,-9.96214,-2.45401)">
                <path id="path19031" d="M11.762,39.607L15.367,39.607C15.612,39.607 16.062,39.523 16.257,39.666C16.587,39.907 16.417,40.893 16.417,41.266C16.417,41.887 16.415,42.508 16.417,43.128C16.417,43.912 15.954,43.805 15.3,43.805L11.763,43.805L11.763,39.607L11.762,39.607Z" style="fill:url(#_Linear16);fill-rule:nonzero;"/>
                <path id="path19033" d="M15.615,40.07L15.355,40.083L15.366,40.082L12.236,40.082L12.236,43.329L15.299,43.329L15.518,43.332C15.518,43.332 15.93,43.312 15.941,43.311C15.934,43.309 15.932,43.291 15.932,43.265C15.932,43.211 15.942,43.129 15.942,43.129L15.942,41.265L15.961,40.911C15.97,40.797 15.985,40.579 15.985,40.383C15.985,40.229 15.972,40.094 15.94,40.027C15.926,40.068 15.615,40.07 15.615,40.07Z" style="fill:rgb(250,175,62);fill-rule:nonzero;"/>
            </g>
            <g id="g5087" transform="matrix(1.09222,0,0,1.09222,-9.02595,-2.45401)">
                <path id="path19040" d="M32.486,43.805L29.211,43.805C28.815,43.805 27.896,43.864 27.721,43.771C27.291,43.548 27.419,42.95 27.419,42.553C27.419,41.711 27.253,40.758 27.458,39.959C27.535,39.66 27.838,39.608 28.531,39.608L32.486,39.608L32.486,43.805Z" style="fill:url(#_Linear17);fill-rule:nonzero;"/>
                <path id="path19042" d="M28.531,40.084C28.068,40.084 27.916,40.113 27.869,40.138C27.836,40.325 27.824,40.545 27.824,40.784C27.824,41.083 27.844,41.411 27.861,41.731L27.894,42.553L27.884,42.806C27.88,42.872 27.876,42.961 27.876,43.047C27.876,43.187 27.889,43.32 27.939,43.348C27.944,43.329 28.82,43.338 28.82,43.338L29.211,43.33L32.012,43.33C32.012,42.678 32.011,40.735 32.011,40.084L28.531,40.084Z" style="fill:rgb(250,175,62);fill-rule:nonzero;"/>
            </g>
            <rect id="rect5037" x="2.52" y="8" width="24.029" height="4.369" style="fill:url(#_Linear18);"/>
            <rect id="rect19046" x="1.689" y="1.209" width="26.117" height="6.529" style="fill:url(#_Linear19);stroke:rgb(136,138,133);stroke-width:2px;"/>
        </g>
        <path id="BG1" serif:id="BG" d="M400,2C619.662,2 798,180.338 798,400C798,619.662 619.662,798 400,798C180.338,798 2,619.662 2,400C2,180.338 180.338,2 400,2ZM400,37C600.345,37 763,199.655 763,400C763,600.345 600.345,763 400,763C199.655,763 37,600.345 37,400C37,199.655 199.655,37 400,37Z"/>
    </g>
    <g id="Badge" transform="matrix(0.941581,0,0,0.941581,2,44.7354)">
        <circle cx="145.5" cy="654.5" r="145.5"/>
        <path d="M145.5,509C225.804,509 291,574.196 291,654.5C291,734.804 225.804,800 145.5,800C65.196,800 0,734.804 0,654.5C0,574.196 65.196,509 145.5,509ZM145.5,519.089C220.235,519.089 280.911,579.765 280.911,654.5C280.911,729.235 220.235,789.911 145.5,789.911C70.765,789.911 10.089,729.235 10.089,654.5C10.089,579.765 70.765,519.089 145.5,519.089Z" style="fill:white;"/>
        <g transform="matrix(0.956835,0,0,0.956835,1.76984,19.0057)">
            <path d="M153.1,689.8L177.08,726.98C184.56,738.64 188.74,746.12 192.92,754.04L251.22,754.04C241.98,742.82 235.82,734.9 228.78,725L180.16,656.8L221.52,598.72C229.22,587.72 234.5,580.9 242.42,571L185.88,571C182.36,579.36 178.62,585.96 169.82,599.82L153.32,625.56L136.6,600.04C128.68,587.94 123.84,579.14 120.32,571L63.34,571C71.48,580.68 78.08,589.26 84.9,599.16L126.04,657.02L77.64,725C71.26,733.8 66.86,739.52 54.98,754.04L113.28,754.04C118.78,743.92 123.4,736.22 129.34,726.98L153.1,689.8Z" style="fill:white;fill-rule:nonzero;"/>
        </g>
    </g>
    <defs>
        <radialGradient id="_Radial1" cx="0" cy="0" r="1" gradientUnits="userSpaceOnUse" gradientTransform="matrix(-9.8174,0,0,9.8174,352.807,1679)"><stop offset="0" style="stop-color:white;stop-opacity:1"/><stop offset="0.09" style="stop-color:rgb(249,250,250);stop-opacity:1"/><stop offset="0.21" style="stop-color:rgb(232,235,237);stop-opacity:1"/><stop offset="0.35" style="stop-color:rgb(204,210,215);stop-opacity:1"/><stop offset="0.5" style="stop-color:rgb(165,176,184);stop-opacity:1"/><stop offset="0.58" style="stop-color:rgb(142,156,166);stop-opacity:1"/><stop offset="1" style="stop-color:rgb(80,83,89);stop-opacity:1"/></radialGradient>
        <linearGradient id="_Linear2" x1="0" y1="0" x2="1" y2="0" gradientUnits="userSpaceOnUse" gradientTransform="matrix(2.44588e-15,39.9442,-39.9442,2.44588e-15,14.6763,7.28555)"><stop offset="0" style="stop-color:rgb(253,156,0);stop-opacity:1"/><stop offset="1" style="stop-color:rgb(206,92,0);stop-opacity:1"/></linearGradient>
        <linearGradient id="_Linear3" x1="0" y1="0" x2="1" y2="0" gradientUnits="userSpaceOnUse" gradientTransform="matrix(8.44715,4.33373,-4.33373,8.44715,4.95457,8.99775)"><stop offset="0" style="stop-color:rgb(250,175,62);stop-opacity:1"/><stop offset="1" style="stop-color:rgb(241,121,18);stop-opacity:1"/></linearGradient>
        <linearGradient id="_Linear4" x1="0" y1="0" x2="1" y2="0" gradientUnits="userSpaceOnUse" gradientTransform="matrix(8.30571,4.18955,-4.18955,8.30571,15.7461,9.19085)"><stop offset="0" style="stop-color:rgb(250,175,62);stop-opacity:1"/><stop offset="1" style="stop-color:rgb(241,121,18);stop-opacity:1"/></linearGradient>
        <linearGradient id="_Linear5" x1="0" y1="0" x2="1" y2="0" gradientUnits="userSpaceOnUse" gradientTransform="matrix(8.30702,4.41062,-4.41062,8.30702,10.1799,15.3602)"><stop offset="0" style="stop-color:rgb(250,175,62);stop-opacity:1"/><stop offset="1" style="stop-color:rgb(241,121,18);stop-opacity:1"/></linearGradient>
        <linearGradient id="_Linear6" x1="0" y1="0" x2="1" y2="0" gradientUnits="userSpaceOnUse" gradientTransform="matrix(4.3292,4.1419,-4.1419,4.3292,3.632,22.0107)"><stop offset="0" style="stop-color:rgb(250,175,62);stop-opacity:1"/><stop offset="1" style="stop-color:rgb(241,121,18);stop-opacity:1"/></linearGradient>
        <linearGradient id="_Linear7" x1="0" y1="0" x2="1" y2="0" gradientUnits="userSpaceOnUse" gradientTransform="matrix(4.4421,4.173,-4.173,4.4421,27.7749,16.2176)"><stop offset="0" style="stop-color:rgb(250,175,62);stop-opacity:1"/><stop offset="1" style="stop-color:rgb(241,121,18);stop-opacity:1"/></linearGradient>
        <linearGradient id="_Linear8" x1="0" y1="0" x2="1" y2="0" gradientUnits="userSpaceOnUse" gradientTransform="matrix(8.23297,4.18999,-4.18999,8.23297,5.40358,21.969)"><stop offset="0" style="stop-color:rgb(250,175,62);stop-opacity:1"/><stop offset="1" style="stop-color:rgb(241,121,18);stop-opacity:1"/></linearGradient>
        <linearGradient id="_Linear9" x1="0" y1="0" x2="1" y2="0" gradientUnits="userSpaceOnUse" gradientTransform="matrix(8.40838,4.08994,-4.08994,8.40838,15.6005,21.9189)"><stop offset="0" style="stop-color:rgb(250,175,62);stop-opacity:1"/><stop offset="1" style="stop-color:rgb(241,121,18);stop-opacity:1"/></linearGradient>
        <linearGradient id="_Linear10" x1="0" y1="0" x2="1" y2="0" gradientUnits="userSpaceOnUse" gradientTransform="matrix(8.05351,4.35666,-4.35666,8.05351,10.4962,28.213)"><stop offset="0" style="stop-color:rgb(250,175,62);stop-opacity:1"/><stop offset="1" style="stop-color:rgb(241,121,18);stop-opacity:1"/></linearGradient>
        <linearGradient id="_Linear11" x1="0" y1="0" x2="1" y2="0" gradientUnits="userSpaceOnUse" gradientTransform="matrix(4.2638,4.2513,-4.2513,4.2638,11.8189,27.9003)"><stop offset="0" style="stop-color:rgb(250,175,62);stop-opacity:1"/><stop offset="1" style="stop-color:rgb(241,121,18);stop-opacity:1"/></linearGradient>
        <linearGradient id="_Linear12" x1="0" y1="0" x2="1" y2="0" gradientUnits="userSpaceOnUse" gradientTransform="matrix(4.8369,4.1853,-4.1853,4.8369,27.6705,27.9462)"><stop offset="0" style="stop-color:rgb(250,175,62);stop-opacity:1"/><stop offset="1" style="stop-color:rgb(241,121,18);stop-opacity:1"/></linearGradient>
        <linearGradient id="_Linear13" x1="0" y1="0" x2="1" y2="0" gradientUnits="userSpaceOnUse" gradientTransform="matrix(8.59668,3.83895,-3.83895,8.59668,5.03671,34.7791)"><stop offset="0" style="stop-color:rgb(250,175,62);stop-opacity:1"/><stop offset="1" style="stop-color:rgb(241,121,18);stop-opacity:1"/></linearGradient>
        <linearGradient id="_Linear14" x1="0" y1="0" x2="1" y2="0" gradientUnits="userSpaceOnUse" gradientTransform="matrix(8.30615,3.96936,-3.96936,8.30615,15.7675,34.7589)"><stop offset="0" style="stop-color:rgb(250,175,62);stop-opacity:1"/><stop offset="1" style="stop-color:rgb(241,121,18);stop-opacity:1"/></linearGradient>
        <linearGradient id="_Linear15" x1="0" y1="0" x2="1" y2="0" gradientUnits="userSpaceOnUse" gradientTransform="matrix(8.1197,4.22505,-4.22505,8.1197,10.4568,40.9976)"><stop offset="0" style="stop-color:rgb(250,175,62);stop-opacity:1"/><stop offset="1" style="stop-color:rgb(241,121,18);stop-opacity:1"/></linearGradient>
        <linearGradient id="_Linear16" x1="0" y1="0" x2="1" y2="0" gradientUnits="userSpaceOnUse" gradientTransform="matrix(3.9033,4.1056,-4.1056,3.9033,11.98,39.5995)"><stop offset="0" style="stop-color:rgb(250,175,62);stop-opacity:1"/><stop offset="1" style="stop-color:rgb(241,121,18);stop-opacity:1"/></linearGradient>
        <linearGradient id="_Linear17" x1="0" y1="0" x2="1" y2="0" gradientUnits="userSpaceOnUse" gradientTransform="matrix(4.5087,4.5086,-4.5086,4.5087,27.9195,39.5243)"><stop offset="0" style="stop-color:rgb(250,175,62);stop-opacity:1"/><stop offset="1" style="stop-color:rgb(241,121,18);stop-opacity:1"/></linearGradient>
        <linearGradient id="_Linear18" x1="0" y1="0" x2="1" y2="0" gradientUnits="userSpaceOnUse" gradientTransform="matrix(0.162358,4.3689,-4.3689,0.162358,13.3984,8)"><stop offset="0" style="stop-color:rgb(46,52,54);stop-opacity:1"/><stop offset="1" style="stop-color:rgb(46,52,54);stop-opacity:0"/></linearGradient>
        <linearGradient id="_Linear19" x1="0" y1="0" x2="1" y2="0" gradientUnits="userSpaceOnUse" gradientTransform="matrix(14.8879,4.60742,-4.60742,14.8879,8.50642,1.63761)"><stop offset="0" style="stop-color:white;stop-opacity:1"/><stop offset="1" style="stop-color:rgb(208,248,255);stop-opacity:1"/></linearGradient>
    </defs>
</svg>
