<?xml version="1.0" encoding="UTF-8" standalone="no"?>
<!DOCTYPE svg PUBLIC "-//W3C//DTD SVG 1.1//EN" "http://www.w3.org/Graphics/SVG/1.1/DTD/svg11.dtd">
<svg width="100%" height="100%" viewBox="0 0 800 800" version="1.1" xmlns="http://www.w3.org/2000/svg" xmlns:xlink="http://www.w3.org/1999/xlink" xml:space="preserve" xmlns:serif="http://www.serif.com/" style="fill-rule:evenodd;clip-rule:evenodd;stroke-linejoin:round;stroke-miterlimit:2;">
    <g id="NUKE">
        <g transform="matrix(1.10191,0,0,1.10191,-40.7643,-40.7643)">
            <circle cx="400" cy="400" r="314" style="fill:rgb(255,177,0);"/>
        </g>
        <g transform="matrix(1.51766,0,0,1.51766,-237.107,-11.8618)">
            <g transform="matrix(0.1,0,0,-0.1,0,542)">
                <path d="M4105,4773C3663,4752 3243,4592 2900,4317C2478,3978 2207,3491 2140,2950C2127,2841 2127,2569 2140,2460C2236,1690 2750,1036 3473,766C4162,509 4953,643 5515,1112C6324,1787 6504,2953 5933,3830C5748,4113 5491,4353 5200,4514C4870,4697 4472,4791 4105,4773ZM4942,4436C5153,4349 5426,4151 5591,3965C5776,3757 5970,3408 5970,3284C5970,3242 5938,3203 5892,3190C5871,3185 5741,3180 5590,3180C5358,3180 5321,3178 5291,3162C5225,3129 5218,3109 5212,2942C5207,2774 5217,2697 5257,2612C5275,2573 5349,2488 5543,2284C5687,2132 5813,1993 5822,1976C5852,1922 5846,1842 5806,1766C5694,1552 5459,1301 5221,1142C5045,1024 4721,888 4656,904C4622,912 4594,944 4586,982C4583,999 4594,1290 4611,1629C4628,1968 4640,2274 4637,2310C4630,2414 4599,2469 4464,2615C4246,2852 4009,3095 3967,3123C3945,3138 3898,3159 3862,3170C3801,3189 3768,3190 3156,3190C2746,3190 2502,3194 2478,3200C2433,3213 2410,3243 2410,3288C2410,3363 2524,3603 2642,3778C2807,4023 3184,4339 3379,4396C3439,4414 3485,4410 3535,4383C3553,4373 3683,4244 3824,4096C3964,3948 4098,3814 4121,3798C4198,3747 4277,3729 4460,3724C4716,3716 4711,3709 4734,4112C4745,4314 4753,4387 4765,4410C4793,4465 4852,4473 4942,4436Z" style="fill-rule:nonzero;"/>
            </g>
            <g transform="matrix(0.1,0,0,-0.1,0,542)">
                <path d="M4481,3490C4395,3470 4358,3410 4362,3299C4365,3236 4371,3212 4402,3149C4507,2937 4758,2805 4897,2890C5024,2967 4992,3190 4831,3351C4759,3424 4677,3471 4592,3489C4533,3501 4529,3501 4481,3490Z" style="fill-rule:nonzero;"/>
            </g>
        </g>
    </g>
    <g id="Badge" transform="matrix(0.941581,0,0,0.941581,2,44.7354)">
        <circle cx="145.5" cy="654.5" r="145.5"/>
        <path d="M145.5,509C225.804,509 291,574.196 291,654.5C291,734.804 225.804,800 145.5,800C65.196,800 0,734.804 0,654.5C0,574.196 65.196,509 145.5,509ZM145.5,519.089C220.235,519.089 280.911,579.765 280.911,654.5C280.911,729.235 220.235,789.911 145.5,789.911C70.765,789.911 10.089,729.235 10.089,654.5C10.089,579.765 70.765,519.089 145.5,519.089Z" style="fill:white;"/>
        <g transform="matrix(0.956835,0,0,0.956835,1.76984,19.0057)">
            <path d="M153.1,689.8L177.08,726.98C184.56,738.64 188.74,746.12 192.92,754.04L251.22,754.04C241.98,742.82 235.82,734.9 228.78,725L180.16,656.8L221.52,598.72C229.22,587.72 234.5,580.9 242.42,571L185.88,571C182.36,579.36 178.62,585.96 169.82,599.82L153.32,625.56L136.6,600.04C128.68,587.94 123.84,579.14 120.32,571L63.34,571C71.48,580.68 78.08,589.26 84.9,599.16L126.04,657.02L77.64,725C71.26,733.8 66.86,739.52 54.98,754.04L113.28,754.04C118.78,743.92 123.4,736.22 129.34,726.98L153.1,689.8Z" style="fill:white;fill-rule:nonzero;"/>
        </g>
    </g>
</svg>
