<?xml version="1.0" encoding="UTF-8" standalone="no"?>
<!DOCTYPE svg PUBLIC "-//W3C//DTD SVG 1.1//EN" "http://www.w3.org/Graphics/SVG/1.1/DTD/svg11.dtd">
<svg width="100%" height="100%" viewBox="0 0 800 800" version="1.1" xmlns="http://www.w3.org/2000/svg" xmlns:xlink="http://www.w3.org/1999/xlink" xml:space="preserve" xmlns:serif="http://www.serif.com/" style="fill-rule:evenodd;clip-rule:evenodd;stroke-linejoin:round;stroke-miterlimit:2;">
    <g id="Render-Region" serif:id="Render Region">
        <g id="BG">
            <circle cx="400" cy="400" r="398" style="fill:white;"/>
            <path d="M400,2C619.662,2 798,180.338 798,400C798,619.662 619.662,798 400,798C180.338,798 2,619.662 2,400C2,180.338 180.338,2 400,2ZM400,37C600.345,37 763,199.655 763,400C763,600.345 600.345,763 400,763C199.655,763 37,600.345 37,400C37,199.655 199.655,37 400,37Z"/>
        </g>
        <g>
            <g transform="matrix(1.15091,0,0,1.11968,-104.672,-46.1907)">
                <path d="M687,275.25C687,207.226 633.272,152 567.094,152L309.906,152C243.728,152 190,207.226 190,275.25L190,521.75C190,589.774 243.728,645 309.906,645L567.094,645C633.272,645 687,589.774 687,521.75L687,275.25Z" style="fill:rgb(230,230,230);"/>
            </g>
            <g transform="matrix(1,0,0,1,37,43)">
                <circle cx="515.5" cy="499.5" r="99.5" style="fill:rgb(255,106,126);"/>
            </g>
            <g transform="matrix(1,0,0,1.47196,93.5,-261.785)">
                <path d="M247.25,400L343,614L151.5,614L247.25,400Z" style="fill:rgb(65,184,64);"/>
            </g>
        </g>
        <g transform="matrix(0.831956,0,0,0.831956,24.3719,82.8168)">
            <path d="M657.04,566.54L657.04,195.96L245.96,195.96L245.96,566.54L657.04,566.54ZM633,220L270,220L270,542.5L633,542.5L633,220Z" style="fill:rgb(255,24,24);"/>
        </g>
    </g>
    <g id="Badge" transform="matrix(0.941581,0,0,0.941581,2,44.7354)">
        <circle cx="145.5" cy="654.5" r="145.5"/>
        <path d="M145.5,509C225.804,509 291,574.196 291,654.5C291,734.804 225.804,800 145.5,800C65.196,800 0,734.804 0,654.5C0,574.196 65.196,509 145.5,509ZM145.5,519.089C220.235,519.089 280.911,579.765 280.911,654.5C280.911,729.235 220.235,789.911 145.5,789.911C70.765,789.911 10.089,729.235 10.089,654.5C10.089,579.765 70.765,519.089 145.5,519.089Z" style="fill:white;"/>
        <g transform="matrix(0.956835,0,0,0.956835,1.76984,19.0057)">
            <path d="M153.1,689.8L177.08,726.98C184.56,738.64 188.74,746.12 192.92,754.04L251.22,754.04C241.98,742.82 235.82,734.9 228.78,725L180.16,656.8L221.52,598.72C229.22,587.72 234.5,580.9 242.42,571L185.88,571C182.36,579.36 178.62,585.96 169.82,599.82L153.32,625.56L136.6,600.04C128.68,587.94 123.84,579.14 120.32,571L63.34,571C71.48,580.68 78.08,589.26 84.9,599.16L126.04,657.02L77.64,725C71.26,733.8 66.86,739.52 54.98,754.04L113.28,754.04C118.78,743.92 123.4,736.22 129.34,726.98L153.1,689.8Z" style="fill:white;fill-rule:nonzero;"/>
        </g>
    </g>
</svg>
