<?xml version="1.0" encoding="UTF-8" standalone="no"?>
<!DOCTYPE svg PUBLIC "-//W3C//DTD SVG 1.1//EN" "http://www.w3.org/Graphics/SVG/1.1/DTD/svg11.dtd">
<svg width="100%" height="100%" viewBox="0 0 800 800" version="1.1" xmlns="http://www.w3.org/2000/svg" xmlns:xlink="http://www.w3.org/1999/xlink" xml:space="preserve" xmlns:serif="http://www.serif.com/" style="fill-rule:evenodd;clip-rule:evenodd;stroke-linejoin:round;stroke-miterlimit:2;">
    <g id="Renderbot">
        <g id="BG">
            <circle cx="400" cy="400" r="398" style="fill:white;"/>
            <path d="M400,2C619.662,2 798,180.338 798,400C798,619.662 619.662,798 400,798C180.338,798 2,619.662 2,400C2,180.338 180.338,2 400,2ZM400,37C600.345,37 763,199.655 763,400C763,600.345 600.345,763 400,763C199.655,763 37,600.345 37,400C37,199.655 199.655,37 400,37Z"/>
        </g>
        <g transform="matrix(0.436284,0,0,0.427446,151.224,41.5804)">
            <path d="M690,9C690,9.5 688.6,10 687,10C685.3,10 683.2,10.4 682.2,10.9C681.3,11.4 678.3,12.8 675.5,14.1C669.5,17 667.9,18.2 662,24C656.3,29.7 654.9,31.7 650.6,39.5C650,40.6 649.3,41.7 649,42C648.7,42.3 647.5,45.5 646.2,49.1C643.5,57.2 643.2,70.1 645.6,77C647.7,83 652.2,92 653.2,92C653.6,92 654,92.6 654,93.4C654,94.1 655.4,96.1 657,97.8C658.7,99.6 660,101.4 660,101.8C660,102.3 661.2,104 662.8,105.7C665.4,108.5 666.9,110.7 669,115C669.6,116.1 670.5,117.9 671,119C671.6,120.1 672,123.9 672,127.4C672,131 671.6,134.2 671,134.5C670.5,134.8 670,136.6 670,138.4C670,140.1 669.6,142 669.1,142.5C667.7,144 665.8,163.7 664,196.5C662.7,218.7 662,226.2 658,256C654.6,281.1 652.8,297.4 650,326.5C648.2,345.4 647.8,348 646.9,348C646.4,348 646,349.3 646,351C646,352.6 645.6,354 645,354C644.5,354 644,354.6 644,355.2C644,357.9 636.7,364.1 631.8,365.7C630.8,366 630,366.6 630,367.1C630,367.6 629.4,368 628.8,368C628.1,368 626.2,369.1 624.6,370.5C623,371.9 621.3,373 620.9,373C620.5,373 618.3,374.8 616,377C613.7,379.2 611.5,381 611,381C610.6,381 606,385.2 600.8,390.3C595.6,395.4 589.8,400.7 587.9,402C586,403.4 583.6,405.2 582.6,406.2C581.5,407.2 580,408 579.3,408C578.6,408 578,408.4 578,409C578,409.5 577.1,410 576,410C574.9,410 574,410.4 574,411C574,411.5 573.1,412 572,412C570.9,412 570,412.4 570,413C570,413.5 569.1,414 568.1,414C567,414 565.8,414.4 565.5,415C565.2,415.5 563.8,416 562.4,416C561.1,416 560,416.4 560,417C560,417.5 558.9,418 557.6,418C556.2,418 554.8,418.4 554.5,419C554.2,419.5 552.6,420 551,420C549.4,420 547.8,420.4 547.5,421C547.2,421.5 545.6,422 544,422C542.4,422 540.8,422.4 540.5,423C540.2,423.5 538.6,424 537,424C535.4,424 533.8,424.4 533.5,425C533.2,425.5 531.8,426 530.5,426C529.2,426 527.8,426.4 527.5,427C527.2,427.5 525.8,428 524.5,428C523.2,428 521.8,428.4 521.5,429C521.2,429.5 519.8,430 518.4,430C517.1,430 516,430.4 516,430.8C516,431.3 513.8,432.3 511,433C508.3,433.7 506,434.7 506,435.2C506,435.6 505.1,436 504,436C502.9,436 502,436.4 502,437C502,437.5 501.3,438 500.5,438C499.2,438 479.1,447.8 478,449C477.1,449.9 471.5,453.1 469.8,453.7C468.8,454 468,454.6 468,455.1C468,455.6 467.4,456 466.7,456C466,456 464.4,456.9 463.2,458C462,459.1 460.7,460 460.2,460C459.8,460 458.5,460.8 457.4,461.8C456.4,462.8 453.9,464.6 452,466C450.1,467.3 448.3,468.7 448,469C447.7,469.3 446,470.6 444.2,471.9C436,477.6 404,509.4 404,511.8C404,512.2 402.2,514.6 400,517C397.8,519.4 396,521.8 396,522.3C396,522.7 394.9,524.2 393.6,525.5C392.2,526.8 390.9,528.9 390.5,530C390.2,531.1 389.5,532 389.1,532C388.6,532 387.7,533.3 387,535C386.3,536.6 385.4,538 384.9,538C384.4,538 384,538.6 384,539.3C384,540 383.1,541.6 382,542.8C380.9,544 380,545.6 380,546.5C380,547.3 379.7,548 379.3,548C378.8,548 378,549 377.4,550.3C376.7,551.5 374.4,556.1 372.1,560.5C369.9,564.9 368,569.3 368,570.2C368,571.2 367.6,572 367.2,572C366.7,572 365.7,574.3 365,577.1C364.2,579.8 363.2,582.3 362.8,582.6C362.4,582.9 362,584.2 362,585.6C362,586.9 361.6,588 361,588C360.5,588 360,589.3 360,590.9C360,592.6 359.6,594.2 359,594.5C358.5,594.8 358,596.4 358,598C358,599.6 357.6,601.2 357,601.5C356.4,601.8 356,603.4 356,605C356,606.6 355.5,608.2 355,608.5C354.5,608.8 354,610.7 354,612.6C354,614.5 353.6,616 353,616C352.5,616 352,617.8 352,620C352,622.2 351.6,624 351.1,624C350.6,624 349.9,625.9 349.6,628.2C348.3,638.5 347.7,641 346.9,641.6C346.4,641.9 346,644.1 346,646.5C346,648.9 345.5,651.2 345,651.5C344.4,651.8 344,654.3 344,656.9C344,659.5 343.6,662 343.1,662.6C342.6,663.1 341.9,665.7 341.6,668.5C341.3,671.2 340.6,676.6 340,680.5C337.4,697.8 335.8,710.1 334,726C333.2,733.8 332.6,739.9 330,767C328.8,779.9 327.1,797.3 326.4,804.2C326.1,807.3 325.3,810.3 324.7,810.8C324,811.2 317.4,813.6 310,816C302.6,818.4 296.1,820.7 295.5,821.2C295,821.6 293.6,822 292.3,822C291,822 290,822.4 290,822.8C290,823.3 287.8,824.3 285,825C282.2,825.7 280,826.6 280,827C280,827.4 277.7,828.3 275,829C272.2,829.7 270,830.7 270,831.2C270,831.6 269.4,832 268.7,832C268,832 265.5,832.9 263.2,834C261,835.1 258.4,836 257.5,836C256.7,836 256,836.4 256,837C256,837.5 255.1,838 254,838C252.9,838 252,838.4 252,839C252,839.5 251.1,840 250,840C248.9,840 248,840.4 248,841C248,841.5 247.1,842 246,842C244.9,842 244,842.4 244,843C244,843.5 243.4,844 242.6,844C240.9,844 232.6,848.2 232.2,849.2C232,849.7 231,850 229.9,850C228.9,850 228,850.4 228,851C228,851.5 227.1,852 226,852C224.9,852 224,852.4 224,853C224,853.5 223.1,854 222,854C220.9,854 220,854.3 220,854.7C220,855.2 217.7,856.6 215,857.9C212.2,859.3 210,860.8 210,861.2C210,861.6 209.1,862 208,862C206.9,862 206,862.4 206,862.9C206,863.4 205.2,864 204.3,864.3C202.2,865 197.1,868 195.3,869.7C194.6,870.3 193.1,871.2 192,871.5C190.9,871.8 190,872.6 190,873.1C190,873.6 189.4,874 188.7,874C188,874 186.4,874.9 185.2,876C184,877.1 182.7,878 182.3,878C181.9,878 179.9,879.4 178,881C176.1,882.6 174,884 173.5,884C172.9,884 171.8,884.9 171,886C170.2,887.1 169.1,888 168.5,888C167.9,888 165.7,889.6 163.6,891.5C161.5,893.4 159.4,895 158.9,895C158.4,895 156.6,896.5 154.8,898.2C153,900 149.8,902.8 147.7,904.4C142.5,908.2 123.1,927.6 120,932C118.6,933.9 116.3,936.8 114.8,938.4C113.2,940 112,941.8 112,942.4C112,943 111.1,944.2 110,945C108.9,945.8 108,947 108,947.8C108,948.5 107.1,950 106,951.2C104.9,952.4 104,954 104,954.7C104,955.4 103.6,956 103,956C102.5,956 102,956.9 102,958C102,959.1 101.6,960 101,960C100.5,960 100,960.9 100,962C100,963.1 99.6,964 99.2,964C98.8,964 97.8,966.1 97.1,968.7C96.3,971.4 95.3,974.2 95,975C93.5,978.1 92,983.7 92,986.1C92,987.5 91.6,989 91.1,989.6C90.6,990.1 89.9,993 89.6,996C89.3,999 88.5,1005.3 87.9,1010C85.5,1027.6 86.5,1060.7 90,1078C90.6,1081 91.3,1085 91.7,1086.7C92,1088.5 92.6,1090 93.1,1090C93.6,1090 94,1091.3 94,1093C94,1094.6 94.5,1096 95,1096C95.6,1096 96,1096.9 96,1098C96,1099.1 96.5,1100 97,1100C97.6,1100 98,1100.9 98,1102C98,1103.1 98.5,1104 99,1104C99.6,1104 100,1104.9 100,1106C100,1107.1 100.5,1108 101,1108C101.6,1108 102,1108.6 102,1109.3C102,1110 102.9,1111.6 104,1112.8C105.1,1114 106,1115.6 106,1116.5C106,1117.3 106.4,1118 106.8,1118C107.2,1118 108.4,1119.4 109.4,1121C110.3,1122.7 112.1,1125.1 113.3,1126.3C114.5,1127.5 116.8,1130.2 118.4,1132.3C122,1137.2 126.8,1142 131.7,1145.6C133.7,1147.2 136.8,1149.7 138.4,1151.2C140,1152.8 141.7,1154 142.3,1154C142.8,1154 144,1154.8 144.9,1155.7C145.8,1156.7 147.4,1158 148.5,1158.6C153.5,1161.3 155.5,1162.5 156,1163C157.1,1164.1 169.4,1170 170.6,1170C171.4,1170 172,1170.4 172,1171C172,1171.5 172.7,1172 173.5,1172C174.3,1172 175.8,1172.4 176.8,1172.9C179.1,1174.1 182.8,1175.5 187,1177C188.9,1177.7 191.4,1178.5 192.5,1179C197.3,1180.8 201.8,1182 203.8,1182C204.9,1182 206.2,1182.4 206.5,1183C206.8,1183.5 208.6,1184 210.5,1184C212.4,1184 214.1,1184.4 214.4,1184.9C214.9,1185.7 217.4,1186.2 227.5,1187.6C229.7,1187.9 232.4,1188.5 233.5,1189C234.6,1189.5 238,1190.1 241,1190.4C244,1190.7 250.1,1191.4 254.5,1192C267.5,1193.6 281.9,1195 291,1195.6C304,1196.4 303.6,1195.9 304.4,1210.9C306.6,1252.6 307.8,1267.1 309.1,1268.4C309.6,1269 310,1270.4 310,1271.7C310,1273 310.5,1274 311,1274C311.6,1274 312,1274.7 312,1275.5C312,1277.5 316.5,1282 318.5,1282C319.3,1282 320,1282.4 320,1283C320,1283.5 320.9,1284 321.9,1284C323,1284 324,1284.4 324.2,1284.8C324.3,1285.2 327,1286.4 330,1287.4C340.9,1291 350.5,1292.9 364,1294C380.1,1295.3 388.4,1297.1 396.2,1301.1C397.2,1301.6 398.9,1302 400,1302C401.1,1302 402,1302.4 402,1303C402,1303.5 402.9,1304 404.1,1304L406.1,1304L405.6,1358.2C405,1419.9 403.6,1445.9 400.9,1447.6C400.4,1447.9 400,1448.9 400,1449.8C399.9,1450.7 397.7,1453.7 395,1456.5C392.2,1459.2 390,1461.9 390,1462.3C390,1462.8 389.3,1463.8 388.5,1464.7C387.6,1465.5 386.6,1467.5 386.3,1469.1C386,1470.7 385.4,1472 384.9,1472C384.4,1472 384,1473.3 384,1474.8C384,1476.3 383.6,1478 383.1,1478.5C382.6,1479.1 381.9,1481.7 381.6,1484.5C381.2,1487.2 380.5,1492.6 380,1496.5C378.6,1506.6 377,1523.1 374.4,1555.2C373.8,1563.3 374.8,1566 378.4,1566C379.3,1566 380,1566.4 380,1567C380,1567.5 380.9,1568 382,1568C383.1,1568 384,1568.4 384,1569C384,1569.5 384.7,1570 385.5,1570C386.3,1570 387.9,1570.4 389,1571C390.1,1571.5 391.9,1572.4 393,1573C394.1,1573.5 395.7,1574 396.5,1574C397.3,1574 398,1574.4 398,1575C398,1575.5 399,1576 400.3,1576C401.6,1576 403,1576.4 403.6,1576.8C404.1,1577.2 406.3,1578.2 408.5,1578.9C410.7,1579.6 413.4,1580.5 414.5,1581C415.6,1581.4 418.5,1582.3 421,1583C423.5,1583.7 426.4,1584.6 427.5,1585C428.6,1585.5 430.9,1586.1 432.5,1586.5C434.2,1586.8 437.3,1587.6 439.5,1588.1C441.7,1588.7 445.2,1589.4 447.3,1589.7C449.3,1590 451.3,1590.6 451.6,1591.1C451.9,1591.6 454.3,1592 457,1592C459.7,1592 462.2,1592.4 462.5,1593C462.8,1593.5 465.3,1594 467.9,1594C470.5,1594 473,1594.4 473.6,1594.9C474.1,1595.4 477.4,1596.1 481,1596.4C484.6,1596.7 491.6,1597.4 496.5,1598C532.3,1602.2 565.3,1603.4 645,1603.4C738.7,1603.3 808,1600.8 816.5,1597C817.6,1596.5 819.9,1595.9 821.5,1595.6C823.2,1595.4 826.5,1594.6 829,1594C831.5,1593.4 835,1592.6 836.8,1592.3C838.5,1592 840,1591.4 840,1590.9C840,1590.4 841,1590 842.2,1590C844.5,1590 850.3,1588.4 853.2,1586.9C854.2,1586.4 856.1,1586 857.5,1586C858.9,1586 860,1585.5 860,1585C860,1584.4 861.1,1584 862.4,1584C863.8,1584 865.2,1583.5 865.5,1583C865.8,1582.4 867.2,1582 868.5,1582C869.8,1582 871.1,1581.6 871.4,1581.2C871.7,1580.8 874.2,1579.8 877,1579C879.8,1578.2 882.3,1577.2 882.6,1576.8C882.9,1576.4 884.2,1576 885.6,1576C886.9,1576 888,1575.6 888,1575.2C888,1574.7 890.3,1573.7 893,1573C895.8,1572.3 898,1571.4 898,1571C898,1570.6 900.3,1569.7 903,1569C905.8,1568.3 908,1567.3 908,1566.8C908,1566.4 908.6,1566 909.3,1566C910.5,1566 917.3,1563.1 921.2,1561C922.2,1560.4 923.7,1560 924.5,1560C925.3,1560 926,1559.5 926,1559C926,1558.4 926.9,1558 928,1558C929.1,1558 930,1557.5 930,1557C930,1556.4 930.9,1556 932,1556C933.1,1556 934,1555.5 934,1555C934,1554.4 934.9,1554 936,1554C937.1,1554 938,1553.6 938,1553.1C938,1552.6 938.8,1552 939.8,1551.7C941.5,1551.1 947,1548 948,1547C948.3,1546.7 949.7,1545.9 951.3,1545.1C952.8,1544.3 954,1543.3 954,1542.8C954,1542.4 954.6,1542 955.4,1542C957.3,1542 968,1531.3 968,1529.4C968,1528.6 968.5,1528 969,1528C969.6,1528 970,1526.6 970,1525C970,1523.3 970.4,1522 970.9,1522C971.9,1522 972.5,1518.2 974.1,1503C975.3,1491.2 976.6,1432.6 978,1333.5C978.6,1291.7 979.5,1229.6 980,1195.5C980.5,1161.4 981.2,1110.8 981.5,1083C981.8,1055.2 982.2,1027.8 982.5,1022C983.7,994.4 985.3,861.3 985.4,791.5C985.4,707.2 984.7,687.3 980.5,646C980.1,642.4 979.4,639.1 978.9,638.5C978.4,638 978,635.7 978,633.4C978,631 977.6,628.8 977,628.5C976.5,628.2 976,626.1 976,624C976,621.9 975.6,619.8 975,619.5C974.5,619.2 974,617.6 974,615.9C974,614.3 973.6,612.2 973.1,611.2C972.6,610.3 971.7,607.5 971,605C970.3,602.5 969.4,599.7 968.9,598.8C968.4,597.8 968,595.9 968,594.5C968,593.1 967.6,592 967,592C966.5,592 966,590.6 966,589C966,587.3 965.6,586 965,586C964.5,586 964,585.1 964,584C964,582.9 963.6,581.1 963,580C962.5,578.9 961.6,577.1 961,576C960.5,574.9 960,573.1 960,572C960,570.9 959.6,570 959,570C958.5,570 958,569.1 958,568C958,566.9 957.6,566 957,566C956.5,566 956,565.1 956,564C956,562.9 955.1,560.5 954,558.5C952.9,556.5 952,554.3 952,553.5C952,552.7 951.6,552 951,552C950.5,552 950,551.1 950,550C950,548.9 949.6,548 949,548C948.5,548 948,547.1 948,546C948,544.9 947.7,544 947.3,544C946.8,544 945.4,541.7 944.1,539C942.7,536.2 941.2,534 940.8,534C940.4,534 940,533.1 940,532C940,530.9 939.6,530 939.2,530C938.7,530 937.7,528.8 936.9,527.2C936.1,525.7 934.7,523.6 933.8,522.6C932.8,521.5 932,520.1 932,519.5C932,518.9 931.1,517.8 930,517C928.9,516.2 928,515 928,514.4C928,513.8 926.8,512 925.2,510.4C923.7,508.8 921.4,505.9 920,504C916.7,499.4 898.5,481.2 894,478C892.1,476.7 889.8,474.9 889,474C888.2,473.1 885.9,471.3 884,470C882.1,468.6 879.6,466.8 878.6,465.8C877.5,464.8 876.2,464 875.8,464C875.3,464 874,463.1 872.8,462C871.6,460.9 870,460 869.3,460C868.6,460 868,459.6 868,459.1C868,458.6 866.7,457.7 865,457C863.4,456.3 862,455.4 862,454.9C862,454.4 861.1,454 860,454C858.9,454 858,453.6 858,453.2C858,452.8 855.8,451.3 853,449.9C850.3,448.6 848,447.2 848,446.7C848,446.3 847.1,446 846,446C844.9,446 844,445.5 844,445C844,444.4 843.1,444 842,444C840.9,444 840,443.5 840,443C840,442.4 839.1,442 838.1,442C837,442 836,441.7 835.8,441.2C835.4,440.3 830.1,437.1 827.8,436.3C826.8,436 826,435.4 826,434.9C826,434.4 825.1,434 824,434C822.9,434 822,433.6 822,433.2C822,432.7 820.8,431.7 819.3,430.9C817.7,430.1 815.6,428.7 814.6,427.7C813.5,426.8 812.2,426 811.8,426C811.3,426 809.8,424.9 808.5,423.6C807.1,422.2 804.7,420.4 803.1,419.4C801.5,418.5 799.1,416 797.9,413.9C796.6,411.8 795.2,410 794.8,410C794.3,410 794,409.4 794,408.6C794,407.9 792.8,406 791.3,404.4C789.7,402.8 787.2,399.7 785.5,397.5C782.1,392.9 775,385.9 770,382.1C764.8,378.2 756,368.9 756,367.4C756,366.6 755.6,366 755,366C754.5,366 754,365.1 754,364C754,362.9 753.6,362 753,362C752.5,362 752,361 752,359.7C752,358.4 751.6,357 751.1,356.5C749.6,354.9 748,337.2 746,302.5C742.8,246 740.5,208.4 737.9,169.5C736.6,150.3 736.4,117.7 737.5,111.2C737.9,108.9 738.6,106.7 739.1,106.4C739.6,106.1 740,105 740,103.9C740,102.9 740.5,102 741,102C741.6,102 742,101.1 742,100C742,98.9 742.5,98 743,98C743.6,98 744,97.1 744,96C744,94.9 744.3,94 744.8,94C745.2,94 746,93 746.6,91.7C747.2,90.5 749.1,86.9 750.9,83.6C752.6,80.4 754,77 754,76C754,75 754.5,74 755,73.8C757.7,72.9 755.6,46 752.8,46C752.4,46 752,45.1 752,44C752,42.9 751.6,42 751,42C750.5,42 750,41.1 750,40C750,38.9 749.6,38 749,38C748.5,38 748,37.4 748,36.7C748,36 747.2,34.5 746.2,33.4C745.2,32.4 743.3,29.9 742,28C739,23.6 738.3,23 734,20C732.1,18.7 730.3,17.3 730,17C729,15.9 720.8,12 719.4,12C718.6,12 718,11.5 718,11C718,10.4 716.5,10 714.6,10C712.7,10 710.8,9.5 710.5,9C710.2,8.4 705.5,8 699.9,8C694,8 690,8.4 690,9Z" style="fill:rgb(152,194,214);"/>
            <path d="M342.275,830.387C350.2,830.675 358.9,831.25 362.5,831.9C365.8,832.4 371,833.4 374,834C377,834.6 381.2,835.4 383.3,835.7C385.3,836 387.3,836.6 387.6,837.1C387.9,837.6 389.6,838 391.5,838C393.4,838 395.2,838.4 395.5,839C395.8,839.5 397.6,840 399.5,840C401.4,840 403.2,840.4 403.5,841C403.8,841.5 405.9,842 408.1,842C410.2,842 412,842.4 412,843C412,843.5 413.8,844 415.9,844C418.1,844 420.2,844.4 420.5,845C420.8,845.5 422.8,846 424.9,846C426.9,846 429,846.4 429.5,846.9C430.1,847.4 432.8,848.1 435.5,848.4C438.3,848.7 443.7,849.4 447.5,850C469,853.1 480.6,853.4 587,853.4C661.4,853.3 698.4,853 707,852.1C713.9,851.5 722.4,850.7 726,850.4C729.6,850.2 733.4,849.5 734.5,849C735.6,848.5 738.4,847.9 740.8,847.6C751.3,846.2 753.6,845.7 754.5,844.9C754.75,844.65 755.375,844.425 756.188,844.263L761.813,843.737C762.625,843.575 763.25,843.35 763.5,843.1C764.1,842.6 766.8,841.9 769.5,841.6C772.3,841.3 777.9,840.6 782,839.9C793,838.3 816.1,837.7 817.3,838.9C817.9,839.5 819.7,840 821.2,840C822.7,840 824,840.4 824,841C824,841.5 824.9,842 826,842C827.1,842 828,842.4 828,843C828,843.5 828.9,844 830,844C831.1,844 832,844.4 832,844.9C832,845.4 832.9,846.2 834.1,846.5C836.4,847.3 854,864.2 854,865.7C854,866.2 854.8,867.5 855.8,868.6C856.8,869.6 859.6,874.6 861.9,879.5C864.3,884.5 866.6,889.3 867.1,890.2C867.6,891.2 868,892.9 868,893.9C868,895 868.4,896.1 868.9,896.4C869.7,897 870.3,899.6 871.6,909.2C871.9,911.6 872.5,914.4 873,915.5C873.5,916.6 874.2,920.2 874.5,923.5C874.8,926.8 875.5,933.3 876,938C879.7,969.9 881.3,998.1 881.4,1030.5C881.4,1050.1 881,1061.4 880.2,1065.5C879.5,1068.8 878.7,1073 878.3,1074.7C878,1076.5 877.4,1078 876.9,1078C876.4,1078 876,1078.9 876,1079.9C876,1081.9 868.8,1096.3 867,1098C866.7,1098.3 865.3,1100.1 864,1102C860.8,1106.5 848.5,1118.8 844,1122C842.1,1123.3 839.6,1125.2 838.6,1126.2C837.5,1127.2 836.2,1128 835.7,1128C835.2,1128 834,1128.8 833.1,1129.7C832.2,1130.7 830.6,1132 829.5,1132.6C824.5,1135.3 822.5,1136.5 822,1137C821.1,1137.9 815.5,1141.1 811.8,1142.8C809.7,1143.7 808,1144.8 808,1145.2C808,1145.7 807.1,1146 806,1146C804.9,1146 804,1146.4 804,1147C804,1147.5 803.1,1148 802,1148C800.9,1148 800,1148.4 800,1149C800,1149.5 799.1,1150 798,1150C796.9,1150 796,1150.4 796,1151C796,1151.5 795.1,1152 794,1152C792.9,1152 792,1152.4 792,1153C792,1153.5 791.3,1154 790.5,1154C789.7,1154 788.1,1154.4 787,1155C785.9,1155.5 784.1,1156.4 783,1157C781.9,1157.5 780.3,1158 779.5,1158C778.7,1158 778,1158.4 778,1159C778,1159.5 776.7,1160 775,1160C773.4,1160 772,1160.4 772,1161C772,1161.5 770.7,1162 769.1,1162C767.4,1162 765.8,1162.4 765.5,1163C765.2,1163.6 763.2,1164 761.1,1164C759.1,1164 757,1164.4 756.5,1164.9C755.5,1165.8 749,1166.5 727.5,1168C710.6,1169.2 569.1,1170.9 462.5,1171.3C378.7,1171.5 237.3,1170.2 235.6,1169.2C235.1,1168.9 231.7,1168.3 228.1,1167.9C214.9,1166.2 212.5,1165.8 211.6,1164.9C211,1164.4 209.8,1164 208.8,1164C207.7,1164 205,1163.1 202.8,1162C200.5,1160.9 198,1160 197.3,1160C196.6,1160 196,1159.5 196,1159C196,1158.4 195.3,1158 194.5,1158C193.7,1158 192.1,1157.6 191,1157C189.9,1156.5 188.1,1155.6 187,1155C185.9,1154.5 184.3,1154 183.5,1154C182.7,1154 182,1153.5 182,1153C182,1152.4 181.1,1152 180,1152C178.9,1152 178,1151.5 178,1151C178,1150.4 177.3,1150 176.5,1150C174.9,1150 173.3,1149.3 168.5,1146.6C166.9,1145.6 164.7,1144.6 163.7,1144.3C162.8,1144 162,1143.4 162,1142.9C162,1142.4 161.2,1142 160.2,1142C159.2,1142 157.8,1141.1 157,1140C156.2,1138.9 155,1138 154.3,1138C152.7,1138 130,1115.4 130,1113.9C130,1113.2 129.2,1112 128.3,1111.1C126.3,1109.3 123.1,1104.4 122.3,1101.7C122,1100.8 121.4,1100 120.9,1100C120.4,1100 120,1099.1 120,1098C120,1096.9 119.6,1096 119,1096C118.5,1096 118,1095.1 118,1094C118,1092.9 117.6,1092 117,1092C116.5,1092 116,1091.1 116,1090C116,1088.9 115.6,1088 115,1088C114.5,1088 114,1087.1 114,1086.1C114,1085 113.6,1083.8 113,1083.5C112.5,1083.2 112,1081.8 112,1080.4C112,1079.1 111.6,1078 111,1078C110.5,1078 110,1076.6 110,1075C110,1073.3 109.6,1072 109.1,1072C108.3,1072 107.6,1069.3 106.3,1060.5C106,1058.3 105.3,1055.9 104.7,1055.2C103.1,1053.3 103.2,1011.4 104.8,1009.8C105.5,1009.1 106,1007.1 106,1005.4C106,1003.6 106.5,1001.8 107,1001.5C107.6,1001.2 108,999.6 108,998C108,996.4 108.4,994.9 108.8,994.6C109.2,994.3 110.2,991.8 111,989C111.8,986.2 112.8,983.7 113.2,983.4C113.6,983.1 114,981.8 114,980.4C114,979.1 114.4,978 114.8,978C115.3,978 116.3,975.7 117,973C117.7,970.2 118.7,968 119.2,968C119.6,968 120,967.1 120,966C120,964.9 120.5,964 121,964C121.6,964 122,963.1 122,962C122,960.9 122.5,960 123,960C123.6,960 124,959.1 124,958C124,956.9 124.4,956 124.9,956C125.4,956 126,955.2 126.3,954.2C127,952.1 130,947.1 131.8,945.2C132.4,944.5 133,943.5 133,943C133,942.5 133.6,941.5 134.3,940.8C135,940.1 136.7,937.9 138,936C141.2,931.4 157.5,915.2 162,912C163.9,910.7 166.2,908.8 167.1,907.8C168,906.8 169.1,906 169.6,906C170.1,906 172.1,904.6 174,903C175.9,901.4 177.9,900 178.3,900C178.7,900 180,899.1 181.2,898C182.4,896.9 184,896 184.7,896C185.4,896 186,895.6 186,895.1C186,894.6 186.8,894 187.8,893.7C189.5,893.1 195,890 196,889C196.6,888.4 204.6,884 207.7,882.5C209,882 210,881.2 210,880.7C210,880.3 210.9,880 212,880C213.1,880 214,879.5 214,879C214,878.4 214.9,878 216,878C217.1,878 218,877.5 218,877C218,876.4 218.9,876 220,876C221.1,876 222,875.5 222,875C222,874.4 222.9,874 224,874C225.1,874 226,873.5 226,873C226,872.4 226.9,872 228,872C229.1,872 230,871.5 230,871C230,870.4 230.9,870 232,870C233.1,870 234,869.5 234,869C234,868.4 234.9,868 236,868C237.1,868 238,867.5 238,867C238,866.4 238.9,866 240,866C241.1,866 242,865.5 242,865C242,864.4 242.9,864 244,864C245.1,864 246,863.5 246,863C246,862.4 246.9,862 248,862C249.1,862 250,861.5 250,861C250,860.4 250.6,860 251.4,860C252.6,860 255.8,858.6 263.2,854.9C264.2,854.4 265.7,854 266.5,854C267.3,854 268,853.5 268,853C268,852.4 268.9,852 270,852C271.1,852 272,851.5 272,851C272,850.4 272.9,850 274,850C275.1,850 276,849.5 276,849C276,848.4 276.7,848 277.5,848C278.3,848 280,847.5 281.3,846.8C286,844.4 287,844 288.5,844C289.3,844 290,843.5 290,843C290,842.4 290.9,842 292,842C293.1,842 294,841.5 294,841C294,840.4 294.9,840 296,840C297.1,840 299,839.5 300.3,838.8C305.1,836.4 306,836 308,836C309.1,836 310,835.6 310,835.1C310,834.6 311.5,834 313.3,833.7C322.1,832.2 326.1,831.3 326.7,830.6C326.95,830.35 328.862,830.225 331.703,830.198L342.275,830.387Z" style="fill:rgb(202,229,241);"/>
            <path d="M699.015,929L256,919L250,1136L711,1137C711,1137 781,1101 782,1041C783.733,937.014 699.015,929 699.015,929Z" style="fill:rgb(255,250,191);"/>
            <path d="M749,375L642,373L592,431L694,451L794,438L749,375Z" style="fill:rgb(202,229,240);"/>
            <g transform="matrix(1.06579,0,0,1.09459,-48.8816,-9.83784)">
                <ellipse cx="705" cy="67" rx="38" ry="37" style="fill:rgb(202,229,240);"/>
            </g>
            <g transform="matrix(0.1,0,0,-0.1,0,1638)">
                <path d="M6900,16290C6900,16285 6886,16280 6870,16280C6853,16280 6832,16276 6822,16271C6813,16266 6783,16252 6755,16239C6695,16210 6679,16198 6620,16140C6563,16083 6549,16063 6506,15985C6500,15974 6493,15963 6490,15960C6487,15957 6475,15925 6462,15889C6435,15808 6432,15679 6456,15610C6477,15550 6522,15460 6532,15460C6536,15460 6540,15454 6540,15446C6540,15439 6554,15419 6570,15402C6587,15384 6600,15366 6600,15362C6600,15357 6612,15340 6628,15323C6654,15295 6669,15273 6690,15230C6696,15219 6705,15201 6710,15190C6716,15179 6720,15141 6720,15106C6720,15070 6716,15038 6710,15035C6705,15032 6700,15014 6700,14996C6700,14979 6696,14960 6691,14955C6677,14940 6658,14743 6640,14415C6627,14193 6620,14118 6580,13820C6546,13569 6528,13406 6500,13115C6482,12926 6478,12900 6469,12900C6464,12900 6460,12887 6460,12870C6460,12854 6456,12840 6450,12840C6445,12840 6440,12834 6440,12828C6440,12801 6367,12739 6318,12723C6308,12720 6300,12714 6300,12709C6300,12704 6294,12700 6288,12700C6281,12700 6262,12689 6246,12675C6230,12661 6213,12650 6209,12650C6205,12650 6183,12632 6160,12610C6137,12588 6115,12570 6110,12570C6106,12570 6060,12528 6008,12477C5956,12426 5898,12373 5879,12360C5860,12346 5836,12328 5826,12318C5815,12308 5800,12300 5793,12300C5786,12300 5780,12296 5780,12290C5780,12285 5771,12280 5760,12280C5749,12280 5740,12276 5740,12270C5740,12265 5731,12260 5720,12260C5709,12260 5700,12256 5700,12250C5700,12245 5691,12240 5681,12240C5670,12240 5658,12236 5655,12230C5652,12225 5638,12220 5624,12220C5611,12220 5600,12216 5600,12210C5600,12205 5589,12200 5576,12200C5562,12200 5548,12196 5545,12190C5542,12185 5526,12180 5510,12180C5494,12180 5478,12176 5475,12170C5472,12165 5456,12160 5440,12160C5424,12160 5408,12156 5405,12150C5402,12145 5386,12140 5370,12140C5354,12140 5338,12136 5335,12130C5332,12125 5318,12120 5305,12120C5292,12120 5278,12116 5275,12110C5272,12105 5258,12100 5245,12100C5232,12100 5218,12096 5215,12090C5212,12085 5198,12080 5184,12080C5171,12080 5160,12076 5160,12072C5160,12067 5138,12057 5110,12050C5083,12043 5060,12033 5060,12028C5060,12024 5051,12020 5040,12020C5029,12020 5020,12016 5020,12010C5020,12005 5013,12000 5005,12000C4992,12000 4791,11902 4780,11890C4771,11881 4715,11849 4698,11843C4688,11840 4680,11834 4680,11829C4680,11824 4674,11820 4667,11820C4660,11820 4644,11811 4632,11800C4620,11789 4607,11780 4602,11780C4598,11780 4585,11772 4574,11762C4564,11752 4539,11734 4520,11720C4501,11707 4483,11693 4480,11690C4477,11687 4460,11674 4442,11661C4360,11604 4040,11286 4040,11262C4040,11258 4022,11234 4000,11210C3978,11186 3960,11162 3960,11157C3960,11153 3949,11138 3936,11125C3922,11112 3909,11091 3905,11080C3902,11069 3895,11060 3891,11060C3886,11060 3877,11047 3870,11030C3863,11014 3854,11000 3849,11000C3844,11000 3840,10994 3840,10987C3840,10980 3831,10964 3820,10952C3809,10940 3800,10924 3800,10915C3800,10907 3797,10900 3793,10900C3788,10900 3780,10890 3774,10877C3767,10865 3744,10819 3721,10775C3699,10731 3680,10687 3680,10678C3680,10668 3676,10660 3672,10660C3667,10660 3657,10637 3650,10609C3642,10582 3632,10557 3628,10554C3624,10551 3620,10538 3620,10524C3620,10511 3616,10500 3610,10500C3605,10500 3600,10487 3600,10471C3600,10454 3596,10438 3590,10435C3585,10432 3580,10416 3580,10400C3580,10384 3576,10368 3570,10365C3564,10362 3560,10346 3560,10330C3560,10314 3555,10298 3550,10295C3545,10292 3540,10273 3540,10254C3540,10235 3536,10220 3530,10220C3525,10220 3520,10202 3520,10180C3520,10158 3516,10140 3511,10140C3506,10140 3499,10121 3496,10098C3483,9995 3477,9970 3469,9964C3464,9961 3460,9939 3460,9915C3460,9891 3455,9868 3450,9865C3444,9862 3440,9837 3440,9811C3440,9785 3436,9760 3431,9754C3426,9749 3419,9723 3416,9695C3413,9668 3406,9614 3400,9575C3374,9402 3358,9279 3340,9120C3332,9042 3326,8981 3300,8710C3288,8581 3271,8407 3264,8338C3261,8307 3253,8277 3247,8272C3240,8268 3174,8244 3100,8220C3026,8196 2961,8173 2955,8168C2950,8164 2936,8160 2923,8160C2910,8160 2900,8156 2900,8152C2900,8147 2878,8137 2850,8130C2822,8123 2800,8114 2800,8110C2800,8106 2777,8097 2750,8090C2722,8083 2700,8073 2700,8068C2700,8064 2694,8060 2687,8060C2680,8060 2655,8051 2632,8040C2610,8029 2584,8020 2575,8020C2567,8020 2560,8016 2560,8010C2560,8005 2551,8000 2540,8000C2529,8000 2520,7996 2520,7990C2520,7985 2511,7980 2500,7980C2489,7980 2480,7976 2480,7970C2480,7965 2471,7960 2460,7960C2449,7960 2440,7956 2440,7950C2440,7945 2434,7940 2426,7940C2409,7940 2326,7898 2322,7888C2320,7883 2310,7880 2299,7880C2289,7880 2280,7876 2280,7870C2280,7865 2271,7860 2260,7860C2249,7860 2240,7856 2240,7850C2240,7845 2231,7840 2220,7840C2209,7840 2200,7837 2200,7833C2200,7828 2177,7814 2150,7801C2122,7787 2100,7772 2100,7768C2100,7764 2091,7760 2080,7760C2069,7760 2060,7756 2060,7751C2060,7746 2052,7740 2043,7737C2022,7730 1971,7700 1953,7683C1946,7677 1931,7668 1920,7665C1909,7662 1900,7654 1900,7649C1900,7644 1894,7640 1887,7640C1880,7640 1864,7631 1852,7620C1840,7609 1827,7600 1823,7600C1819,7600 1799,7586 1780,7570C1761,7554 1740,7540 1735,7540C1729,7540 1718,7531 1710,7520C1702,7509 1691,7500 1685,7500C1679,7500 1657,7484 1636,7465C1615,7446 1594,7430 1589,7430C1584,7430 1566,7415 1548,7398C1530,7380 1498,7352 1477,7336C1425,7298 1231,7104 1200,7060C1186,7041 1163,7012 1148,6996C1132,6980 1120,6962 1120,6956C1120,6950 1111,6938 1100,6930C1089,6922 1080,6910 1080,6902C1080,6895 1071,6880 1060,6868C1049,6856 1040,6840 1040,6833C1040,6826 1036,6820 1030,6820C1025,6820 1020,6811 1020,6800C1020,6789 1016,6780 1010,6780C1005,6780 1000,6771 1000,6760C1000,6749 996,6740 992,6740C988,6740 978,6719 971,6693C963,6666 953,6638 950,6630C935,6599 920,6543 920,6519C920,6505 916,6490 911,6484C906,6479 899,6450 896,6420C893,6390 885,6327 879,6280C855,6104 865,5773 900,5600C906,5570 913,5530 917,5513C920,5495 926,5480 931,5480C936,5480 940,5467 940,5450C940,5434 945,5420 950,5420C956,5420 960,5411 960,5400C960,5389 965,5380 970,5380C976,5380 980,5371 980,5360C980,5349 985,5340 990,5340C996,5340 1000,5331 1000,5320C1000,5309 1005,5300 1010,5300C1016,5300 1020,5294 1020,5287C1020,5280 1029,5264 1040,5252C1051,5240 1060,5224 1060,5215C1060,5207 1064,5200 1068,5200C1072,5200 1084,5186 1094,5170C1103,5153 1121,5129 1133,5117C1145,5105 1168,5078 1184,5057C1220,5008 1268,4960 1317,4924C1337,4908 1368,4883 1384,4868C1400,4852 1417,4840 1423,4840C1428,4840 1440,4832 1449,4823C1458,4813 1474,4800 1485,4794C1535,4767 1555,4755 1560,4750C1571,4739 1694,4680 1706,4680C1714,4680 1720,4676 1720,4670C1720,4665 1727,4660 1735,4660C1743,4660 1758,4656 1768,4651C1791,4639 1828,4625 1870,4610C1889,4603 1914,4595 1925,4590C1973,4572 2018,4560 2038,4560C2049,4560 2062,4556 2065,4550C2068,4545 2086,4540 2105,4540C2124,4540 2141,4536 2144,4531C2149,4523 2174,4518 2275,4504C2297,4501 2324,4495 2335,4490C2346,4485 2380,4479 2410,4476C2440,4473 2501,4466 2545,4460C2675,4444 2819,4430 2910,4424C3040,4416 3036,4421 3044,4271C3066,3854 3078,3709 3091,3696C3096,3690 3100,3676 3100,3663C3100,3650 3105,3640 3110,3640C3116,3640 3120,3633 3120,3625C3120,3605 3165,3560 3185,3560C3193,3560 3200,3556 3200,3550C3200,3545 3209,3540 3219,3540C3230,3540 3240,3536 3242,3532C3243,3528 3270,3516 3300,3506C3409,3470 3505,3451 3640,3440C3801,3427 3884,3409 3962,3369C3972,3364 3989,3360 4000,3360C4011,3360 4020,3356 4020,3350C4020,3345 4029,3340 4041,3340L4061,3340L4056,2798C4050,2181 4036,1921 4009,1904C4004,1901 4000,1891 4000,1882C3999,1873 3977,1843 3950,1815C3922,1788 3900,1761 3900,1757C3900,1752 3893,1742 3885,1733C3876,1725 3866,1705 3863,1689C3860,1673 3854,1660 3849,1660C3844,1660 3840,1647 3840,1632C3840,1617 3836,1600 3831,1595C3826,1589 3819,1563 3816,1535C3812,1508 3805,1454 3800,1415C3786,1314 3770,1149 3744,828C3738,747 3748,720 3784,720C3793,720 3800,716 3800,710C3800,705 3809,700 3820,700C3831,700 3840,696 3840,690C3840,685 3847,680 3855,680C3863,680 3879,676 3890,670C3901,665 3919,656 3930,650C3941,645 3957,640 3965,640C3973,640 3980,636 3980,630C3980,625 3990,620 4003,620C4016,620 4030,616 4036,612C4041,608 4063,598 4085,591C4107,584 4134,575 4145,570C4156,566 4185,557 4210,550C4235,543 4264,534 4275,530C4286,525 4309,519 4325,515C4342,512 4373,504 4395,499C4417,493 4452,486 4473,483C4493,480 4513,474 4516,469C4519,464 4543,460 4570,460C4597,460 4622,456 4625,450C4628,445 4653,440 4679,440C4705,440 4730,436 4736,431C4741,426 4774,419 4810,416C4846,413 4916,406 4965,400C5323,358 5653,346 6450,346C7387,347 8080,372 8165,410C8176,415 8199,421 8215,424C8232,426 8265,434 8290,440C8315,446 8350,454 8368,457C8385,460 8400,466 8400,471C8400,476 8410,480 8422,480C8445,480 8503,496 8532,511C8542,516 8561,520 8575,520C8589,520 8600,525 8600,530C8600,536 8611,540 8624,540C8638,540 8652,545 8655,550C8658,556 8672,560 8685,560C8698,560 8711,564 8714,568C8717,572 8742,582 8770,590C8798,598 8823,608 8826,612C8829,616 8842,620 8856,620C8869,620 8880,624 8880,628C8880,633 8903,643 8930,650C8958,657 8980,666 8980,670C8980,674 9003,683 9030,690C9058,697 9080,707 9080,712C9080,716 9086,720 9093,720C9105,720 9173,749 9212,770C9222,776 9237,780 9245,780C9253,780 9260,785 9260,790C9260,796 9269,800 9280,800C9291,800 9300,805 9300,810C9300,816 9309,820 9320,820C9331,820 9340,825 9340,830C9340,836 9349,840 9360,840C9371,840 9380,844 9380,849C9380,854 9388,860 9398,863C9415,869 9470,900 9480,910C9483,913 9497,921 9513,929C9528,937 9540,947 9540,952C9540,956 9546,960 9554,960C9573,960 9680,1067 9680,1086C9680,1094 9685,1100 9690,1100C9696,1100 9700,1114 9700,1130C9700,1147 9704,1160 9709,1160C9719,1160 9725,1198 9741,1350C9753,1468 9766,2054 9780,3045C9786,3463 9795,4084 9800,4425C9805,4766 9812,5272 9815,5550C9818,5828 9822,6102 9825,6160C9837,6436 9853,7767 9854,8465C9854,9308 9847,9507 9805,9920C9801,9956 9794,9989 9789,9995C9784,10000 9780,10023 9780,10046C9780,10070 9776,10092 9770,10095C9765,10098 9760,10119 9760,10140C9760,10161 9756,10182 9750,10185C9745,10188 9740,10204 9740,10221C9740,10237 9736,10258 9731,10268C9726,10277 9717,10305 9710,10330C9703,10355 9694,10383 9689,10392C9684,10402 9680,10421 9680,10435C9680,10449 9676,10460 9670,10460C9665,10460 9660,10474 9660,10490C9660,10507 9656,10520 9650,10520C9645,10520 9640,10529 9640,10540C9640,10551 9636,10569 9630,10580C9625,10591 9616,10609 9610,10620C9605,10631 9600,10649 9600,10660C9600,10671 9596,10680 9590,10680C9585,10680 9580,10689 9580,10700C9580,10711 9576,10720 9570,10720C9565,10720 9560,10729 9560,10740C9560,10751 9551,10775 9540,10795C9529,10815 9520,10837 9520,10845C9520,10853 9516,10860 9510,10860C9505,10860 9500,10869 9500,10880C9500,10891 9496,10900 9490,10900C9485,10900 9480,10909 9480,10920C9480,10931 9477,10940 9473,10940C9468,10940 9454,10963 9441,10990C9427,11018 9412,11040 9408,11040C9404,11040 9400,11049 9400,11060C9400,11071 9396,11080 9392,11080C9387,11080 9377,11092 9369,11108C9361,11123 9347,11144 9338,11154C9328,11165 9320,11179 9320,11185C9320,11191 9311,11202 9300,11210C9289,11218 9280,11230 9280,11236C9280,11242 9268,11260 9252,11276C9237,11292 9214,11321 9200,11340C9167,11386 8985,11568 8940,11600C8921,11613 8898,11631 8890,11640C8882,11649 8859,11667 8840,11680C8821,11694 8796,11712 8786,11722C8775,11732 8762,11740 8758,11740C8753,11740 8740,11749 8728,11760C8716,11771 8700,11780 8693,11780C8686,11780 8680,11784 8680,11789C8680,11794 8667,11803 8650,11810C8634,11817 8620,11826 8620,11831C8620,11836 8611,11840 8600,11840C8589,11840 8580,11844 8580,11848C8580,11852 8558,11867 8530,11881C8503,11894 8480,11908 8480,11913C8480,11917 8471,11920 8460,11920C8449,11920 8440,11925 8440,11930C8440,11936 8431,11940 8420,11940C8409,11940 8400,11945 8400,11950C8400,11956 8391,11960 8381,11960C8370,11960 8360,11963 8358,11968C8354,11977 8301,12009 8278,12017C8268,12020 8260,12026 8260,12031C8260,12036 8251,12040 8240,12040C8229,12040 8220,12044 8220,12048C8220,12053 8208,12063 8193,12071C8177,12079 8156,12093 8146,12103C8135,12112 8122,12120 8118,12120C8113,12120 8098,12131 8085,12144C8071,12158 8047,12176 8031,12186C8015,12195 7991,12220 7979,12241C7966,12262 7952,12280 7948,12280C7943,12280 7940,12286 7940,12294C7940,12301 7928,12320 7913,12336C7897,12352 7872,12383 7855,12405C7821,12451 7750,12521 7700,12559C7648,12598 7560,12691 7560,12706C7560,12714 7556,12720 7550,12720C7545,12720 7540,12729 7540,12740C7540,12751 7536,12760 7530,12760C7525,12760 7520,12770 7520,12783C7520,12796 7516,12810 7511,12815C7496,12831 7480,13008 7460,13355C7428,13920 7405,14296 7379,14685C7366,14877 7364,15203 7375,15268C7379,15291 7386,15313 7391,15316C7396,15319 7400,15330 7400,15341C7400,15351 7405,15360 7410,15360C7416,15360 7420,15369 7420,15380C7420,15391 7425,15400 7430,15400C7436,15400 7440,15409 7440,15420C7440,15431 7443,15440 7448,15440C7452,15440 7460,15450 7466,15463C7472,15475 7491,15511 7509,15544C7526,15576 7540,15610 7540,15620C7540,15630 7545,15640 7550,15642C7577,15651 7556,15920 7528,15920C7524,15920 7520,15929 7520,15940C7520,15951 7516,15960 7510,15960C7505,15960 7500,15969 7500,15980C7500,15991 7496,16000 7490,16000C7485,16000 7480,16006 7480,16013C7480,16020 7472,16035 7462,16046C7452,16056 7433,16081 7420,16100C7390,16144 7383,16150 7340,16180C7321,16193 7303,16207 7300,16210C7290,16221 7208,16260 7194,16260C7186,16260 7180,16265 7180,16270C7180,16276 7165,16280 7146,16280C7127,16280 7108,16285 7105,16290C7102,16296 7055,16300 6999,16300C6940,16300 6900,16296 6900,16290ZM7063,16104C7083,16100 7100,16094 7100,16089C7100,16084 7107,16080 7116,16080C7133,16080 7201,16045 7234,16020C7278,15986 7309,15948 7329,15905C7336,15888 7346,15867 7351,15858C7363,15834 7362,15633 7350,15625C7345,15622 7340,15610 7340,15599C7340,15589 7336,15580 7330,15580C7325,15580 7320,15572 7320,15563C7320,15553 7296,15523 7267,15495C7191,15424 7118,15400 6972,15400C6909,15400 6859,15404 6855,15410C6852,15416 6840,15420 6828,15420C6804,15420 6740,15481 6740,15504C6740,15513 6736,15520 6731,15520C6717,15520 6708,15585 6703,15729C6700,15816 6703,15867 6709,15873C6715,15879 6720,15897 6720,15912C6720,15927 6725,15940 6730,15940C6736,15940 6740,15949 6740,15960C6740,15971 6743,15980 6748,15980C6752,15980 6761,15992 6767,16008C6782,16039 6857,16090 6915,16107C6953,16118 6973,16117 7063,16104ZM6454,12593C6465,12582 6533,12560 6558,12560C6570,12560 6580,12556 6580,12550C6580,12545 6599,12540 6623,12540C6647,12540 6670,12536 6676,12531C6685,12521 6721,12518 6965,12500C7406,12469 7415,12559 7520,12510C7570,12487 7780,12200 7780,12175C7780,12167 7785,12160 7790,12160C7796,12160 7800,12133 7800,12100L7800,12040L7770,12040C7754,12040 7740,12036 7740,12031C7740,12007 7191,11988 6851,12000C6499,12013 6368,12025 6233,12059C6209,12065 6171,12075 6148,12081C6124,12087 6090,12094 6073,12097C6043,12102 6040,12106 6040,12136C6040,12175 6054,12209 6094,12270C6128,12321 6248,12443 6300,12480C6319,12494 6357,12526 6383,12552C6433,12601 6441,12606 6454,12593ZM5878,11971C5932,11942 6031,11900 6044,11900C6053,11900 6060,11896 6060,11890C6060,11885 6071,11880 6084,11880C6098,11880 6112,11876 6115,11870C6118,11865 6132,11860 6145,11860C6158,11860 6171,11856 6174,11851C6177,11846 6194,11840 6212,11837C6230,11834 6265,11826 6290,11820C6622,11736 7179,11708 7490,11760C7678,11791 7887,11813 7990,11813C8071,11814 8179,11801 8195,11790C8201,11787 8224,11778 8247,11770C8270,11763 8298,11749 8309,11738C8320,11728 8333,11720 8337,11720C8341,11720 8361,11706 8380,11690C8399,11674 8420,11660 8427,11660C8433,11660 8440,11657 8442,11653C8448,11639 8532,11600 8556,11600C8569,11600 8580,11596 8580,11590C8580,11585 8586,11580 8593,11580C8623,11580 8891,11316 8990,11190C9009,11165 9032,11138 9040,11130C9049,11122 9067,11099 9080,11080C9093,11061 9112,11038 9122,11029C9132,11020 9140,11008 9140,11003C9140,10997 9152,10980 9168,10964C9183,10948 9201,10922 9209,10907C9217,10892 9227,10880 9232,10880C9236,10880 9240,10871 9240,10860C9240,10849 9244,10840 9249,10840C9256,10840 9308,10741 9332,10680C9338,10666 9346,10647 9351,10638C9356,10628 9360,10611 9360,10601C9360,10590 9365,10578 9370,10575C9376,10572 9380,10558 9380,10545C9380,10532 9385,10518 9390,10515C9396,10512 9400,10500 9400,10489C9400,10479 9404,10462 9409,10452C9424,10423 9440,10365 9440,10342C9440,10330 9444,10320 9449,10320C9454,10320 9460,10305 9463,10288C9466,10270 9473,10237 9479,10215C9505,10112 9512,10082 9517,10047C9520,10027 9526,10007 9531,10004C9536,10001 9540,9977 9540,9951C9540,9925 9544,9900 9549,9894C9554,9889 9561,9854 9565,9815C9568,9777 9575,9700 9580,9645C9597,9462 9614,8870 9614,8460C9614,7867 9578,5543 9545,4020C9542,3896 9538,3674 9535,3525C9499,1685 9488,1415 9441,1235C9436,1213 9428,1183 9424,1168C9421,1152 9414,1140 9409,1140C9404,1140 9400,1133 9400,1125C9400,1105 9315,1020 9296,1020C9288,1020 9280,1016 9278,1012C9272,997 8789,760 8764,760C8751,760 8740,756 8740,751C8740,746 8707,739 8668,737C8586,731 8527,721 8520,710C8510,695 8430,660 8405,660C8391,660 8380,656 8380,650C8380,645 8358,640 8332,640C8306,640 8280,636 8275,631C8269,626 8234,619 8195,616C8157,612 8087,605 8040,599C7342,521 5832,501 5090,560C4963,570 4849,584 4750,600C4714,606 4667,613 4645,616C4623,619 4596,625 4585,630C4566,638 4531,645 4443,656C4419,660 4400,666 4400,671C4400,676 4390,680 4378,680C4355,680 4297,696 4268,711C4258,716 4243,720 4235,720C4227,720 4220,725 4220,730C4220,736 4213,740 4205,740C4171,740 4100,798 4100,825C4100,833 4096,840 4091,840C4080,840 4072,897 4060,1050C4055,1113 4048,1195 4045,1233L4038,1300L4079,1300C4101,1300 4120,1296 4120,1291C4120,1286 4139,1279 4163,1276C4186,1273 4225,1268 4250,1265C4275,1262 4304,1255 4315,1250C4326,1245 4360,1239 4390,1236C4420,1233 4483,1226 4530,1220C5255,1130 6587,1120 7225,1200C7269,1205 7330,1212 7360,1215C7390,1218 7424,1225 7435,1230C7446,1235 7472,1241 7493,1244C7578,1257 7600,1263 7600,1271C7600,1276 7614,1280 7630,1280C7647,1280 7660,1285 7660,1290C7660,1296 7674,1300 7690,1300C7707,1300 7720,1305 7720,1310C7720,1316 7734,1320 7750,1320C7767,1320 7780,1325 7780,1330C7780,1336 7789,1340 7800,1340C7811,1340 7828,1344 7838,1349C7847,1354 7869,1363 7885,1370C7902,1377 7923,1386 7932,1391C7942,1396 7957,1400 7965,1400C7973,1400 7980,1405 7980,1410C7980,1416 7989,1420 8000,1420C8011,1420 8020,1425 8020,1430C8020,1436 8029,1440 8040,1440C8051,1440 8060,1445 8060,1450C8060,1456 8069,1460 8080,1460C8091,1460 8100,1464 8100,1469C8100,1474 8114,1483 8130,1490C8146,1497 8160,1506 8160,1511C8160,1516 8166,1520 8173,1520C8180,1520 8196,1529 8208,1540C8220,1551 8233,1560 8239,1560C8251,1560 8440,1746 8440,1758C8440,1762 8448,1775 8458,1786C8478,1809 8496,1839 8523,1895C8534,1917 8546,1943 8551,1952C8556,1962 8560,1977 8560,1985C8560,1993 8564,2000 8569,2000C8574,2000 8580,2015 8583,2033C8586,2050 8594,2085 8600,2110C8629,2226 8633,2279 8633,2595C8633,2918 8627,3015 8609,3034C8604,3040 8600,3054 8600,3067C8600,3080 8596,3098 8591,3108C8586,3117 8574,3143 8563,3165C8533,3226 8518,3250 8480,3293C8420,3363 8295,3480 8281,3480C8277,3480 8265,3488 8254,3498C8228,3522 8116,3580 8096,3580C8087,3580 8080,3585 8080,3590C8080,3596 8067,3600 8050,3600C8034,3600 8020,3604 8020,3609C8020,3614 8001,3621 7978,3624C7954,3627 7897,3635 7850,3641C7803,3648 7700,3654 7620,3653C7449,3653 7291,3642 6900,3600C6566,3564 5708,3545 5127,3560C4596,3573 4398,3587 3973,3640C3741,3668 3741,3668 3518,3700C3478,3706 3421,3713 3393,3716L3340,3722L3340,4439L4808,4444C6596,4450 6913,4459 7460,4515C7496,4519 7529,4526 7535,4531C7540,4536 7565,4540 7591,4540C7617,4540 7642,4545 7645,4550C7648,4556 7666,4560 7685,4560C7704,4560 7722,4565 7725,4570C7728,4576 7744,4580 7760,4580C7776,4580 7792,4585 7795,4590C7798,4596 7810,4600 7821,4600C7831,4600 7848,4604 7858,4609C7867,4614 7889,4623 7905,4630C7922,4637 7943,4646 7952,4651C7962,4656 7977,4660 7985,4660C7993,4660 8000,4665 8000,4670C8000,4676 8006,4680 8014,4680C8031,4680 8274,4801 8278,4812C8280,4816 8290,4820 8301,4820C8311,4820 8320,4824 8320,4829C8320,4834 8328,4840 8338,4843C8360,4850 8409,4880 8434,4902C8445,4912 8460,4920 8467,4920C8474,4920 8480,4924 8480,4928C8480,4933 8492,4943 8508,4951C8523,4959 8545,4975 8558,4988C8571,5000 8586,5010 8591,5010C8606,5010 8860,5267 8860,5282C8860,5290 8869,5302 8880,5310C8891,5318 8900,5332 8900,5342C8900,5352 8904,5360 8908,5360C8916,5360 8952,5427 8970,5475C8974,5486 8983,5508 8989,5523C8995,5538 9000,5562 9000,5575C9000,5589 9005,5600 9010,5600C9016,5600 9020,5619 9020,5643C9020,5667 9024,5690 9029,5696C9045,5712 9053,5859 9053,6165C9053,6483 9040,6671 9000,6910C8994,6946 8987,6998 8984,7025C8981,7053 8974,7079 8969,7085C8964,7090 8960,7113 8960,7137C8960,7161 8956,7180 8950,7180C8945,7180 8940,7198 8940,7219C8940,7241 8936,7262 8930,7265C8925,7268 8920,7286 8920,7305C8920,7324 8916,7342 8910,7345C8905,7348 8900,7364 8900,7380C8900,7396 8896,7412 8890,7415C8885,7418 8880,7434 8880,7451C8880,7467 8876,7480 8870,7480C8865,7480 8860,7494 8860,7510C8860,7527 8856,7540 8850,7540C8845,7540 8840,7554 8840,7570C8840,7587 8836,7600 8832,7600C8827,7600 8817,7623 8810,7650C8803,7677 8793,7700 8788,7700C8784,7700 8780,7709 8780,7720C8780,7731 8776,7740 8770,7740C8765,7740 8760,7749 8760,7760C8760,7771 8756,7780 8751,7780C8746,7780 8740,7788 8737,7798C8734,7807 8723,7829 8713,7845C8691,7881 8525,8050 8511,8050C8506,8050 8495,8056 8488,8063C8468,8082 8354,8140 8336,8140C8327,8140 8320,8144 8320,8148C8320,8152 8299,8161 8273,8168C8246,8176 8217,8186 8208,8191C8198,8196 8175,8200 8157,8200C8139,8200 8119,8205 8114,8210C8102,8222 7716,8218 7663,8205C7646,8201 7623,8190 7613,8181C7566,8138 7382,8108 6990,8080C6341,8034 5174,8034 4745,8080C4696,8085 4628,8092 4595,8095C4562,8098 4526,8105 4515,8110C4496,8118 4463,8124 4360,8136C4335,8139 4306,8145 4295,8150C4284,8155 4257,8161 4235,8164C4213,8167 4166,8174 4130,8180C4094,8186 4045,8193 4020,8196C3995,8199 3971,8206 3966,8211C3960,8216 3939,8220 3918,8220C3897,8220 3880,8225 3880,8230C3880,8236 3870,8240 3859,8240C3833,8240 3706,8282 3702,8292C3700,8297 3690,8300 3679,8300C3669,8300 3660,8305 3660,8310C3660,8316 3653,8320 3645,8320C3637,8320 3611,8331 3588,8344C3550,8366 3545,8372 3547,8402C3583,8887 3617,9210 3660,9468C3691,9658 3687,9637 3721,9803C3726,9831 3734,9872 3737,9893C3740,9913 3746,9933 3751,9936C3756,9939 3760,9959 3760,9980C3760,10001 3765,10022 3770,10025C3776,10028 3780,10047 3780,10066C3780,10085 3784,10100 3789,10100C3797,10100 3800,10111 3816,10203C3819,10223 3826,10240 3831,10240C3836,10240 3840,10253 3840,10269C3840,10286 3845,10302 3850,10305C3856,10308 3860,10322 3860,10335C3860,10348 3865,10362 3870,10365C3876,10368 3880,10382 3880,10396C3880,10409 3885,10420 3890,10420C3896,10420 3900,10429 3900,10440C3900,10451 3904,10468 3909,10478C3914,10487 3923,10509 3930,10525C3937,10542 3946,10563 3951,10572C3956,10582 3960,10597 3960,10605C3960,10613 3965,10620 3970,10620C3976,10620 3980,10626 3980,10633C3980,10647 4012,10720 4036,10760C4044,10774 4058,10802 4068,10823C4077,10843 4088,10860 4092,10860C4097,10860 4100,10869 4100,10880C4100,10891 4104,10900 4109,10900C4114,10900 4123,10914 4130,10930C4137,10947 4146,10960 4151,10960C4156,10960 4160,10966 4160,10973C4160,10980 4169,10996 4180,11008C4191,11020 4200,11033 4200,11038C4200,11043 4214,11061 4230,11078C4247,11096 4260,11114 4260,11118C4260,11143 4520,11404 4601,11460C4620,11473 4642,11492 4651,11502C4660,11512 4672,11520 4677,11520C4682,11520 4695,11528 4706,11538C4716,11547 4737,11561 4753,11569C4768,11577 4780,11587 4780,11592C4780,11596 4787,11600 4795,11600C4804,11600 4820,11609 4832,11620C4844,11631 4860,11640 4867,11640C4874,11640 4880,11645 4880,11650C4880,11656 4889,11660 4900,11660C4911,11660 4920,11665 4920,11670C4920,11676 4929,11680 4939,11680C4950,11680 4960,11683 4962,11688C4966,11698 5049,11740 5066,11740C5074,11740 5080,11745 5080,11750C5080,11756 5089,11760 5100,11760C5111,11760 5120,11765 5120,11770C5120,11776 5129,11780 5140,11780C5151,11780 5160,11784 5160,11788C5160,11793 5183,11803 5210,11810C5238,11817 5260,11826 5260,11830C5260,11834 5283,11843 5310,11850C5338,11857 5360,11867 5360,11872C5360,11876 5374,11880 5390,11880C5407,11880 5420,11885 5420,11890C5420,11896 5431,11900 5444,11900C5458,11900 5472,11905 5475,11910C5478,11916 5492,11920 5505,11920C5518,11920 5532,11925 5535,11930C5538,11936 5552,11940 5565,11940C5578,11940 5592,11945 5595,11950C5598,11956 5614,11960 5630,11960C5646,11960 5662,11965 5665,11970C5673,11983 5854,11983 5878,11971ZM3625,8061C3658,8056 3710,8046 3740,8040C3770,8034 3812,8026 3833,8023C3853,8020 3873,8014 3876,8009C3879,8004 3896,8000 3915,8000C3934,8000 3952,7996 3955,7990C3958,7985 3976,7980 3995,7980C4014,7980 4032,7976 4035,7970C4038,7965 4059,7960 4081,7960C4102,7960 4120,7956 4120,7950C4120,7945 4138,7940 4159,7940C4181,7940 4202,7936 4205,7930C4208,7925 4228,7920 4249,7920C4269,7920 4290,7916 4295,7911C4301,7906 4328,7899 4355,7896C4383,7893 4437,7886 4475,7880C4690,7849 4806,7846 5870,7846C6614,7847 6984,7850 7070,7859C7139,7865 7224,7873 7260,7876C7296,7878 7334,7885 7345,7890C7356,7895 7384,7901 7408,7904C7513,7918 7536,7923 7545,7931C7550,7936 7570,7940 7590,7940C7610,7940 7630,7944 7635,7949C7641,7954 7668,7961 7695,7964C7723,7967 7779,7974 7820,7981C7930,7997 8161,8003 8173,7991C8179,7985 8197,7980 8212,7980C8227,7980 8240,7976 8240,7970C8240,7965 8249,7960 8260,7960C8271,7960 8280,7956 8280,7950C8280,7945 8289,7940 8300,7940C8311,7940 8320,7936 8320,7931C8320,7926 8329,7918 8341,7915C8364,7907 8540,7738 8540,7723C8540,7718 8548,7705 8558,7694C8568,7684 8596,7634 8619,7585C8643,7535 8666,7487 8671,7478C8676,7468 8680,7451 8680,7441C8680,7430 8684,7419 8689,7416C8697,7410 8703,7384 8716,7288C8719,7264 8725,7236 8730,7225C8735,7214 8742,7178 8745,7145C8748,7112 8755,7047 8760,7000C8797,6681 8813,6399 8814,6075C8814,5879 8810,5766 8802,5725C8795,5692 8787,5650 8783,5633C8780,5615 8774,5600 8769,5600C8764,5600 8760,5591 8760,5581C8760,5561 8688,5417 8670,5400C8667,5397 8653,5379 8640,5360C8608,5315 8485,5192 8440,5160C8421,5147 8396,5128 8386,5118C8375,5108 8362,5100 8357,5100C8352,5100 8340,5092 8331,5083C8322,5073 8306,5060 8295,5054C8245,5027 8225,5015 8220,5010C8211,5001 8155,4969 8118,4952C8097,4943 8080,4932 8080,4928C8080,4923 8071,4920 8060,4920C8049,4920 8040,4916 8040,4910C8040,4905 8031,4900 8020,4900C8009,4900 8000,4896 8000,4890C8000,4885 7991,4880 7980,4880C7969,4880 7960,4876 7960,4870C7960,4865 7951,4860 7940,4860C7929,4860 7920,4856 7920,4850C7920,4845 7913,4840 7905,4840C7897,4840 7881,4836 7870,4830C7859,4825 7841,4816 7830,4810C7819,4805 7803,4800 7795,4800C7787,4800 7780,4796 7780,4790C7780,4785 7767,4780 7750,4780C7734,4780 7720,4776 7720,4770C7720,4765 7707,4760 7691,4760C7674,4760 7658,4756 7655,4750C7652,4744 7632,4740 7611,4740C7591,4740 7570,4736 7565,4731C7555,4722 7490,4715 7275,4700C7106,4688 5691,4671 4625,4667C3787,4665 2373,4678 2356,4688C2351,4691 2317,4697 2281,4701C2149,4718 2125,4722 2116,4731C2110,4736 2098,4740 2088,4740C2077,4740 2050,4749 2028,4760C2005,4771 1980,4780 1973,4780C1966,4780 1960,4785 1960,4790C1960,4796 1953,4800 1945,4800C1937,4800 1921,4804 1910,4810C1899,4815 1881,4824 1870,4830C1859,4835 1843,4840 1835,4840C1827,4840 1820,4845 1820,4850C1820,4856 1811,4860 1800,4860C1789,4860 1780,4865 1780,4870C1780,4876 1773,4880 1765,4880C1749,4880 1733,4887 1685,4914C1669,4924 1647,4934 1637,4937C1628,4940 1620,4946 1620,4951C1620,4956 1612,4960 1602,4960C1592,4960 1578,4969 1570,4980C1562,4991 1550,5000 1543,5000C1527,5000 1300,5226 1300,5241C1300,5248 1292,5260 1283,5269C1263,5287 1231,5336 1223,5363C1220,5372 1214,5380 1209,5380C1204,5380 1200,5389 1200,5400C1200,5411 1196,5420 1190,5420C1185,5420 1180,5429 1180,5440C1180,5451 1176,5460 1170,5460C1165,5460 1160,5469 1160,5480C1160,5491 1156,5500 1150,5500C1145,5500 1140,5509 1140,5519C1140,5530 1136,5542 1130,5545C1125,5548 1120,5562 1120,5576C1120,5589 1116,5600 1110,5600C1105,5600 1100,5614 1100,5630C1100,5647 1096,5660 1091,5660C1083,5660 1076,5687 1063,5775C1060,5797 1053,5821 1047,5828C1031,5847 1032,6266 1048,6282C1055,6289 1060,6309 1060,6326C1060,6344 1065,6362 1070,6365C1076,6368 1080,6384 1080,6400C1080,6416 1084,6431 1088,6434C1092,6437 1102,6462 1110,6490C1118,6518 1128,6543 1132,6546C1136,6549 1140,6562 1140,6576C1140,6589 1144,6600 1148,6600C1153,6600 1163,6623 1170,6650C1177,6678 1187,6700 1192,6700C1196,6700 1200,6709 1200,6720C1200,6731 1205,6740 1210,6740C1216,6740 1220,6749 1220,6760C1220,6771 1225,6780 1230,6780C1236,6780 1240,6789 1240,6800C1240,6811 1244,6820 1249,6820C1254,6820 1260,6828 1263,6838C1270,6859 1300,6909 1318,6928C1324,6935 1330,6945 1330,6950C1330,6955 1336,6965 1343,6972C1350,6979 1367,7001 1380,7020C1412,7066 1575,7228 1620,7260C1639,7273 1662,7292 1671,7302C1680,7312 1691,7320 1696,7320C1701,7320 1721,7334 1740,7350C1759,7366 1779,7380 1783,7380C1787,7380 1800,7389 1812,7400C1824,7411 1840,7420 1847,7420C1854,7420 1860,7424 1860,7429C1860,7434 1868,7440 1878,7443C1895,7449 1950,7480 1960,7490C1966,7496 2046,7540 2077,7555C2090,7560 2100,7568 2100,7573C2100,7577 2109,7580 2120,7580C2131,7580 2140,7585 2140,7590C2140,7596 2149,7600 2160,7600C2171,7600 2180,7605 2180,7610C2180,7616 2189,7620 2200,7620C2211,7620 2220,7625 2220,7630C2220,7636 2229,7640 2240,7640C2251,7640 2260,7645 2260,7650C2260,7656 2269,7660 2280,7660C2291,7660 2300,7665 2300,7670C2300,7676 2309,7680 2320,7680C2331,7680 2340,7685 2340,7690C2340,7696 2349,7700 2360,7700C2371,7700 2380,7705 2380,7710C2380,7716 2389,7720 2400,7720C2411,7720 2420,7725 2420,7730C2420,7736 2429,7740 2440,7740C2451,7740 2460,7745 2460,7750C2460,7756 2469,7760 2480,7760C2491,7760 2500,7765 2500,7770C2500,7776 2506,7780 2514,7780C2526,7780 2558,7794 2632,7831C2642,7836 2657,7840 2665,7840C2673,7840 2680,7845 2680,7850C2680,7856 2689,7860 2700,7860C2711,7860 2720,7865 2720,7870C2720,7876 2729,7880 2740,7880C2751,7880 2760,7885 2760,7890C2760,7896 2767,7900 2775,7900C2783,7900 2800,7905 2813,7912C2860,7936 2870,7940 2885,7940C2893,7940 2900,7945 2900,7950C2900,7956 2909,7960 2920,7960C2931,7960 2940,7965 2940,7970C2940,7976 2949,7980 2960,7980C2971,7980 2990,7985 3003,7992C3051,8016 3060,8020 3080,8020C3091,8020 3100,8024 3100,8029C3100,8034 3115,8040 3133,8043C3221,8058 3261,8067 3267,8074C3277,8084 3553,8074 3625,8061ZM7900,3401C7930,3394 7970,3387 7988,3383C8005,3380 8020,3374 8020,3369C8020,3364 8029,3360 8040,3360C8057,3360 8074,3352 8151,3308C8190,3286 8220,3246 8220,3215C8220,3207 8225,3200 8230,3200C8244,3200 8242,3171 8227,3156C8215,3144 8192,3137 8113,3123C8095,3120 8080,3114 8080,3109C8080,3104 8070,3100 8059,3100C8037,3100 7919,3065 7888,3049C7878,3044 7859,3040 7845,3040C7831,3040 7820,3036 7820,3031C7820,3022 7780,3013 7698,3004C7657,2999 7648,3001 7625,3024C7611,3038 7600,3058 7600,3069C7600,3080 7596,3092 7590,3095C7584,3099 7580,3162 7580,3251L7580,3400L7608,3400C7623,3400 7642,3405 7650,3410C7668,3423 7824,3417 7900,3401ZM7340,3368C7362,3361 7380,3352 7380,3348C7380,3343 7389,3340 7400,3340C7419,3340 7420,3333 7420,3190C7420,3048 7419,3040 7401,3040C7390,3040 7378,3036 7375,3030C7372,3025 7358,3020 7344,3020C7331,3020 7320,3016 7320,3010C7320,3005 7307,3000 7290,3000C7274,3000 7260,2996 7260,2990C7260,2985 7247,2980 7230,2980C7214,2980 7200,2976 7200,2970C7200,2965 7187,2960 7171,2960C7154,2960 7138,2956 7135,2950C7132,2945 7116,2940 7101,2940C7086,2940 7070,2936 7065,2931C7059,2926 7037,2919 7015,2916C6993,2913 6946,2906 6910,2900C6874,2894 6813,2886 6775,2884L6704,2879L6682,2920C6670,2943 6660,2974 6660,2989C6660,3004 6656,3020 6651,3025C6642,3035 6634,3092 6624,3226C6618,3310 6617,3309 6725,3322C6764,3326 6833,3334 6880,3340C6927,3345 7016,3354 7078,3359C7140,3364 7194,3371 7197,3374C7208,3385 7299,3380 7340,3368ZM4780,3320C4968,3308 5042,3300 5055,3290C5061,3286 5077,3280 5091,3277C5105,3273 5129,3259 5146,3245C5162,3231 5179,3220 5184,3220C5189,3220 5201,3210 5211,3199C5230,3177 5230,3168 5210,3088C5204,3067 5196,3033 5191,3013C5185,2992 5175,2953 5168,2926L5155,2877L5010,2884C4645,2901 4450,2917 4435,2931C4430,2936 4416,2940 4403,2940C4390,2940 4380,2945 4380,2950C4380,2956 4369,2960 4356,2960C4342,2960 4328,2965 4325,2970C4322,2976 4311,2980 4300,2980C4290,2980 4279,2987 4276,2996C4268,3017 4268,3304 4277,3326C4283,3341 4298,3342 4454,3336C4548,3332 4695,3325 4780,3320ZM6335,3266C6396,3251 6460,3207 6460,3180C6460,3174 6465,3161 6472,3150C6482,3135 6482,3118 6472,3072C6465,3040 6460,2994 6460,2969C6460,2931 6456,2923 6433,2913C6418,2906 6392,2900 6375,2900C6358,2900 6340,2896 6334,2891C6324,2881 6288,2877 6065,2858C5884,2843 5745,2843 5595,2858C5529,2865 5450,2872 5420,2875C5309,2886 5317,2877 5324,2993C5334,3175 5342,3233 5355,3247C5365,3256 5405,3260 5507,3261C5583,3261 5663,3265 5685,3270C5733,3280 6293,3277 6335,3266ZM8379,2991C8391,2975 8400,2952 8400,2941C8400,2929 8405,2920 8410,2920C8416,2920 8420,2905 8420,2887C8420,2869 8424,2850 8429,2845C8444,2830 8452,2720 8452,2535C8453,2341 8437,2225 8405,2194C8390,2178 8310,2140 8293,2140C8286,2140 8280,2136 8280,2130C8280,2125 8267,2120 8250,2120C8234,2120 8220,2116 8220,2110C8220,2105 8209,2100 8196,2100C8182,2100 8168,2096 8165,2090C8162,2085 8146,2080 8129,2080C8113,2080 8100,2076 8100,2071C8100,2066 8084,2059 8065,2056C8046,2053 8014,2047 7995,2044C7976,2041 7957,2034 7954,2029C7951,2024 7933,2020 7914,2020C7895,2020 7880,2016 7880,2011C7880,2006 7861,1999 7838,1996C7725,1981 7704,1977 7696,1969C7690,1964 7671,1960 7653,1960C7627,1960 7620,1964 7620,1980C7620,1991 7616,2000 7611,2000C7607,2000 7599,2019 7594,2043C7584,2094 7584,2453 7595,2688C7602,2845 7604,2860 7621,2860C7631,2860 7642,2865 7645,2870C7648,2876 7666,2880 7685,2880C7704,2880 7721,2884 7724,2889C7727,2894 7748,2901 7770,2904C7792,2907 7828,2913 7850,2916C7872,2919 7893,2926 7896,2931C7899,2936 7919,2940 7940,2940C7961,2940 7982,2945 7985,2950C7988,2956 8011,2960 8035,2960C8059,2960 8082,2965 8085,2970C8088,2976 8113,2980 8140,2980C8167,2980 8192,2985 8195,2990C8198,2996 8225,3000 8253,3000C8282,3000 8312,3005 8320,3010C8344,3026 8357,3022 8379,2991ZM4485,2800C4524,2794 4584,2785 4620,2780C4656,2775 4717,2766 4755,2761C4794,2755 4854,2746 4890,2740C4926,2734 4975,2727 5000,2724C5025,2721 5049,2714 5054,2709C5060,2704 5077,2700 5092,2700C5107,2700 5120,2696 5120,2690C5120,2685 5129,2680 5140,2680C5160,2680 5160,2673 5160,2291L5160,1902L5123,1895C5102,1891 5038,1888 4980,1888C4882,1888 4832,1893 4670,1920C4634,1926 4583,1933 4555,1936C4528,1939 4501,1946 4496,1951C4490,1956 4469,1960 4448,1960C4358,1960 4340,1993 4340,2160C4340,2218 4336,2280 4331,2297C4319,2339 4312,2791 4324,2808C4330,2818 4344,2820 4374,2816C4396,2812 4447,2805 4485,2800ZM7388,2748C7403,2733 7405,2174 7390,2165C7385,2162 7380,2141 7380,2120C7380,2099 7376,2078 7370,2075C7365,2072 7360,2061 7360,2050C7360,2016 7279,1941 7220,1920C7170,1902 7139,1900 6873,1900L6580,1900L6580,2669L6612,2684C6629,2693 6653,2700 6665,2700C6676,2700 6690,2704 6696,2709C6706,2719 6752,2726 6888,2739C6940,2744 6984,2751 6988,2754C6991,2757 7079,2760 7185,2760C7320,2760 7380,2756 7388,2748ZM6420,2300C6420,2252.45 6419.98,2210.54 6419.92,2173.6C6419.5,1916.06 6416.87,1900 6402,1900C6392,1900 6380,1896 6375,1891C6353,1870 6072,1847 5840,1846C5491,1845 5360,1867 5360,1924C5360,1933 5356,1940 5351,1940C5337,1940 5326,2049 5327,2190C5328,2355 5340,2670 5345,2688C5348,2697 5465,2700 5885,2700L6420,2700L6420,2300ZM8300,1947C8300,1940 8291,1924 8280,1912C8269,1900 8260,1887 8260,1882C8260,1868 8142,1749 8100,1720C8081,1707 8056,1688 8046,1678C8035,1668 8022,1660 8018,1660C8013,1660 8000,1651 7988,1640C7976,1629 7960,1620 7953,1620C7946,1620 7940,1616 7940,1610C7940,1605 7931,1600 7920,1600C7909,1600 7900,1597 7900,1593C7900,1584 7851,1560 7833,1560C7826,1560 7820,1556 7820,1552C7820,1548 7799,1539 7773,1532C7746,1525 7711,1515 7694,1510C7677,1504 7645,1500 7622,1500L7580,1500L7580,1590C7580,1662 7584,1686 7601,1717C7624,1758 7668,1800 7688,1800C7694,1800 7700,1805 7700,1810C7700,1816 7710,1820 7723,1820C7736,1820 7750,1824 7756,1829C7761,1834 7806,1841 7855,1843C8010,1851 8068,1867 8113,1912C8129,1927 8150,1940 8161,1940C8171,1940 8180,1945 8180,1950C8180,1956 8207,1960 8240,1960C8283,1960 8300,1956 8300,1947ZM4405,1830C4411,1826 4429,1820 4445,1816C4462,1812 4493,1805 4515,1799C4619,1772 4721,1758 4920,1740C5055,1729 5092,1721 5107,1701C5115,1691 5119,1648 5120,1587C5120,1506 5116,1483 5098,1446C5085,1421 5064,1395 5050,1388C5036,1381 5022,1371 5019,1366C5011,1356 4733,1357 4717,1367C4711,1371 4654,1377 4590,1382C4527,1387 4441,1394 4400,1398L4325,1405L4322,1615C4321,1730 4322,1831 4325,1838C4330,1852 4383,1847 4405,1830ZM7360,1653C7360,1600 7354,1540 7348,1521C7329,1468 7274,1420 7232,1420C7222,1420 7210,1416 7205,1411C7199,1406 7170,1399 7140,1396C7110,1392 7049,1385 7005,1380C6838,1359 6752,1350 6668,1344L6580,1338L6580,1678L6688,1684C6814,1692 6969,1705 7095,1720C7145,1726 7221,1734 7265,1739C7309,1743 7348,1747 7353,1748C7357,1749 7360,1706 7360,1653ZM6135,1662L6395,1655L6398,1513C6401,1372 6400,1370 6378,1366C6190,1327 5960,1307 5685,1307C5468,1306 5424,1310 5375,1330C5364,1334 5347,1341 5338,1344C5322,1349 5320,1366 5320,1516L5320,1682L5598,1675C5750,1672 5992,1666 6135,1662Z" style="fill-rule:nonzero;"/>
            </g>
            <g transform="matrix(0.1,0,0,-0.1,0,1638)">
                <path d="M2518,7274C2514,7270 2433,7263 2338,7259C2096,7246 2026,7240 2016,7229C2010,7224 1998,7220 1988,7220C1978,7220 1962,7216 1952,7211C1943,7206 1917,7194 1895,7183C1845,7158 1806,7137 1800,7129C1797,7126 1785,7118 1772,7111C1719,7083 1500,6866 1500,6842C1500,6837 1492,6825 1483,6814C1460,6789 1430,6740 1423,6718C1420,6708 1414,6700 1409,6700C1404,6700 1400,6691 1400,6680C1400,6669 1396,6660 1390,6660C1385,6660 1380,6651 1380,6640C1380,6629 1376,6620 1370,6620C1365,6620 1360,6611 1360,6600C1360,6589 1356,6572 1351,6562C1330,6520 1317,6482 1290,6370C1264,6268 1258,6026 1278,5915C1284,5882 1292,5838 1296,5817C1299,5797 1306,5777 1311,5774C1316,5771 1320,5758 1320,5745C1320,5732 1324,5718 1330,5715C1335,5712 1340,5698 1340,5684C1340,5671 1345,5660 1350,5660C1356,5660 1360,5651 1360,5640C1360,5629 1365,5620 1370,5620C1376,5620 1380,5614 1380,5607C1380,5589 1404,5540 1413,5540C1417,5540 1420,5531 1420,5520C1420,5509 1424,5500 1428,5500C1433,5500 1443,5488 1451,5473C1459,5457 1473,5438 1482,5429C1492,5420 1500,5408 1500,5402C1500,5389 1696,5190 1709,5190C1715,5190 1729,5180 1742,5168C1755,5155 1777,5139 1793,5131C1808,5123 1820,5113 1820,5108C1820,5104 1829,5100 1840,5100C1851,5100 1860,5096 1860,5091C1860,5086 1868,5080 1878,5077C1887,5074 1906,5064 1920,5056C1958,5033 2032,5000 2047,5000C2054,5000 2060,4996 2060,4990C2060,4985 2074,4980 2090,4980C2107,4980 2120,4976 2120,4970C2120,4965 2138,4960 2160,4960C2182,4960 2200,4956 2200,4951C2200,4927 2664,4901 3470,4880C5417,4827 6866,4823 6915,4871C6920,4876 6943,4880 6966,4880C6990,4880 7012,4885 7015,4890C7018,4896 7032,4900 7045,4900C7058,4900 7082,4905 7097,4911C7112,4917 7136,4927 7150,4932C7164,4938 7183,4946 7192,4951C7202,4956 7217,4960 7225,4960C7233,4960 7240,4965 7240,4970C7240,4976 7249,4980 7260,4980C7271,4980 7280,4984 7280,4989C7280,4994 7288,5000 7298,5003C7319,5010 7369,5040 7388,5058C7395,5064 7405,5070 7410,5070C7415,5070 7425,5076 7432,5083C7439,5090 7461,5107 7480,5120C7523,5150 7680,5308 7680,5321C7680,5327 7689,5340 7700,5352C7711,5364 7720,5380 7720,5387C7720,5394 7725,5400 7730,5400C7736,5400 7740,5409 7740,5420C7740,5431 7743,5440 7748,5440C7756,5440 7780,5489 7780,5507C7780,5514 7785,5520 7790,5520C7796,5520 7800,5529 7800,5539C7800,5550 7805,5562 7810,5565C7816,5568 7820,5582 7820,5595C7820,5608 7825,5622 7830,5625C7836,5628 7840,5644 7840,5660C7840,5676 7844,5692 7850,5695C7856,5698 7860,5719 7860,5740C7860,5761 7864,5781 7869,5784C7880,5791 7892,5927 7893,6040C7893,6115 7889,6157 7864,6328C7861,6351 7854,6373 7849,6376C7844,6379 7840,6394 7840,6410C7840,6426 7836,6442 7830,6445C7825,6448 7820,6462 7820,6476C7820,6489 7816,6500 7810,6500C7805,6500 7800,6506 7800,6514C7800,6531 7739,6654 7728,6658C7724,6660 7720,6670 7720,6681C7720,6691 7716,6700 7712,6700C7708,6700 7696,6713 7687,6730C7677,6746 7664,6765 7657,6772C7650,6779 7633,6801 7620,6820C7589,6864 7423,7030 7390,7049C7376,7057 7347,7072 7325,7083C7303,7094 7277,7106 7268,7111C7258,7116 7241,7120 7231,7120C7220,7120 7208,7124 7205,7130C7202,7135 7184,7140 7166,7140C7149,7140 7130,7144 7125,7149C7119,7154 7090,7161 7060,7164C7030,7168 6967,7175 6920,7180C6681,7208 6110,7233 5045,7261C4584,7273 2527,7284 2518,7274ZM4715,7065C4748,7061 4779,7054 4785,7049C4790,7044 4803,7040 4814,7040C4832,7040 4960,6920 4960,6902C4960,6898 4968,6885 4978,6874C5012,6836 5034,6730 5010,6715C5005,6712 5000,6696 5000,6680C5000,6664 4996,6648 4990,6645C4985,6642 4980,6628 4980,6615C4980,6602 4976,6588 4970,6585C4965,6582 4960,6568 4960,6555C4960,6542 4956,6529 4951,6526C4946,6523 4940,6506 4937,6488C4933,6470 4926,6430 4920,6400C4899,6297 4890,6095 4900,5962C4913,5793 4920,5737 4931,5725C4936,5720 4940,5699 4940,5679C4940,5658 4945,5638 4950,5635C4956,5632 4960,5616 4960,5600C4960,5584 4965,5568 4970,5565C4976,5562 4980,5546 4980,5529C4980,5513 4985,5500 4990,5500C4996,5500 5000,5487 5000,5471C5000,5454 5005,5438 5010,5435C5016,5432 5020,5416 5020,5400C5020,5384 5025,5368 5030,5365C5036,5362 5040,5346 5040,5329C5040,5313 5045,5300 5050,5300C5066,5300 5040,5264 5011,5247C4997,5239 4972,5220 4955,5206C4939,5192 4921,5180 4917,5180C4913,5180 4900,5171 4888,5160C4876,5149 4860,5140 4853,5140C4846,5140 4840,5136 4840,5130C4840,5125 4831,5120 4820,5120C4809,5120 4800,5116 4800,5110C4800,5105 4787,5100 4770,5100C4754,5100 4740,5096 4740,5090C4740,5085 4725,5080 4707,5080C4689,5080 4670,5076 4665,5071C4642,5048 4149,5053 3725,5079C3377,5101 3199,5118 3185,5131C3180,5136 3163,5140 3148,5140C3133,5140 3120,5145 3120,5150C3120,5156 3113,5160 3105,5160C3087,5160 3059,5182 3000,5241C2939,5303 2904,5344 2889,5372C2882,5385 2874,5397 2871,5400C2863,5407 2844,5440 2809,5513C2792,5547 2775,5583 2769,5592C2764,5602 2760,5617 2760,5625C2760,5633 2756,5640 2750,5640C2745,5640 2740,5651 2740,5663C2740,5676 2737,5690 2733,5693C2722,5705 2681,5833 2680,5858C2680,5870 2676,5880 2670,5880C2665,5880 2660,5897 2660,5918C2660,5939 2656,5960 2651,5965C2636,5982 2628,6068 2628,6225C2627,6367 2633,6425 2660,6530C2666,6555 2674,6590 2677,6608C2680,6625 2686,6640 2691,6640C2696,6640 2700,6649 2700,6660C2700,6671 2704,6688 2709,6698C2714,6707 2737,6755 2760,6804C2847,6984 2940,7058 3086,7061C3113,7062 3146,7066 3160,7070C3190,7080 4627,7075 4715,7065ZM6720,7001C6910,6986 7060,6963 7060,6949C7060,6944 7071,6940 7084,6940C7098,6940 7112,6936 7115,6930C7118,6925 7130,6920 7141,6920C7151,6920 7160,6916 7160,6911C7160,6906 7168,6900 7178,6897C7199,6890 7249,6860 7268,6843C7275,6836 7286,6830 7291,6830C7308,6830 7527,6607 7534,6583C7538,6570 7545,6560 7549,6560C7554,6560 7563,6547 7570,6530C7577,6514 7586,6500 7591,6500C7596,6500 7600,6491 7600,6480C7600,6469 7605,6460 7610,6460C7616,6460 7620,6451 7620,6441C7620,6430 7625,6418 7630,6415C7636,6412 7640,6398 7640,6384C7640,6371 7645,6360 7650,6360C7656,6360 7660,6345 7660,6327C7660,6309 7664,6290 7669,6285C7693,6259 7700,5984 7681,5850C7675,5803 7667,5746 7664,5723C7661,5699 7654,5680 7649,5680C7644,5680 7640,5669 7640,5655C7640,5642 7635,5618 7629,5603C7623,5588 7614,5566 7610,5555C7601,5531 7569,5465 7549,5430C7531,5398 7392,5260 7378,5260C7372,5260 7360,5252 7351,5243C7333,5223 7284,5191 7258,5183C7248,5180 7240,5174 7240,5169C7240,5164 7231,5160 7220,5160C7209,5160 7200,5156 7200,5150C7200,5145 7191,5140 7181,5140C7170,5140 7158,5136 7155,5130C7152,5125 7138,5120 7124,5120C7111,5120 7100,5116 7100,5110C7100,5105 7087,5100 7071,5100C7054,5100 7038,5096 7035,5090C7032,5085 7012,5080 6991,5080C6971,5080 6950,5076 6945,5071C6926,5053 6780,5048 6230,5047C5702,5046 5637,5048 5478,5076C5457,5079 5440,5086 5440,5091C5440,5096 5433,5100 5426,5100C5418,5100 5398,5117 5383,5137C5368,5158 5343,5188 5328,5204C5312,5220 5300,5239 5300,5246C5300,5254 5296,5260 5292,5260C5287,5260 5277,5272 5269,5288C5261,5303 5253,5317 5250,5320C5240,5330 5209,5385 5203,5403C5200,5412 5194,5420 5189,5420C5184,5420 5180,5431 5180,5444C5180,5458 5176,5471 5171,5474C5166,5477 5159,5492 5156,5507C5152,5523 5145,5553 5139,5575C5098,5738 5088,5840 5088,6100C5088,6353 5095,6468 5111,6485C5116,6490 5120,6509 5120,6526C5120,6544 5125,6562 5130,6565C5136,6568 5140,6580 5140,6591C5140,6601 5144,6618 5149,6628C5210,6750 5222,6770 5243,6794C5252,6805 5260,6818 5260,6823C5260,6837 5351,6920 5367,6920C5374,6920 5380,6923 5380,6928C5380,6932 5395,6941 5413,6948C5430,6955 5453,6966 5462,6971C5472,6976 5491,6980 5504,6980C5518,6980 5532,6985 5535,6990C5538,6996 5567,7000 5598,7000C5629,7000 5662,7005 5670,7010C5689,7023 6540,7015 6720,7001Z" style="fill-rule:nonzero;"/>
            </g>
            <g transform="matrix(0.1,0,0,-0.1,0,1638)">
                <path d="M4150,6330C4142,6325 4123,6320 4108,6320C4092,6320 4080,6316 4080,6310C4080,6305 4073,6300 4065,6300C4048,6300 3993,6247 3971,6210C3961,6193 3956,6133 3952,6003L3947,5820L4490,5820L4490,6060C4490,6284 4489,6300 4472,6300C4462,6300 4450,6304 4445,6309C4425,6328 4173,6346 4150,6330Z" style="fill-rule:nonzero;"/>
            </g>
            <g transform="matrix(0.1,0,0,-0.1,0,1638)">
                <path d="M7000,6291C6992,6286 6972,6276 6955,6269C6920,6253 6860,6192 6860,6173C6860,6166 6856,6160 6850,6160C6845,6160 6840,6149 6840,6136C6840,6122 6836,6108 6830,6105C6824,6102 6820,6055 6820,5999C6820,5940 6824,5900 6830,5900C6836,5900 6840,5893 6840,5885C6840,5867 6904,5800 6920,5800C6926,5800 6938,5796 6948,5791C6986,5771 7097,5758 7136,5769C7158,5775 7207,5780 7246,5780C7315,5780 7318,5781 7328,5808C7334,5823 7340,5894 7341,5965C7345,6188 7346,6183 7298,6233C7270,6262 7242,6280 7220,6285C7165,6296 7017,6300 7000,6291Z" style="fill-rule:nonzero;"/>
            </g>
            <path d="M667,358C671.552,279.486 676.118,200.743 688,123C688.767,117.981 696.926,128.812 702,129C706.64,129.172 714.412,119.395 715,124C724.823,200.892 734.52,278.563 731,356C730.564,365.588 713.593,365.7 704,366C691.388,366.394 678.931,362.107 667,358Z" style="fill:rgb(152,194,214);"/>
            <g>
                <g transform="matrix(0.1,0,0,-0.1,0,1638)">
                    <path d="M6135,1662L6395,1655L6398,1513C6401,1372 6400,1370 6378,1366C6190,1327 5960,1307 5685,1307C5468,1306 5424,1310 5375,1330C5364,1334 5347,1341 5338,1344C5322,1349 5320,1366 5320,1516L5320,1682L5598,1675C5750,1672 5992,1666 6135,1662Z" style="fill:rgb(255,250,191);"/>
                </g>
                <g transform="matrix(0.1,0,0,-0.1,0,1638)">
                    <path d="M7360,1653C7360,1600 7354,1540 7348,1521C7329,1468 7274,1420 7232,1420C7222,1420 7210,1416 7205,1411C7199,1406 7170,1399 7140,1396C7110,1392 7049,1385 7005,1380C6838,1359 6752,1350 6668,1344L6580,1338L6580,1678L6688,1684C6814,1692 6969,1705 7095,1720C7145,1726 7221,1734 7265,1739C7309,1743 7348,1747 7353,1748C7357,1749 7360,1706 7360,1653Z" style="fill:rgb(255,250,191);"/>
                </g>
                <g transform="matrix(0.1,0,0,-0.1,0,1638)">
                    <path d="M4405,1830C4411,1826 4429,1820 4445,1816C4462,1812 4493,1805 4515,1799C4619,1772 4721,1758 4920,1740C5055,1729 5092,1721 5107,1701C5115,1691 5119,1648 5120,1587C5120,1506 5116,1483 5098,1446C5085,1421 5064,1395 5050,1388C5036,1381 5022,1371 5019,1366C5011,1356 4733,1357 4717,1367C4711,1371 4654,1377 4590,1382C4527,1387 4441,1394 4400,1398L4325,1405L4322,1615C4321,1730 4322,1831 4325,1838C4330,1852 4383,1847 4405,1830Z" style="fill:rgb(255,250,191);"/>
                </g>
                <g transform="matrix(0.1,0,0,-0.1,0,1638)">
                    <path d="M8300,1947C8300,1940 8291,1924 8280,1912C8269,1900 8260,1887 8260,1882C8260,1868 8142,1749 8100,1720C8081,1707 8056,1688 8046,1678C8035,1668 8022,1660 8018,1660C8013,1660 8000,1651 7988,1640C7976,1629 7960,1620 7953,1620C7946,1620 7940,1616 7940,1610C7940,1605 7931,1600 7920,1600C7909,1600 7900,1597 7900,1593C7900,1584 7851,1560 7833,1560C7826,1560 7820,1556 7820,1552C7820,1548 7799,1539 7773,1532C7746,1525 7711,1515 7694,1510C7677,1504 7645,1500 7622,1500L7580,1500L7580,1590C7580,1662 7584,1686 7601,1717C7624,1758 7668,1800 7688,1800C7694,1800 7700,1805 7700,1810C7700,1816 7710,1820 7723,1820C7736,1820 7750,1824 7756,1829C7761,1834 7806,1841 7855,1843C8010,1851 8068,1867 8113,1912C8129,1927 8150,1940 8161,1940C8171,1940 8180,1945 8180,1950C8180,1956 8207,1960 8240,1960C8283,1960 8300,1956 8300,1947Z" style="fill:rgb(255,250,191);"/>
                </g>
                <g transform="matrix(0.1,0,0,-0.1,0,1638)">
                    <path d="M6420,2300C6420,1921 6419,1900 6402,1900C6392,1900 6380,1896 6375,1891C6353,1870 6072,1847 5840,1846C5491,1845 5360,1867 5360,1924C5360,1933 5356,1940 5351,1940C5337,1940 5326,2049 5327,2190C5328,2355 5340,2670 5345,2688C5348,2697 5465,2700 5885,2700L6420,2700L6420,2300Z" style="fill:rgb(255,250,191);"/>
                </g>
                <g transform="matrix(0.1,0,0,-0.1,0,1638)">
                    <path d="M4485,2800C4524,2794 4584,2785 4620,2780C4656,2775 4717,2766 4755,2761C4794,2755 4854,2746 4890,2740C4926,2734 4975,2727 5000,2724C5025,2721 5049,2714 5054,2709C5060,2704 5077,2700 5092,2700C5107,2700 5120,2696 5120,2690C5120,2685 5129,2680 5140,2680C5160,2680 5160,2673 5160,2291L5160,1902L5123,1895C5102,1891 5038,1888 4980,1888C4882,1888 4832,1893 4670,1920C4634,1926 4583,1933 4555,1936C4528,1939 4501,1946 4496,1951C4490,1956 4469,1960 4448,1960C4358,1960 4340,1993 4340,2160C4340,2218 4336,2280 4331,2297C4319,2339 4312,2791 4324,2808C4330,2818 4344,2820 4374,2816C4396,2812 4447,2805 4485,2800Z" style="fill:rgb(255,250,191);"/>
                </g>
                <g transform="matrix(0.1,0,0,-0.1,0,1638)">
                    <path d="M7388,2748C7403,2733 7405,2174 7390,2165C7385,2162 7380,2141 7380,2120C7380,2099 7376,2078 7370,2075C7365,2072 7360,2061 7360,2050C7360,2016 7279,1941 7220,1920C7170,1902 7139,1900 6873,1900L6580,1900L6580,2669L6612,2684C6629,2693 6653,2700 6665,2700C6676,2700 6690,2704 6696,2709C6706,2719 6752,2726 6888,2739C6940,2744 6984,2751 6988,2754C6991,2757 7079,2760 7185,2760C7320,2760 7380,2756 7388,2748Z" style="fill:rgb(255,250,191);"/>
                </g>
                <g transform="matrix(0.1,0,0,-0.1,0,1638)">
                    <path d="M8379,2991C8391,2975 8400,2952 8400,2941C8400,2929 8405,2920 8410,2920C8416,2920 8420,2905 8420,2887C8420,2869 8424,2850 8429,2845C8444,2830 8452,2720 8452,2535C8453,2341 8437,2225 8405,2194C8390,2178 8310,2140 8293,2140C8286,2140 8280,2136 8280,2130C8280,2125 8267,2120 8250,2120C8234,2120 8220,2116 8220,2110C8220,2105 8209,2100 8196,2100C8182,2100 8168,2096 8165,2090C8162,2085 8146,2080 8129,2080C8113,2080 8100,2076 8100,2071C8100,2066 8084,2059 8065,2056C8046,2053 8014,2047 7995,2044C7976,2041 7957,2034 7954,2029C7951,2024 7933,2020 7914,2020C7895,2020 7880,2016 7880,2011C7880,2006 7861,1999 7838,1996C7725,1981 7704,1977 7696,1969C7690,1964 7671,1960 7653,1960C7627,1960 7620,1964 7620,1980C7620,1991 7616,2000 7611,2000C7607,2000 7599,2019 7594,2043C7584,2094 7584,2453 7595,2688C7602,2845 7604,2860 7621,2860C7631,2860 7642,2865 7645,2870C7648,2876 7666,2880 7685,2880C7704,2880 7721,2884 7724,2889C7727,2894 7748,2901 7770,2904C7792,2907 7828,2913 7850,2916C7872,2919 7893,2926 7896,2931C7899,2936 7919,2940 7940,2940C7961,2940 7982,2945 7985,2950C7988,2956 8011,2960 8035,2960C8059,2960 8082,2965 8085,2970C8088,2976 8113,2980 8140,2980C8167,2980 8192,2985 8195,2990C8198,2996 8225,3000 8253,3000C8282,3000 8312,3005 8320,3010C8344,3026 8357,3022 8379,2991Z" style="fill:rgb(255,250,191);"/>
                </g>
                <g transform="matrix(0.1,0,0,-0.1,0,1638)">
                    <path d="M6335,3266C6396,3251 6460,3207 6460,3180C6460,3174 6465,3161 6472,3150C6482,3135 6482,3118 6472,3072C6465,3040 6460,2994 6460,2969C6460,2931 6456,2923 6433,2913C6418,2906 6392,2900 6375,2900C6358,2900 6340,2896 6334,2891C6324,2881 6288,2877 6065,2858C5884,2843 5745,2843 5595,2858C5529,2865 5450,2872 5420,2875C5309,2886 5317,2877 5324,2993C5334,3175 5342,3233 5355,3247C5365,3256 5405,3260 5507,3261C5583,3261 5663,3265 5685,3270C5733,3280 6293,3277 6335,3266Z" style="fill:rgb(255,250,191);"/>
                </g>
                <g transform="matrix(0.1,0,0,-0.1,0,1638)">
                    <path d="M4780,3320C4968,3308 5042,3300 5055,3290C5061,3286 5077,3280 5091,3277C5105,3273 5129,3259 5146,3245C5162,3231 5179,3220 5184,3220C5189,3220 5201,3210 5211,3199C5230,3177 5230,3168 5210,3088C5204,3067 5196,3033 5191,3013C5185,2992 5175,2953 5168,2926L5155,2877L5010,2884C4645,2901 4450,2917 4435,2931C4430,2936 4416,2940 4403,2940C4390,2940 4380,2945 4380,2950C4380,2956 4369,2960 4356,2960C4342,2960 4328,2965 4325,2970C4322,2976 4311,2980 4300,2980C4290,2980 4279,2987 4276,2996C4268,3017 4268,3304 4277,3326C4283,3341 4298,3342 4454,3336C4548,3332 4695,3325 4780,3320Z" style="fill:rgb(255,250,191);"/>
                </g>
                <g transform="matrix(0.1,0,0,-0.1,0,1638)">
                    <path d="M7340,3368C7362,3361 7380,3352 7380,3348C7380,3343 7389,3340 7400,3340C7419,3340 7420,3333 7420,3190C7420,3048 7419,3040 7401,3040C7390,3040 7378,3036 7375,3030C7372,3025 7358,3020 7344,3020C7331,3020 7320,3016 7320,3010C7320,3005 7307,3000 7290,3000C7274,3000 7260,2996 7260,2990C7260,2985 7247,2980 7230,2980C7214,2980 7200,2976 7200,2970C7200,2965 7187,2960 7171,2960C7154,2960 7138,2956 7135,2950C7132,2945 7116,2940 7101,2940C7086,2940 7070,2936 7065,2931C7059,2926 7037,2919 7015,2916C6993,2913 6946,2906 6910,2900C6874,2894 6813,2886 6775,2884L6704,2879L6682,2920C6670,2943 6660,2974 6660,2989C6660,3004 6656,3020 6651,3025C6642,3035 6634,3092 6624,3226C6618,3310 6617,3309 6725,3322C6764,3326 6833,3334 6880,3340C6927,3345 7016,3354 7078,3359C7140,3364 7194,3371 7197,3374C7208,3385 7299,3380 7340,3368Z" style="fill:rgb(255,250,191);"/>
                </g>
                <g transform="matrix(0.1,0,0,-0.1,0,1638)">
                    <path d="M7900,3401C7930,3394 7970,3387 7988,3383C8005,3380 8020,3374 8020,3369C8020,3364 8029,3360 8040,3360C8057,3360 8074,3352 8151,3308C8190,3286 8220,3246 8220,3215C8220,3207 8225,3200 8230,3200C8244,3200 8242,3171 8227,3156C8215,3144 8192,3137 8113,3123C8095,3120 8080,3114 8080,3109C8080,3104 8070,3100 8059,3100C8037,3100 7919,3065 7888,3049C7878,3044 7859,3040 7845,3040C7831,3040 7820,3036 7820,3031C7820,3022 7780,3013 7698,3004C7657,2999 7648,3001 7625,3024C7611,3038 7600,3058 7600,3069C7600,3080 7596,3092 7590,3095C7584,3099 7580,3162 7580,3251L7580,3400L7608,3400C7623,3400 7642,3405 7650,3410C7668,3423 7824,3417 7900,3401Z" style="fill:rgb(255,250,191);"/>
                </g>
            </g>
        </g>
    </g>
    <g id="Badge" transform="matrix(0.941581,0,0,0.941581,2,44.7354)">
        <circle cx="145.5" cy="654.5" r="145.5"/>
        <path d="M145.5,509C225.804,509 291,574.196 291,654.5C291,734.804 225.804,800 145.5,800C65.196,800 0,734.804 0,654.5C0,574.196 65.196,509 145.5,509ZM145.5,519.089C220.235,519.089 280.911,579.765 280.911,654.5C280.911,729.235 220.235,789.911 145.5,789.911C70.765,789.911 10.089,729.235 10.089,654.5C10.089,579.765 70.765,519.089 145.5,519.089Z" style="fill:white;"/>
        <g transform="matrix(0.956835,0,0,0.956835,1.76984,19.0057)">
            <path d="M153.1,689.8L177.08,726.98C184.56,738.64 188.74,746.12 192.92,754.04L251.22,754.04C241.98,742.82 235.82,734.9 228.78,725L180.16,656.8L221.52,598.72C229.22,587.72 234.5,580.9 242.42,571L185.88,571C182.36,579.36 178.62,585.96 169.82,599.82L153.32,625.56L136.6,600.04C128.68,587.94 123.84,579.14 120.32,571L63.34,571C71.48,580.68 78.08,589.26 84.9,599.16L126.04,657.02L77.64,725C71.26,733.8 66.86,739.52 54.98,754.04L113.28,754.04C118.78,743.92 123.4,736.22 129.34,726.98L153.1,689.8Z" style="fill:white;fill-rule:nonzero;"/>
        </g>
    </g>
</svg>
