<?xml version="1.0" encoding="UTF-8" standalone="no"?>
<!DOCTYPE svg PUBLIC "-//W3C//DTD SVG 1.1//EN" "http://www.w3.org/Graphics/SVG/1.1/DTD/svg11.dtd">
<svg width="100%" height="100%" viewBox="0 0 800 800" version="1.1" xmlns="http://www.w3.org/2000/svg" xmlns:xlink="http://www.w3.org/1999/xlink" xml:space="preserve" xmlns:serif="http://www.serif.com/" style="fill-rule:evenodd;clip-rule:evenodd;stroke-linejoin:round;stroke-miterlimit:2;">
    <g id="Slack" transform="matrix(1,0,0,1,-37.0645,-18.0645)">
        <g id="BG" transform="matrix(1,0,0,1,37.0645,18.0645)">
            <circle cx="400" cy="400" r="398" style="fill:white;"/>
            <path d="M400,2C619.662,2 798,180.338 798,400C798,619.662 619.662,798 400,798C180.338,798 2,619.662 2,400C2,180.338 180.338,2 400,2ZM400,37C600.345,37 763,199.655 763,400C763,600.345 600.345,763 400,763C199.655,763 37,600.345 37,400C37,199.655 199.655,37 400,37Z"/>
        </g>
        <g transform="matrix(3.02087e-18,0.0493345,0.0493345,-3.02087e-18,171.03,-50.1894)">
            <g transform="matrix(6.12323e-17,1,-1,6.12323e-17,14782.5,-4142.23)">
                <path d="M5240,5094C5171,5080 5085,5054 5010,5024C4827,4951 4593,4748 4504,4585C4418,4429 4378,4319 4355,4175C4280,3717 4525,3243 4945,3031C5266,2870 5625,2870 5945,3033C6075,3100 6221,3219 6302,3325C6314,3342 6327,3357 6330,3360C6360,3386 6456,3568 6485,3655C6543,3825 6550,3918 6550,4552L6550,5110L5928,5109C5455,5108 5289,5104 5240,5094Z" style="fill:rgb(223,28,90);fill-rule:nonzero;"/>
            </g>
            <g transform="matrix(1,0,0,1,0,60.8094)">
                <path d="M5240,5094C5171,5080 5085,5054 5010,5024C4827,4951 4593,4748 4504,4585C4418,4429 4378,4319 4355,4175C4280,3717 4525,3243 4945,3031C5266,2870 5625,2870 5945,3033C6075,3100 6221,3219 6302,3325C6314,3342 6327,3357 6330,3360C6360,3386 6456,3568 6485,3655C6543,3825 6550,3918 6550,4552L6550,5110L5928,5109C5455,5108 5289,5104 5240,5094Z" style="fill-rule:nonzero;"/>
            </g>
            <g transform="matrix(1,0,0,1,0,60.8094)">
                <path d="M8008,5094C7789,5051 7597,4948 7439,4791C7297,4648 7197,4479 7149,4300C7111,4157 7110,4144 7110,2630C7110,1376 7112,1152 7125,1073C7192,662 7472,334 7874,196C8241,70 8671,166 8964,439C9014,486 9116,614 9161,685C9196,740 9226,807 9255,895C9312,1064 9310,997 9310,2627C9310,3626 9307,4147 9300,4182C9248,4445 9150,4630 8968,4806C8809,4961 8628,5051 8382,5100C8310,5114 8090,5111 8008,5094Z" style="fill-rule:nonzero;"/>
            </g>
            <g transform="matrix(6.12323e-17,1,-1,6.12323e-17,14782.5,-4142.23)">
                <path d="M8008,5094C7789,5051 7597,4948 7439,4791C7297,4648 7197,4479 7149,4300C7111,4157 7110,4144 7110,2630C7110,1376 7112,1152 7125,1073C7192,662 7472,334 7874,196C8241,70 8671,166 8964,439C9014,486 9116,614 9161,685C9196,740 9226,807 9255,895C9312,1064 9310,997 9310,2627C9310,3626 9307,4147 9300,4182C9248,4445 9150,4630 8968,4806C8809,4961 8628,5051 8382,5100C8310,5114 8090,5111 8008,5094Z" style="fill:rgb(223,28,90);fill-rule:nonzero;"/>
            </g>
            <g transform="matrix(1,0,0,1,0,60.8094)">
                <path d="M5240,5094C5171,5080 5085,5054 5010,5024C4827,4951 4593,4748 4504,4585C4418,4429 4378,4319 4355,4175C4280,3717 4525,3243 4945,3031C5266,2870 5625,2870 5945,3033C6075,3100 6221,3219 6302,3325C6314,3342 6327,3357 6330,3360C6360,3386 6456,3568 6485,3655C6543,3825 6550,3918 6550,4552L6550,5110L5928,5109C5455,5108 5289,5104 5240,5094Z" style="fill:rgb(54,197,240);fill-rule:nonzero;"/>
            </g>
            <g transform="matrix(1,0,0,1,0,60.8094)">
                <path d="M8008,5094C7789,5051 7597,4948 7439,4791C7297,4648 7197,4479 7149,4300C7111,4157 7110,4144 7110,2630C7110,1376 7112,1152 7125,1073C7192,662 7472,334 7874,196C8241,70 8671,166 8964,439C9014,486 9116,614 9161,685C9196,740 9226,807 9255,895C9312,1064 9310,997 9310,2627C9310,3626 9307,4147 9300,4182C9248,4445 9150,4630 8968,4806C8809,4961 8628,5051 8382,5100C8310,5114 8090,5111 8008,5094Z" style="fill:rgb(54,197,240);fill-rule:nonzero;"/>
            </g>
        </g>
        <g transform="matrix(3.02087e-18,-0.0493345,-0.0493345,-3.02087e-18,703.099,886.318)">
            <g transform="matrix(6.12323e-17,1,-1,6.12323e-17,14782.5,-4142.23)">
                <path d="M5240,5094C5171,5080 5085,5054 5010,5024C4827,4951 4593,4748 4504,4585C4418,4429 4378,4319 4355,4175C4280,3717 4525,3243 4945,3031C5266,2870 5625,2870 5945,3033C6075,3100 6221,3219 6302,3325C6314,3342 6327,3357 6330,3360C6360,3386 6456,3568 6485,3655C6543,3825 6550,3918 6550,4552L6550,5110L5928,5109C5455,5108 5289,5104 5240,5094Z" style="fill:rgb(46,182,126);fill-rule:nonzero;"/>
            </g>
            <g transform="matrix(1,0,0,1,0,60.8094)">
                <path d="M5240,5094C5171,5080 5085,5054 5010,5024C4827,4951 4593,4748 4504,4585C4418,4429 4378,4319 4355,4175C4280,3717 4525,3243 4945,3031C5266,2870 5625,2870 5945,3033C6075,3100 6221,3219 6302,3325C6314,3342 6327,3357 6330,3360C6360,3386 6456,3568 6485,3655C6543,3825 6550,3918 6550,4552L6550,5110L5928,5109C5455,5108 5289,5104 5240,5094Z" style="fill-rule:nonzero;"/>
            </g>
            <g transform="matrix(1,0,0,1,0,60.8094)">
                <path d="M8008,5094C7789,5051 7597,4948 7439,4791C7297,4648 7197,4479 7149,4300C7111,4157 7110,4144 7110,2630C7110,1376 7112,1152 7125,1073C7192,662 7472,334 7874,196C8241,70 8671,166 8964,439C9014,486 9116,614 9161,685C9196,740 9226,807 9255,895C9312,1064 9310,997 9310,2627C9310,3626 9307,4147 9300,4182C9248,4445 9150,4630 8968,4806C8809,4961 8628,5051 8382,5100C8310,5114 8090,5111 8008,5094Z" style="fill-rule:nonzero;"/>
            </g>
            <g transform="matrix(6.12323e-17,1,-1,6.12323e-17,14782.5,-4142.23)">
                <path d="M8008,5094C7789,5051 7597,4948 7439,4791C7297,4648 7197,4479 7149,4300C7111,4157 7110,4144 7110,2630C7110,1376 7112,1152 7125,1073C7192,662 7472,334 7874,196C8241,70 8671,166 8964,439C9014,486 9116,614 9161,685C9196,740 9226,807 9255,895C9312,1064 9310,997 9310,2627C9310,3626 9307,4147 9300,4182C9248,4445 9150,4630 8968,4806C8809,4961 8628,5051 8382,5100C8310,5114 8090,5111 8008,5094Z" style="fill:rgb(46,182,126);fill-rule:nonzero;"/>
            </g>
            <g transform="matrix(1,0,0,1,0,60.8094)">
                <path d="M5240,5094C5171,5080 5085,5054 5010,5024C4827,4951 4593,4748 4504,4585C4418,4429 4378,4319 4355,4175C4280,3717 4525,3243 4945,3031C5266,2870 5625,2870 5945,3033C6075,3100 6221,3219 6302,3325C6314,3342 6327,3357 6330,3360C6360,3386 6456,3568 6485,3655C6543,3825 6550,3918 6550,4552L6550,5110L5928,5109C5455,5108 5289,5104 5240,5094Z" style="fill:rgb(235,178,44);fill-rule:nonzero;"/>
            </g>
            <g transform="matrix(1,0,0,1,0,60.8094)">
                <path d="M8008,5094C7789,5051 7597,4948 7439,4791C7297,4648 7197,4479 7149,4300C7111,4157 7110,4144 7110,2630C7110,1376 7112,1152 7125,1073C7192,662 7472,334 7874,196C8241,70 8671,166 8964,439C9014,486 9116,614 9161,685C9196,740 9226,807 9255,895C9312,1064 9310,997 9310,2627C9310,3626 9307,4147 9300,4182C9248,4445 9150,4630 8968,4806C8809,4961 8628,5051 8382,5100C8310,5114 8090,5111 8008,5094Z" style="fill:rgb(235,178,44);fill-rule:nonzero;"/>
            </g>
        </g>
    </g>
    <g id="Badge" transform="matrix(0.941581,0,0,0.941581,2,44.7354)">
        <circle cx="145.5" cy="654.5" r="145.5"/>
        <path d="M145.5,509C225.804,509 291,574.196 291,654.5C291,734.804 225.804,800 145.5,800C65.196,800 0,734.804 0,654.5C0,574.196 65.196,509 145.5,509ZM145.5,519.089C220.235,519.089 280.911,579.765 280.911,654.5C280.911,729.235 220.235,789.911 145.5,789.911C70.765,789.911 10.089,729.235 10.089,654.5C10.089,579.765 70.765,519.089 145.5,519.089Z" style="fill:white;"/>
        <g transform="matrix(0.956835,0,0,0.956835,1.76984,19.0057)">
            <path d="M153.1,689.8L177.08,726.98C184.56,738.64 188.74,746.12 192.92,754.04L251.22,754.04C241.98,742.82 235.82,734.9 228.78,725L180.16,656.8L221.52,598.72C229.22,587.72 234.5,580.9 242.42,571L185.88,571C182.36,579.36 178.62,585.96 169.82,599.82L153.32,625.56L136.6,600.04C128.68,587.94 123.84,579.14 120.32,571L63.34,571C71.48,580.68 78.08,589.26 84.9,599.16L126.04,657.02L77.64,725C71.26,733.8 66.86,739.52 54.98,754.04L113.28,754.04C118.78,743.92 123.4,736.22 129.34,726.98L153.1,689.8Z" style="fill:white;fill-rule:nonzero;"/>
        </g>
    </g>
</svg>
