<?xml version="1.0" encoding="UTF-8" standalone="no"?>
<!DOCTYPE svg PUBLIC "-//W3C//DTD SVG 1.1//EN" "http://www.w3.org/Graphics/SVG/1.1/DTD/svg11.dtd">
<svg width="100%" height="100%" viewBox="0 0 800 800" version="1.1" xmlns="http://www.w3.org/2000/svg" xmlns:xlink="http://www.w3.org/1999/xlink" xml:space="preserve" xmlns:serif="http://www.serif.com/" style="fill-rule:evenodd;clip-rule:evenodd;stroke-linejoin:round;stroke-miterlimit:2;">
    <g id="Timestamp">
        <g id="BG">
            <circle cx="400" cy="400" r="398" style="fill:white;"/>
            <path d="M400,2C619.662,2 798,180.338 798,400C798,619.662 619.662,798 400,798C180.338,798 2,619.662 2,400C2,180.338 180.338,2 400,2ZM400,37C600.345,37 763,199.655 763,400C763,600.345 600.345,763 400,763C199.655,763 37,600.345 37,400C37,199.655 199.655,37 400,37Z"/>
        </g>
        <g transform="matrix(1.09892,0,0,1.16883,-55.5929,-115.571)">
            <ellipse cx="510" cy="572" rx="143" ry="77" style="fill:white;"/>
            <path d="M510,468.478C455.416,468.478 407.246,483.601 377.241,505.635C352.189,524.033 338.79,547.46 338.79,572C338.79,596.54 352.189,619.967 377.241,638.365C407.246,660.399 455.416,675.522 510,675.522C564.584,675.522 612.754,660.399 642.759,638.365C667.811,619.967 681.21,596.54 681.21,572C681.21,547.46 667.811,524.033 642.759,505.635C612.754,483.601 564.584,468.478 510,468.478ZM510,495C588.924,495 653,529.503 653,572C653,614.497 588.924,649 510,649C431.076,649 367,614.497 367,572C367,529.503 431.076,495 510,495Z"/>
        </g>
        <g transform="matrix(0.611139,0.791523,-0.942224,0.727496,729.679,-228.753)">
            <path d="M487,470L495,564L479,564L487,470Z" style="fill:rgb(255,24,24);"/>
            <path d="M495.478,469.491C495.16,465.754 491.459,462.86 487,462.86C482.541,462.86 478.84,465.754 478.522,469.491L470.522,563.491C470.353,565.468 471.171,567.415 472.779,568.866C474.387,570.317 476.64,571.14 479,571.14L495,571.14C497.36,571.14 499.613,570.317 501.221,568.866C502.829,567.415 503.647,565.468 503.478,563.491L495.478,469.491ZM487,470L495,564L479,564L487,470Z" style="fill:rgb(255,24,24);"/>
        </g>
        <g transform="matrix(0.525587,-0.85074,0.610264,0.377021,-99.4998,773.11)">
            <path d="M487,470L495,564L479,564L487,470Z" style="fill:rgb(54,63,157);"/>
            <path d="M495.441,468.604C494.933,462.642 491.307,458.151 487,458.151C482.693,458.151 479.067,462.642 478.559,468.604L470.559,562.604C470.273,565.966 471.032,569.339 472.645,571.87C474.258,574.401 476.571,575.849 479,575.849L495,575.849C497.429,575.849 499.742,574.401 501.355,571.87C502.968,569.339 503.727,565.966 503.441,562.604L495.441,468.604ZM487,470L495,564L479,564L487,470Z" style="fill:rgb(54,63,157);"/>
        </g>
        <g id="path0" transform="matrix(0.876634,-0.481158,0.481158,0.876634,5.71683,202.39)">
            <path d="M190.4,19.797C155.306,25.053 128.872,55.379 128.808,90.458C128.773,109.26 133.596,125.755 146.567,151.2C149.651,157.25 153.26,164.335 154.587,166.945L157,171.691L157.109,195.445L157.218,219.2L156.216,219.2C155.664,219.2 153.185,219.758 150.707,220.44C148.228,221.123 143.95,222.296 141.2,223.048C131.892,225.593 127.817,226.719 121.8,228.409C118.5,229.337 113.64,230.684 111,231.403C98.561,234.791 95.386,235.662 89.8,237.217C86.5,238.136 81.55,239.501 78.8,240.251C70.788,242.436 65.759,243.825 60.2,245.387C57.34,246.19 52.39,247.542 49.2,248.392C34.152,252.398 24.917,259.564 18.775,272.001C14.714,280.227 14.417,282.824 14.408,310.3L14.4,333.2L42.8,333.2L42.8,340.71C42.8,349.299 43.215,353.411 44.626,358.8C48.902,375.131 63.511,387.859 80.414,389.978C85.095,390.565 315.287,390.567 319.967,389.98C336.017,387.968 350.41,375.957 355.176,360.6C356.966,354.831 357.2,352.771 357.2,342.774L357.2,333.2L386,333.2L385.988,310.7C385.975,286.936 385.85,284.727 384.206,279C379.737,263.433 368.852,253.219 351.8,248.592C349.16,247.875 343.94,246.439 340.2,245.401C336.46,244.362 331.87,243.096 330,242.587C321.14,240.177 317.25,239.109 310.4,237.206C306.33,236.075 301.02,234.604 298.6,233.937C296.18,233.27 291.59,232.002 288.4,231.12C285.21,230.237 281.07,229.103 279.2,228.6C277.33,228.096 270.49,226.204 264,224.395C257.51,222.586 250.31,220.652 248,220.098C245.69,219.544 243.575,219.031 243.3,218.958C242.507,218.748 242.584,175.397 243.383,172.331C243.917,170.281 245.606,166.786 250.212,158.2C265.446,129.805 271.352,111.227 271.319,91.8C271.243,47.306 233.135,13.397 190.4,19.797M328.8,341.985C328.8,353.895 327.25,357.552 320.876,360.682L318.6,361.8L81.8,361.8L79.6,360.754C75.434,358.773 72.46,354.932 71.606,350.431C71.158,348.071 71.042,333.892 71.467,333.467C71.613,333.32 129.573,333.2 200.267,333.2L328.8,333.2L328.8,341.985" style="fill:rgb(4,4,4);"/>
        </g>
    </g>
    <g id="Badge" transform="matrix(0.941581,0,0,0.941581,2,44.7354)">
        <circle cx="145.5" cy="654.5" r="145.5"/>
        <path d="M145.5,509C225.804,509 291,574.196 291,654.5C291,734.804 225.804,800 145.5,800C65.196,800 0,734.804 0,654.5C0,574.196 65.196,509 145.5,509ZM145.5,519.089C220.235,519.089 280.911,579.765 280.911,654.5C280.911,729.235 220.235,789.911 145.5,789.911C70.765,789.911 10.089,729.235 10.089,654.5C10.089,579.765 70.765,519.089 145.5,519.089Z" style="fill:white;"/>
        <g transform="matrix(0.956835,0,0,0.956835,1.76984,19.0057)">
            <path d="M153.1,689.8L177.08,726.98C184.56,738.64 188.74,746.12 192.92,754.04L251.22,754.04C241.98,742.82 235.82,734.9 228.78,725L180.16,656.8L221.52,598.72C229.22,587.72 234.5,580.9 242.42,571L185.88,571C182.36,579.36 178.62,585.96 169.82,599.82L153.32,625.56L136.6,600.04C128.68,587.94 123.84,579.14 120.32,571L63.34,571C71.48,580.68 78.08,589.26 84.9,599.16L126.04,657.02L77.64,725C71.26,733.8 66.86,739.52 54.98,754.04L113.28,754.04C118.78,743.92 123.4,736.22 129.34,726.98L153.1,689.8Z" style="fill:white;fill-rule:nonzero;"/>
        </g>
    </g>
</svg>
