<?xml version="1.0" encoding="UTF-8" standalone="no"?>
<!DOCTYPE svg PUBLIC "-//W3C//DTD SVG 1.1//EN" "http://www.w3.org/Graphics/SVG/1.1/DTD/svg11.dtd">
<svg width="100%" height="100%" viewBox="0 0 800 800" version="1.1" xmlns="http://www.w3.org/2000/svg" xmlns:xlink="http://www.w3.org/1999/xlink" xml:space="preserve" xmlns:serif="http://www.serif.com/" style="fill-rule:evenodd;clip-rule:evenodd;stroke-linejoin:round;stroke-miterlimit:2;">
    <g id="Generic">
        <g id="BG">
            <circle cx="400" cy="400" r="398" style="fill:white;"/>
            <path d="M400,2C619.662,2 798,180.338 798,400C798,619.662 619.662,798 400,798C180.338,798 2,619.662 2,400C2,180.338 180.338,2 400,2ZM400,37C600.345,37 763,199.655 763,400C763,600.345 600.345,763 400,763C199.655,763 37,600.345 37,400C37,199.655 199.655,37 400,37Z"/>
        </g>
        <g transform="matrix(-0.0650753,-1.56322e-17,1.56322e-17,-0.0625713,660.246,672.767)">
            <g transform="matrix(1.11165,0,0,1.11165,-480.374,-486.71)">
                <path d="M4005,8129C3747,8107 3133,7996 3103,7966C3100,7964 3102,7901 3105,7827L3113,7693L3221,7687C3864,7650 4556,7360 4964,6955C5068,6853 5129,6703 5117,6582C5105,6470 5056,6397 4842,6179L4748,6083L5136,5699C5349,5488 5533,5306 5545,5295C5557,5284 5582,5260 5601,5243L5636,5210L5778,5351C5885,5456 5934,5497 5975,5516C6147,5595 6381,5550 6582,5399C6678,5328 6790,5203 6832,5124C6897,5000 6900,4902 6842,4835C6788,4774 6787,4682 6840,4574C6862,4530 6904,4479 6997,4383C7110,4267 7132,4250 7185,4230C7252,4206 7343,4201 7406,4218C7472,4237 7527,4281 7680,4437C7760,4518 7916,4678 8027,4791C8203,4969 8234,5005 8261,5065C8289,5124 8294,5145 8294,5209C8294,5318 8268,5368 8136,5512C8002,5659 7956,5685 7835,5685C7766,5685 7748,5681 7706,5658C7650,5626 7607,5623 7529,5646C7394,5686 7279,5776 7230,5882C7187,5974 7171,6047 7160,6205C7143,6430 7130,6521 7109,6570C7094,6604 6995,6709 6697,7008C6212,7494 6092,7602 5890,7732C5546,7952 5175,8076 4713,8125C4562,8141 4174,8143 4005,8129Z" style="fill-rule:nonzero;"/>
            </g>
            <g transform="matrix(1.06205,0,0,1.06205,-464.944,-457.931)">
                <path d="M4370,5687C4137,5457 3859,5185 3255,4595C2837,4186 2688,4041 2075,3439C1949,3315 1519,2894 1120,2503C589,1984 388,1780 368,1744C323,1660 307,1588 312,1485C315,1403 320,1384 352,1319C385,1253 421,1213 671,957C825,799 972,658 996,644C1141,559 1346,559 1478,644C1524,674 1597,749 1835,1015C1939,1131 2049,1252 2079,1285C2110,1318 2172,1386 2216,1435C2290,1517 3105,2418 3410,2755C3480,2832 3759,3140 4030,3440C4301,3740 4544,4008 4569,4035C4840,4331 5425,4984 5425,4990C5425,4996 5238,5190 4655,5787L4565,5880L4370,5687Z" style="fill-rule:nonzero;"/>
            </g>
        </g>
    </g>
    <g id="Badge" transform="matrix(0.941581,0,0,0.941581,2,44.7354)">
        <circle cx="145.5" cy="654.5" r="145.5"/>
        <path d="M145.5,509C225.804,509 291,574.196 291,654.5C291,734.804 225.804,800 145.5,800C65.196,800 0,734.804 0,654.5C0,574.196 65.196,509 145.5,509ZM145.5,519.089C220.235,519.089 280.911,579.765 280.911,654.5C280.911,729.235 220.235,789.911 145.5,789.911C70.765,789.911 10.089,729.235 10.089,654.5C10.089,579.765 70.765,519.089 145.5,519.089Z" style="fill:white;"/>
        <g transform="matrix(0.956835,0,0,0.956835,1.76984,19.0057)">
            <path d="M153.1,689.8L177.08,726.98C184.56,738.64 188.74,746.12 192.92,754.04L251.22,754.04C241.98,742.82 235.82,734.9 228.78,725L180.16,656.8L221.52,598.72C229.22,587.72 234.5,580.9 242.42,571L185.88,571C182.36,579.36 178.62,585.96 169.82,599.82L153.32,625.56L136.6,600.04C128.68,587.94 123.84,579.14 120.32,571L63.34,571C71.48,580.68 78.08,589.26 84.9,599.16L126.04,657.02L77.64,725C71.26,733.8 66.86,739.52 54.98,754.04L113.28,754.04C118.78,743.92 123.4,736.22 129.34,726.98L153.1,689.8Z" style="fill:white;fill-rule:nonzero;"/>
        </g>
    </g>
</svg>
