<?xml version="1.0" encoding="UTF-8" standalone="no"?>
<!DOCTYPE svg PUBLIC "-//W3C//DTD SVG 1.1//EN" "http://www.w3.org/Graphics/SVG/1.1/DTD/svg11.dtd">
<svg width="100%" height="100%" viewBox="0 0 800 800" version="1.1" xmlns="http://www.w3.org/2000/svg" xmlns:xlink="http://www.w3.org/1999/xlink" xml:space="preserve" xmlns:serif="http://www.serif.com/" style="fill-rule:evenodd;clip-rule:evenodd;stroke-linejoin:round;stroke-miterlimit:2;">
    <g id="Volcano" transform="matrix(1,0,0,1,-1.76748e-13,2)">
        <g id="BG">
            <circle cx="400" cy="400" r="398" style="fill:rgb(137,46,46);"/>
            <path d="M400,2C619.662,2 798,180.338 798,400C798,619.662 619.662,798 400,798C180.338,798 2,619.662 2,400C2,180.338 180.338,2 400,2ZM400,37C600.345,37 763,199.655 763,400C763,600.345 600.345,763 400,763C199.655,763 37,600.345 37,400C37,199.655 199.655,37 400,37Z"/>
        </g>
        <g>
            <g transform="matrix(0.938588,0,0,0.938588,-79.1489,62.5415)">
                <path d="M482,218C482.222,224.251 484.682,232.115 481.74,238C476.239,249.004 462.939,257.103 467.502,271.879C470.346,281.087 490.079,289.461 496.374,298C506.367,311.556 500.735,338.134 512.576,348.801C518.049,353.731 521.78,345.859 527.079,344.782C534.255,343.322 539.259,350.713 542.357,356C561.026,387.858 560.653,426.29 573.38,460C581.516,481.55 597.405,496.301 609.044,515.519C619.323,532.491 625.244,551.295 633.887,569C648.802,599.555 654.659,632.665 667.373,664C669.746,669.847 676.636,692.42 685.868,688.991C689.731,687.556 691.905,682.922 691.448,679C690.748,672.988 685.04,668.278 685.766,662C687.019,651.148 704.839,634.621 696.395,624.225C690.589,617.077 680.151,617.659 674.158,610.056C664.154,597.366 660.194,579.263 652.443,565C637.671,537.818 616.063,510.274 606.118,481C601.573,467.623 614.691,462.324 610.457,451C605.68,438.225 593.973,430.243 586.648,419.139C578.57,406.894 574.917,390.082 571.385,376C564.67,349.227 556.033,320.451 553.224,293C550.481,266.185 552.429,238.106 541,213C535.791,216.757 534.442,223.023 533,229C530.387,223.395 526.017,206.055 518.843,205.074C506.35,203.365 499.161,222.724 482,218Z" style="fill:rgb(251,191,39);fill-rule:nonzero;"/>
                <path d="M508,193C501.738,152.761 505.09,122.332 528.295,87C536.969,73.791 552.201,64.946 558.172,50C562.704,38.656 565.814,2.505 547.997,0.574C531.271,-1.239 525.958,26.19 522.438,38C511.288,75.407 492.33,115.361 495.136,155C495.762,163.842 498.148,190.28 508,193Z" style="fill:rgb(251,191,39);fill-rule:nonzero;"/>
                <g>
                    <path d="M506,184L508,193C502.598,191.973 503.767,185.507 498.917,183.5C487.317,178.7 464.093,180.925 452,183.389C443.584,185.103 439.905,196.427 435,197C432.085,233.895 408.472,266.782 391.553,298C375.827,327.019 364.716,358.26 348.284,387C333.992,411.997 302.734,428.898 310,460C337.942,446.354 326.159,474.195 315.473,487.783C298.116,509.852 272.302,524.945 258.646,550C253.495,559.452 249.093,575.515 257.607,584.635C264.771,592.308 277.523,583.859 284,579.213C304.204,564.719 319.439,539.73 340.933,527.792C348.889,523.373 350.489,550.238 363.215,534.759C373.079,522.762 363.873,503.89 372.604,491C374.879,487.642 380.497,479.212 385.539,480.91C395.785,484.36 380.926,518.196 378.199,524C364.401,553.372 344.658,579.458 338.819,612C337.348,620.197 336.675,641.712 343.303,648.034C347.794,652.318 358.795,644.165 361.654,640.901C372.317,628.722 370.26,607.858 380.518,594C391.105,579.697 406.699,569.32 414.636,553C428.772,523.937 428.803,487.25 435.32,456C439.726,434.873 449.969,417.891 457,398C465.608,407.007 461.986,419.376 466.181,429.99C470.363,440.568 489.138,436.147 491.418,444.281C493.57,451.961 486.754,463.477 483.433,470C475.064,486.435 462.263,504.02 461.085,523C460.115,538.648 470.635,570.993 481,542C497.941,584.902 462.071,652.904 496,690C508.549,660.649 519.162,629.329 519.786,597C520.179,576.632 513.155,556.352 515.321,536C518.751,503.762 534.975,476.551 530.279,443C527.463,422.884 518.44,403.457 518.019,383C517.954,379.861 516.364,364.52 521.453,364.52C530.43,364.52 539.26,389.189 541.973,396C545.697,405.351 552.854,414.41 555.374,424C557.812,433.281 554.112,442.963 558.306,452C565.389,467.263 579.45,479.181 590,492C590.43,482.639 576.047,466.88 572.677,457C561.422,424.007 562.625,376.516 538.383,349.188C528.318,337.842 518.277,355.609 511.162,346.386C498.683,330.212 508.84,305.268 490,291C491.716,305.716 500.653,320.001 503.425,335C507.32,356.075 504.944,377.718 509.2,399C513.904,422.523 521.537,445.293 514.165,469C508.148,488.348 491.947,504.972 478,519C478.282,488.486 507.63,463.55 506.932,435C506.514,417.908 489.075,424.485 483.706,412.938C480.457,405.951 487.219,395.256 485.383,387C482.175,372.582 471.221,361.023 466.838,347C462.248,332.316 462.083,316.061 458.983,301C457.961,296.032 456.818,287.024 450.895,285.561C432.278,280.963 418.947,327.629 414.768,340C409.15,356.628 404.829,377.036 395.553,392C390.499,400.153 379.285,404.96 375.961,414C372.303,423.951 386.007,434.696 382.906,445C380.502,452.987 371.119,458.479 367.261,466.019C359.633,480.924 357.445,495.982 354,512C336.27,485.971 308.359,533.008 290,537C309.669,506.868 353.942,478.789 354,440C330.03,442.808 339.05,424.024 348.499,411.04C359.93,395.335 377.197,384.652 388.69,368.981C396.94,357.733 393.043,344.065 398.067,332C403.58,318.761 416.11,309.641 421,296C419.051,296.936 418.45,297.392 417,299C416.943,261.584 445.657,228.962 454,194C468.683,203.953 481.328,220.835 482,239C483.999,233.098 483.985,222.088 481.113,216.438C478.879,212.043 470.251,204.89 473.845,199.428C476.999,194.636 484.041,194.755 489,195.479C499.664,197.036 510.585,200.265 521,195.565C528.788,192.05 539.069,180.856 547.003,180.177C554.055,179.574 559.371,185.538 564,190C569.073,184.669 572.407,178.764 579,175C569.638,155.188 555.533,163.249 545,177C547.974,167.76 555.895,159.06 561.937,151.562C577.578,132.15 603.071,95.241 631,94.091C648.513,93.37 651.454,122.971 665.912,114.907C678.307,107.994 673.283,91.285 664.823,83.406C653.559,72.918 636.056,71.88 622,76.577C590.607,87.067 571.675,120.081 554.564,146C540.602,167.147 532.484,184.04 506,184Z" style="fill:rgb(247,149,29);fill-rule:nonzero;"/>
                    <path d="M663,152C664.377,165.454 666.305,176.397 664.081,190C663.554,193.223 660.783,201.204 663.98,203.655C670.882,208.946 677.699,196.07 677.871,191C678.313,177.998 670.793,162.042 663,152Z" style="fill:rgb(247,149,29);fill-rule:nonzero;"/>
                    <path d="M591,201C589.792,212.797 584.606,223.979 586.643,236C593.131,274.291 630.961,296.216 652.057,326C664.018,342.886 659.535,365.883 682,373C675.984,352.582 666.785,321.107 652.294,305.339C639.369,291.277 620.841,286.024 610.217,269C597.277,248.266 600.915,222.301 591,201Z" style="fill:rgb(247,149,29);fill-rule:nonzero;"/>
                </g>
                <g>
                    <path d="M345,69C372.977,69.013 374.116,92.149 393.008,106.356C406.411,116.436 427.15,107.341 441.959,115.108C458.022,123.533 455.627,144.553 476,151C471.639,108.446 441.016,112.716 416.021,87.959C402.83,74.893 411.327,57.475 401.091,44.158C381.38,18.512 348.576,45.664 345,69Z" style="fill:rgb(251,191,39);fill-rule:nonzero;"/>
                    <path d="M368,140C349.767,160.105 322.699,187.92 322.048,217C321.758,229.953 350.798,256.098 361.616,241.314C367.19,233.696 356.904,211.717 355.602,203C352.312,180.977 356.876,159.768 369,141L368,140Z" style="fill:rgb(251,191,39);fill-rule:nonzero;"/>
                    <path d="M564,190C547.802,169.205 532.765,192.203 515,197.712C506.093,200.474 496.863,196.735 488,195.481C482.797,194.745 471.752,195.237 473.027,203.044C475.713,219.491 493.003,222.838 505,214.51C508.356,212.181 514.274,204.503 518.637,205.081C525.569,206 530.082,222.483 532,228C535.375,221.561 539.859,206.58 549.981,210.486C570.263,218.312 556.699,237.349 563.604,250.914C567.946,259.443 579.195,260.756 583.796,270.003C591.177,284.835 589.195,302.489 597.21,316.971C601.3,324.361 616.291,323.731 615.568,333.998C614.891,343.624 599.403,348.245 592,351C600.547,366.411 625.772,362.819 637.684,377.003C643.914,384.421 645.23,394.314 650.784,401.957C657.475,411.166 669.824,413.918 677.165,423.003C693.121,442.751 702.58,467.101 721.003,484.959C733.666,497.235 750.718,503.902 765,514C767.931,485.332 745.582,485.471 735.231,462C722.679,433.536 711.688,408.668 691.717,384C684.446,375.02 672.545,371.091 666.188,361.957C657.201,349.047 658.232,332.687 647.559,319C631.477,298.376 609.938,282.389 596.094,260C587.422,245.974 584.025,232.16 587.864,216C589.468,209.25 597.78,188.319 594.956,183.021C585.681,165.626 570.85,180.364 564,190Z" style="fill:rgb(251,68,4);fill-rule:nonzero;"/>
                    <path d="M703,182C709.669,204.94 714.402,225.982 709.997,250C708.774,256.669 702.305,275.749 707.822,281.171C720.008,293.148 733.912,265.851 733.992,257C734.202,233.782 719.358,198.456 703,182Z" style="fill:rgb(251,191,39);fill-rule:nonzero;"/>
                    <path d="M454,194C441.484,229.444 423.349,261.605 416,299C418.488,297.211 420.223,295.495 422,293C419.297,307.145 404.869,316.327 399.01,329C392.276,343.569 396.993,358.535 385.596,371.864C367.687,392.808 338.015,409.558 338,440C359.868,437.344 353.77,454.658 345.541,467.997C329.955,493.265 303.184,510.069 290,537C307.662,534.529 337.607,486.1 353,512C358.934,497.855 359.774,482.167 366.765,468.003C370.744,459.942 381.3,453.551 383.31,445C385.665,434.984 373.132,424.346 376.044,415C378.859,405.966 390.616,400.96 395.553,393C404.15,379.14 408.188,360.383 413.454,345C418.272,330.925 429.792,285.759 448.978,285.667C455.684,285.635 457.417,294.984 458.554,300C462.055,315.439 462.26,331.769 466.545,347C470.824,362.212 482.677,374.432 486.035,390C487.738,397.891 480.366,406.165 483.94,413.636C488.971,424.149 506.822,419.047 507.423,435C507.756,443.835 500.326,453.734 496.676,461.438C487.927,479.899 478.083,498.061 478,519C530.236,479.678 515.866,432.085 508.36,378C505.258,355.644 506.202,332.41 497.36,311C494.004,302.874 491.121,291.763 484.765,285.486C479.844,280.628 469.409,277.818 467.077,270.951C462.455,257.346 477.263,249.395 481.171,239C486.866,223.853 466.097,199.927 454,194Z" style="fill:rgb(251,68,4);fill-rule:nonzero;"/>
                </g>
            </g>
            <g>
                <path d="M405.162,653.852C409.581,651.162 412.558,662.764 413.61,666.053C418.374,680.968 414.97,697.291 419.241,712.044C426.799,707.901 430.374,689.618 438.613,688.939C452.449,687.798 446.487,724.399 456.392,725.82C466.344,727.247 467.132,706.352 474.787,704.2C479.676,702.827 491.483,724.621 496.205,728C502.914,701.5 496.909,671.67 501.343,644.466C502.759,635.772 515.015,622.024 514.026,615.296C510.541,591.586 495.058,552.428 481.47,532.774C470.663,517.142 454.42,504.621 445.564,487.722C440.572,478.199 444.467,470.22 442.109,460.503C439.088,448.056 429.745,432.738 423.957,421.082C422.364,417.874 414.105,401.108 409.071,405.152C405.178,408.278 406.868,419.562 407.343,423.898C409.373,442.443 415.995,459.98 418.867,478.336C423.598,508.574 408.272,532.007 405.373,560.931C402.236,592.238 409.662,622.126 405.162,653.852Z" style="fill:rgb(165,62,56);"/>
                <path d="M645.764,712.981C646.059,700.441 645.441,688.076 645.441,675.439C651.757,678.746 656.477,684.235 663.274,686.702C663.169,663.173 637.006,648.887 636.055,625.694C653.425,642.085 666.155,662.978 680.935,681.802C669.839,692.865 658.095,703.278 645.764,712.981Z" style="fill:rgb(165,62,56);"/>
                <path d="M133.88,695.822C148,680.92 162.632,667.232 180.84,665.115C175.611,682.146 163.342,696.928 152.356,711.467L146.896,707.069C144.464,705.011 142.031,702.954 139.598,700.897L133.88,695.822Z" style="fill:rgb(165,62,56);"/>
                <path d="M405.162,653.852C409.581,651.162 412.558,662.764 413.61,666.053C418.374,680.968 414.97,697.291 419.241,712.044C426.799,707.901 430.374,689.618 438.613,688.939C452.449,687.798 446.487,724.399 456.392,725.82C466.344,727.247 467.132,706.352 474.787,704.2C479.676,702.827 491.483,724.621 496.205,728C502.914,701.5 496.909,671.67 501.343,644.466C502.759,635.772 515.015,622.024 514.026,615.296C510.541,591.586 495.058,552.428 481.47,532.774C470.663,517.142 454.42,504.621 445.564,487.722C440.572,478.199 444.467,470.22 442.109,460.503C439.088,448.056 429.745,432.738 423.957,421.082C422.364,417.874 414.105,401.108 409.071,405.152C405.178,408.278 406.868,419.562 407.343,423.898C409.373,442.443 415.995,459.98 418.867,478.336C423.598,508.574 408.272,532.007 405.373,560.931C402.236,592.238 409.662,622.126 405.162,653.852Z" style="fill:rgb(165,62,56);"/>
                <path d="M640.454,717.057C633.676,710.024 626.438,698.909 618.358,698.303C614.503,698.014 614.209,707.514 612.576,710.011C607.404,717.922 594.595,714.774 588.509,709.454C583.836,705.368 573.783,692.209 575.971,685.764C579.77,674.575 597.279,666.253 591.488,652.921C586.604,641.678 571.056,638.184 563.087,629.41C545.022,609.517 529.7,583.948 519.758,559.054C514.842,546.742 509.908,531.103 512.911,517.756C514.214,511.967 524.833,500.508 523.761,496.096C522.102,489.261 511.126,481.229 506.782,475.52C497.031,462.708 489.606,448.332 483.96,433.284C482.629,429.733 475.807,412.012 481.658,410.388C490.558,407.917 503.527,425.784 508.03,431.406C530.023,458.87 552.272,486.237 573.903,514.002C581.071,523.203 592.33,546.522 603.001,551.071C606.469,552.549 611.439,548.605 615.424,549.131C625.248,550.427 633.642,557.179 640.71,563.665C667.626,588.359 687.399,619.878 711.832,647.191C702.206,659.317 691.888,670.87 680.935,681.802C666.155,662.978 653.425,642.085 636.055,625.694C637.006,648.887 663.169,663.173 663.274,686.702C656.477,684.235 651.757,678.746 645.441,675.439C645.441,688.076 646.059,700.441 645.764,712.981L645.658,713.067L640.454,717.057Z" style="fill:rgb(165,62,56);"/>
                <path d="M108.193,670.5C126.406,652.719 142.342,631.299 161.805,615.878C168.162,610.842 179.703,611.196 187.41,605.498C204.702,592.713 221.117,565.658 240.862,557.784C249.277,554.428 245.966,572.58 255.934,568.426C272.117,561.682 263.253,539.487 268.584,526.842C270.371,522.604 276.33,512.838 281.865,513.463C291.209,514.518 279.04,547.872 277.085,552.484C264.975,581.055 239.245,608.435 238.131,640.711C237.873,648.217 236.851,665.493 243.624,670.745C247.979,674.123 257.437,667.138 260.166,664.028C270.308,652.469 268.29,633.297 277.601,620.063C288.324,604.82 304.447,594.404 312.075,576.887C321.879,554.375 322.075,527.533 326.587,503.678C331.211,479.226 340.034,458.692 349.786,436.099L351.663,436.099C354.803,445.449 354.067,462.354 360.604,469.524C364.797,474.126 380.735,474.367 381.955,479.617C383.592,486.666 377.602,497.519 374.704,503.678C366.581,520.942 353.908,537.478 352.736,557.177C351.626,575.846 361.253,590.738 373.25,571.256C380.441,611.769 377.613,663.151 367.736,702.658C363.966,717.741 359.435,738.378 343.215,744.895C341.221,733.568 333.941,723.606 331.952,712.044C324.235,719.611 308.127,754.334 302.856,728C282.291,743.209 283.999,720.316 287.526,705.474C294.996,674.035 318.624,651.745 310.365,618.185C294.509,630.324 285.916,654.236 273.291,669.808C250.759,697.597 222.425,720.39 192.308,739.484C178.396,730.952 165.049,721.588 152.356,711.467C163.342,696.928 175.611,682.146 180.84,665.115C162.632,667.232 148,680.92 133.88,695.822C124.935,687.772 116.356,679.323 108.193,670.5Z" style="fill:rgb(165,62,56);"/>
                <path d="M253.096,769.954L254.162,770.389C295.724,770.654 337.318,771.175 378.882,771.175C358.956,763.579 325.073,756.94 303.795,759.277C286.577,761.166 270.347,768.426 253.096,769.954Z" style="fill:rgb(165,62,56);"/>
            </g>
            <g>
                <path d="M253.221,770.006C275.142,768.326 295.527,757.418 317.874,759.104C344.189,761.089 368.925,771.808 395.776,772.106C437.914,772.575 478.735,765.859 520.608,763.74C534.118,763.056 547.55,763.313 560.95,764.035C511.723,785.879 457.266,798 400,798C348.182,798 298.663,788.076 253.221,770.006Z" style="fill:rgb(59,35,19);"/>
                <path d="M191.825,739.182C221.906,720.057 249.746,697.366 272.52,669.808C284.254,655.609 294.344,627.056 310.365,618.185C320.832,650.209 295.592,675.63 287.766,705.474C283.455,721.913 282.212,739.727 302.856,728C309.926,754.65 322.24,717.551 331.952,712.044C334.662,723.049 342.038,733.787 343.215,744.895C363.664,733.392 371.738,698.232 373.25,676.378L375.127,676.378C375.875,688.77 379.357,700.815 386.39,711.106C394.517,691.604 400.347,672.255 406.101,651.974C420.963,665.651 416.035,693.947 419.241,712.044C425.243,707.428 431.192,688.614 438.613,688.171C452.747,687.327 446.338,723.546 456.392,725.108C466.062,726.609 467.235,705.415 474.787,703.372C479.605,702.07 492.273,724.169 496.205,728C501.61,702.814 497.037,675.686 500.487,650.097C502.134,637.883 504.319,624.808 515.916,618.185C522.767,632.267 530.48,644.938 533.956,660.422C538.635,681.267 536.543,698.68 549.129,717.675C561.473,736.302 591.059,735.136 586.31,708.29C593.544,712.124 604.563,718.898 611.341,710.836C613.492,708.277 614.431,698.259 617.673,697.823C624.527,696.9 634.263,709.07 640.943,716.682C616.373,735.426 589.556,751.373 560.95,764.035C547.55,763.313 534.118,763.056 520.608,763.74C478.735,765.859 437.914,772.575 395.776,772.106C368.925,771.808 344.189,761.089 317.874,759.104C295.527,757.418 275.142,768.326 253.221,770.006C231.774,761.484 211.241,751.15 191.825,739.182Z" style="fill:rgb(59,35,19);"/>
                <path d="M645.607,713.105C645.808,700.532 645.441,688.091 645.441,675.439C652.042,677.811 656.998,683.525 663.274,686.702C663.055,666.344 630.723,644.954 636.993,625.694C653.708,642.339 666.557,662.855 681.338,681.408C670.077,692.666 658.146,703.253 645.607,713.105Z" style="fill:rgb(59,35,19);"/>
                <path d="M133.233,695.248C147.641,680.108 162.561,666.405 180.84,665.115C176.968,682.076 163.855,697.347 152.749,711.783L146.896,707.069C144.464,705.011 142.031,702.954 139.598,700.897L133.233,695.248Z" style="fill:rgb(59,35,19);"/>
            </g>
            <path d="M711.628,647.444C689.024,622.534 669.801,595.042 646.678,570.391C636.789,559.848 618.84,541.48 604.143,553.423C585.275,535.494 571.386,510.548 554.627,490.537C536.764,469.21 520.836,444.964 501.763,424.836C499.648,422.604 485.213,407.546 482.126,414.512C479.953,419.417 481.253,425.777 482.864,430.468C488.923,448.102 498.418,464.965 510.326,479.35C514.166,483.99 523.189,490.106 524.587,495.965C525.756,500.861 514.627,512.877 513.556,519.634C510.481,539.044 518.603,559.362 527.698,575.949C537.762,594.305 549.501,614.111 563.929,629.41C571.164,637.081 586.502,641.358 590.864,651.076C598.536,668.166 576.484,673.967 575.615,688.506C574.914,700.245 593.907,708.767 584.504,723.262C571.467,743.36 551.345,724.14 544.569,710.167C535.488,691.444 537.256,672.407 529.056,653.852C522.834,639.773 509.383,601.847 499.892,575.949C495.734,564.602 470.388,523.168 471.802,512.125C505.591,551.546 526.24,615.37 540.158,664.176C542.946,673.953 550.043,706.893 562.092,709.071C566.257,709.823 569.64,704.366 569.609,700.78C569.556,694.693 563.564,690.235 564.227,683.886C565.257,674.008 581.483,658.52 574.471,649.273C569.175,642.287 559.14,642.976 553.607,636.008C544.191,624.151 540.483,607.136 533.226,593.782C519.435,568.406 499.869,543.013 490.076,515.879C485.48,503.145 497.315,496.338 493.816,486.783C489.399,474.725 478.364,467.19 471.472,456.748C464.179,445.698 460.999,430.919 457.629,418.266C450.835,392.76 442.786,364.736 440.1,338.486C437.436,312.44 439.139,285.782 427.688,261.522C452.693,250.806 448.45,283.813 451.797,294.37C454.743,303.664 463.542,304.401 468.141,312.287C477.05,327.563 471.814,349.166 483.736,362.661C488.54,368.098 499.021,362.89 498.671,376.961C498.366,389.234 476.154,390.236 479.11,394.774C487.136,407.098 508.335,403.26 518.558,414.532C524.95,421.58 526.191,431.329 531.662,438.897C538.024,447.697 549.513,450.127 556.43,458.633C570.34,475.741 578.668,496.946 593.894,513.064C607.07,527.011 625.196,532.268 638.871,544.976L639.809,538.405C652.196,549.171 660.924,563.052 674.537,572.81C683.51,579.241 694.12,580.792 703.633,585.926C717.728,593.532 724.057,606.855 731.878,619.592C725.52,629.18 718.759,638.478 711.628,647.444Z" style="fill:rgb(247,149,29);"/>
        </g>
        <path id="BG1" serif:id="BG" d="M400,2C619.662,2 798,180.338 798,400C798,619.662 619.662,798 400,798C180.338,798 2,619.662 2,400C2,180.338 180.338,2 400,2ZM400,37C600.345,37 763,199.655 763,400C763,600.345 600.345,763 400,763C199.655,763 37,600.345 37,400C37,199.655 199.655,37 400,37Z"/>
    </g>
    <g id="Badge" transform="matrix(0.941581,0,0,0.941581,2,44.7354)">
        <circle cx="145.5" cy="654.5" r="145.5"/>
        <path d="M145.5,509C225.804,509 291,574.196 291,654.5C291,734.804 225.804,800 145.5,800C65.196,800 0,734.804 0,654.5C0,574.196 65.196,509 145.5,509ZM145.5,519.089C220.235,519.089 280.911,579.765 280.911,654.5C280.911,729.235 220.235,789.911 145.5,789.911C70.765,789.911 10.089,729.235 10.089,654.5C10.089,579.765 70.765,519.089 145.5,519.089Z" style="fill:white;"/>
        <g transform="matrix(0.956835,0,0,0.956835,1.76984,19.0057)">
            <path d="M153.1,689.8L177.08,726.98C184.56,738.64 188.74,746.12 192.92,754.04L251.22,754.04C241.98,742.82 235.82,734.9 228.78,725L180.16,656.8L221.52,598.72C229.22,587.72 234.5,580.9 242.42,571L185.88,571C182.36,579.36 178.62,585.96 169.82,599.82L153.32,625.56L136.6,600.04C128.68,587.94 123.84,579.14 120.32,571L63.34,571C71.48,580.68 78.08,589.26 84.9,599.16L126.04,657.02L77.64,725C71.26,733.8 66.86,739.52 54.98,754.04L113.28,754.04C118.78,743.92 123.4,736.22 129.34,726.98L153.1,689.8Z" style="fill:white;fill-rule:nonzero;"/>
        </g>
    </g>
</svg>
